<?xml version="1.0" encoding="utf-8"?>
<!-- Generator: Adobe Illustrator 22.1.0, SVG Export Plug-In . SVG Version: 6.00 Build 0)  -->
<svg version="1.1" id="Layer_1" xmlns="http://www.w3.org/2000/svg" xmlns:xlink="http://www.w3.org/1999/xlink" x="0px" y="0px"
	 viewBox="0 0 414 49.4" style="enable-background:new 0 0 414 49.4;" xml:space="preserve">
<style type="text/css">
	.st0{display:none;fill:none;}
	.st1{fill:#206BFF;}
	.st2{fill:#FFFFFF;}
</style>
<rect x="2.5" y="1.3" class="st0" width="420.4" height="55.4"/>
<g>
	<g id="XMLID_1_">
		<g>
			<polygon class="st1" points="412.7,0.2 395.8,46.8 386.1,46.8 369.2,0.2 378.9,0.2 391,33.4 403,0.2 			"/>
			<polygon class="st1" points="363,37.8 363,46.9 340,46.9 330.8,46.9 330.8,37.7 330.8,32.8 330.8,23.6 330.8,9.5 330.8,0.3 
				340,0.3 361.5,0.3 361.5,9.5 340,9.5 340,23.7 353.6,23.7 353.6,32.9 340,32.9 340,37.8 			"/>
			<path class="st1" d="M300.9,0.3c12.9,0,23.3,10.4,23.3,23.2c0,12.9-10.4,23.3-23.3,23.3h-6.5h-1.9h-7.3V0.3h7.7h1.5H300.9z
				 M315.6,23.5c0-8-6.6-14.6-14.7-14.6h-6.5v29.3h6.5C309,38.2,315.6,31.6,315.6,23.5z"/>
			<path class="st2" d="M270.2,22.5c7,3,10.9,6,10.9,12.9c0,7.4-5.8,11.5-13.6,11.5c-6.6,0-11.1-2.7-13.7-6.4l6.1-4.9
				c1.6,2.3,3.8,4.1,7.4,4.1c3.4,0,5.6-1.7,5.6-4.1c0-2.8-2.3-3.8-6-5.5l-2-0.9c-5.9-2.6-9.8-5.7-9.8-12.4c0-6.2,4.7-10.8,12-10.8
				c4.6,0,8.1,1.5,10.7,5.1l-5.9,4.8c-1.3-2-2.7-2.8-4.8-2.8c-2.4,0-4,1.6-4,3.5c0,2.5,1.6,3.4,5.1,5L270.2,22.5z"/>
			<polygon class="st2" points="248.8,6.1 248.8,46.9 240.8,46.9 240.8,46.8 240.8,6.1 			"/>
			<polygon class="st2" points="217.5,28.6 233.3,46.8 222.7,46.8 212.9,35.6 207.7,43.6 207.7,46.9 199.7,46.9 199.7,6.1 
				207.7,6.1 207.7,29 222.8,6.1 232.2,6.1 			"/>
			<path class="st2" d="M178.6,6l16.3,40.8h-8l-1.3-3.3c-3.2,2.1-7,3.3-11.1,3.3s-7.9-1.2-11-3.3l-1.3,3.3h-8L170.6,6H178.6z
				 M182.7,36.5l-5.8-14.4l-2.4-6l-8.1,20.4c2.2,1.8,5,2.9,8.1,2.9S180.5,38.3,182.7,36.5z"/>
			<polygon class="st2" points="147.2,6 147.2,14 147.1,14 135.2,14 135.2,46.8 127.2,46.8 127.2,14 115.3,14 115.3,6 			"/>
			<polygon class="st2" points="108.2,38.9 108.2,46.8 88.6,46.8 80.6,46.8 80.6,38.8 80.6,6.1 88.6,6.1 88.6,38.9 			"/>
			<path class="st2" d="M59.4,6.1l16.4,40.7h-8l-1.3-3.3c-3.2,2.1-7,3.3-11.1,3.3s-7.9-1.2-11-3.3l-1.3,3.3h-8L51.4,6.1H59.4z
				 M63.6,36.5l-5.8-14.4l-2.4-6l-8.1,20.4c2.2,1.8,5,2.9,8.1,2.9C58.5,39.4,61.4,38.3,63.6,36.5z"/>
			<path class="st2" d="M24.3,22.6c4.3,1.9,7.3,6.3,7.3,11.5c0,7.1-5.8,12.8-12.8,12.8H7.4H2.5V6.1h7.2h0.9H14
				c6.3,0,11.5,5.1,11.5,11.4C25.5,19.3,25,21,24.3,22.6z M24,34.1c0-2.9-2.3-5.1-5.1-5.1h-8.3v10.3h8.3C21.6,39.2,24,36.9,24,34.1z
				 M17.8,17.5c0-2.1-1.7-3.8-3.8-3.8h-3.4v2.2v3.3v2.1H14C16.1,21.3,17.8,19.6,17.8,17.5z"/>
		</g>
		<g>
		</g>
	</g>
</g>
</svg>
