<svg id="svg" version="1.1" xmlns="http://www.w3.org/2000/svg" xmlns:xlink="http://www.w3.org/1999/xlink" width="400" height="400" viewBox="0, 0, 400,400"><g id="svgg"><path id="path0" d="M146.500 51.050 L 96.800 100.827 96.800 103.014 C 96.800 104.216,96.620 105.200,96.400 105.200 C 96.169 105.200,96.000 106.467,96.000 108.200 C 96.000 109.933,95.831 111.200,95.600 111.200 C 95.372 111.200,95.200 112.392,95.200 113.976 C 95.200 115.503,95.020 116.864,94.800 117.000 C 94.580 117.136,94.400 118.497,94.400 120.024 C 94.400 121.979,94.252 122.800,93.900 122.799 C 93.535 122.798,93.436 123.554,93.533 125.599 C 93.631 127.660,93.525 128.454,93.133 128.603 C 92.741 128.753,92.635 129.546,92.733 131.603 C 92.861 134.297,92.831 134.401,91.933 134.432 C 91.420 134.449,91.225 134.554,91.500 134.665 C 92.198 134.947,92.187 139.953,91.487 140.222 C 91.117 140.364,91.019 141.190,91.133 143.209 C 91.282 145.846,91.243 146.000,90.431 146.000 C 89.706 146.000,89.636 146.120,89.986 146.774 C 90.612 147.944,90.513 151.582,89.848 151.837 C 89.429 151.998,89.344 152.651,89.497 154.547 C 89.651 156.468,89.554 157.189,89.079 157.664 C 88.636 158.107,88.523 158.746,88.680 159.917 C 88.948 161.919,88.569 163.600,87.848 163.600 C 87.422 163.600,87.395 163.913,87.716 165.116 C 88.150 166.743,87.810 169.600,87.182 169.600 C 86.972 169.600,86.800 170.860,86.800 172.400 C 86.800 174.000,86.629 175.200,86.400 175.200 C 86.169 175.200,86.000 176.467,86.000 178.200 C 86.000 179.933,85.831 181.200,85.600 181.200 C 85.372 181.200,85.200 182.392,85.200 183.976 C 85.200 185.503,85.020 186.864,84.800 187.000 C 84.580 187.136,84.400 188.497,84.400 190.024 C 84.400 191.979,84.252 192.800,83.900 192.799 C 83.535 192.798,83.436 193.554,83.533 195.599 C 83.631 197.660,83.525 198.454,83.133 198.603 C 82.741 198.753,82.635 199.546,82.733 201.603 C 82.861 204.297,82.831 204.401,81.933 204.432 C 81.420 204.449,81.225 204.554,81.500 204.665 C 82.198 204.947,82.187 209.953,81.487 210.222 C 81.117 210.364,81.019 211.190,81.133 213.209 C 81.282 215.846,81.243 216.000,80.431 216.000 C 79.706 216.000,79.636 216.120,79.986 216.774 C 80.612 217.944,80.513 221.582,79.848 221.837 C 79.429 221.998,79.344 222.652,79.498 224.562 C 79.652 226.482,79.557 227.208,79.097 227.638 C 78.646 228.058,78.545 228.759,78.696 230.423 C 78.840 232.019,78.738 232.809,78.333 233.223 C 77.954 233.611,77.774 234.707,77.784 236.566 C 77.795 238.435,77.638 239.386,77.300 239.499 C 76.964 239.612,76.800 240.576,76.800 242.433 C 76.800 244.011,76.628 245.200,76.400 245.200 C 76.169 245.200,76.000 246.467,76.000 248.200 C 76.000 249.933,75.831 251.200,75.600 251.200 C 75.372 251.200,75.200 252.392,75.200 253.976 C 75.200 255.503,75.020 256.864,74.800 257.000 C 74.580 257.136,74.400 258.497,74.400 260.024 C 74.400 261.608,74.228 262.800,74.000 262.800 C 73.771 262.800,73.600 264.004,73.600 265.613 C 73.600 267.494,73.435 268.488,73.100 268.616 C 72.748 268.750,72.639 269.632,72.733 271.603 C 72.817 273.380,72.712 274.400,72.444 274.400 C 72.213 274.400,100.013 302.390,134.222 336.600 C 191.910 394.288,198.000 400.196,198.000 398.468 C 198.000 398.285,198.495 397.880,199.100 397.568 C 199.705 397.255,200.549 396.685,200.975 396.300 C 201.402 395.915,201.987 395.600,202.275 395.600 C 202.564 395.600,202.800 395.420,202.800 395.200 C 202.800 394.980,203.070 394.800,203.400 394.800 C 203.730 394.800,204.000 394.620,204.000 394.400 C 204.000 394.180,204.251 394.000,204.558 394.000 C 204.865 394.000,205.540 393.553,206.058 393.007 C 206.576 392.461,207.197 392.011,207.438 392.007 C 207.679 392.003,208.202 391.640,208.600 391.200 C 208.998 390.760,209.544 390.400,209.813 390.400 C 210.082 390.400,210.529 390.127,210.806 389.793 C 211.083 389.459,211.915 388.898,212.655 388.547 C 213.395 388.196,214.000 387.749,214.000 387.554 C 214.000 387.359,214.236 387.200,214.525 387.200 C 214.813 387.200,215.398 386.885,215.825 386.500 C 216.251 386.115,217.095 385.545,217.700 385.232 C 218.305 384.920,218.800 384.515,218.800 384.332 C 218.800 384.150,218.990 384.000,219.223 384.000 C 219.456 384.000,220.805 383.190,222.221 382.200 C 223.638 381.210,224.937 380.400,225.110 380.400 C 225.282 380.400,225.683 380.040,226.000 379.600 C 226.317 379.160,226.814 378.800,227.105 378.800 C 227.396 378.800,228.020 378.440,228.492 378.000 C 228.964 377.560,229.587 377.200,229.875 377.200 C 230.164 377.200,230.400 377.048,230.400 376.863 C 230.400 376.677,231.210 376.109,232.200 375.600 C 233.190 375.091,234.000 374.523,234.000 374.337 C 234.000 374.152,234.251 374.000,234.558 374.000 C 234.865 374.000,235.540 373.553,236.058 373.007 C 236.576 372.461,237.197 372.011,237.438 372.007 C 237.679 372.003,238.202 371.640,238.600 371.200 C 238.998 370.760,239.544 370.400,239.813 370.400 C 240.082 370.400,240.529 370.127,240.806 369.793 C 241.083 369.459,241.915 368.898,242.655 368.547 C 243.395 368.196,244.000 367.749,244.000 367.554 C 244.000 367.359,244.236 367.200,244.525 367.200 C 244.813 367.200,245.398 366.885,245.825 366.500 C 246.251 366.115,247.095 365.545,247.700 365.232 C 248.305 364.920,248.800 364.515,248.800 364.332 C 248.800 364.150,248.990 364.000,249.223 364.000 C 249.456 364.000,250.805 363.190,252.221 362.200 C 253.638 361.210,254.937 360.400,255.110 360.400 C 255.282 360.400,255.683 360.040,256.000 359.600 C 256.317 359.160,256.814 358.800,257.105 358.800 C 257.396 358.800,258.020 358.440,258.492 358.000 C 258.964 357.560,259.587 357.200,259.875 357.200 C 260.164 357.200,260.400 357.048,260.400 356.863 C 260.400 356.677,261.210 356.109,262.200 355.600 C 263.190 355.091,264.000 354.523,264.000 354.337 C 264.000 354.152,264.251 354.000,264.558 354.000 C 264.865 354.000,265.540 353.553,266.058 353.007 C 266.576 352.461,267.197 352.011,267.438 352.007 C 267.679 352.003,268.202 351.640,268.600 351.200 C 268.998 350.760,269.544 350.400,269.813 350.400 C 270.082 350.400,270.529 350.127,270.806 349.793 C 271.083 349.459,271.915 348.898,272.655 348.547 C 273.395 348.196,274.000 347.749,274.000 347.554 C 274.000 347.359,274.236 347.200,274.525 347.200 C 274.813 347.200,275.398 346.885,275.825 346.500 C 276.251 346.115,277.095 345.545,277.700 345.232 C 278.305 344.920,278.800 344.515,278.800 344.332 C 278.800 344.150,278.993 344.000,279.228 344.000 C 279.464 344.000,280.792 343.190,282.179 342.200 C 283.566 341.210,284.864 340.400,285.062 340.400 C 285.261 340.400,285.683 340.040,286.000 339.600 C 286.317 339.160,286.814 338.800,287.105 338.800 C 287.396 338.800,288.020 338.440,288.492 338.000 C 288.964 337.560,289.587 337.200,289.875 337.200 C 290.164 337.200,290.400 337.048,290.400 336.863 C 290.400 336.677,291.210 336.109,292.200 335.600 C 293.190 335.091,294.000 334.523,294.000 334.337 C 294.000 334.152,294.251 334.000,294.558 334.000 C 294.865 334.000,295.540 333.553,296.058 333.007 C 296.576 332.461,297.197 332.011,297.438 332.007 C 297.679 332.003,298.202 331.640,298.600 331.200 C 298.998 330.760,299.544 330.400,299.813 330.400 C 300.082 330.400,300.529 330.127,300.806 329.793 C 301.083 329.459,301.915 328.898,302.655 328.547 C 303.395 328.196,304.000 327.749,304.000 327.554 C 304.000 327.359,304.320 327.200,304.712 327.200 C 305.103 327.200,305.683 326.840,306.000 326.400 C 306.317 325.960,306.857 325.600,307.200 325.600 C 307.543 325.600,308.083 325.240,308.400 324.800 C 308.717 324.360,309.127 324.000,309.311 324.000 C 309.495 324.000,310.805 323.190,312.221 322.200 C 313.638 321.210,314.937 320.400,315.110 320.400 C 315.282 320.400,315.683 320.040,316.000 319.600 C 316.317 319.160,316.814 318.800,317.105 318.800 C 317.396 318.800,318.020 318.440,318.492 318.000 C 318.964 317.560,319.587 317.200,319.875 317.200 C 320.164 317.200,320.400 317.048,320.400 316.863 C 320.400 316.677,321.210 316.109,322.200 315.600 C 323.190 315.091,324.000 314.523,324.000 314.337 C 324.000 314.152,324.251 314.000,324.558 314.000 C 324.865 314.000,325.540 313.553,326.058 313.007 C 326.576 312.461,327.197 312.011,327.438 312.007 C 327.679 312.003,328.202 311.640,328.600 311.200 C 328.998 310.760,329.544 310.400,329.813 310.400 C 330.082 310.400,330.529 310.127,330.806 309.793 C 331.083 309.459,331.915 308.898,332.655 308.547 C 333.395 308.196,334.000 307.749,334.000 307.554 C 334.000 307.359,334.320 307.200,334.712 307.200 C 335.103 307.200,335.683 306.840,336.000 306.400 C 336.317 305.960,336.857 305.600,337.200 305.600 C 337.543 305.600,338.083 305.240,338.400 304.800 C 338.717 304.360,339.127 304.000,339.311 304.000 C 339.495 304.000,340.805 303.190,342.221 302.200 C 343.638 301.210,344.977 300.400,345.198 300.400 C 346.050 300.400,344.229 298.547,296.000 250.328 C 266.125 220.458,246.400 200.446,246.400 200.003 C 246.400 199.562,261.184 184.484,283.400 162.268 C 303.750 141.918,320.400 125.147,320.400 125.000 C 320.400 124.581,196.915 1.195,196.537 1.237 C 196.351 1.257,173.835 23.673,146.500 51.050 " stroke="none" fill="#04d4b4" fill-rule="evenodd"></path><path id="path1" d="M194.789 0.678 C 194.245 1.051,193.080 2.150,192.200 3.119 C 191.320 4.088,189.197 6.258,187.482 7.941 C 185.767 9.623,183.517 11.867,182.482 12.927 C 181.447 13.986,179.197 16.236,177.482 17.927 C 175.767 19.617,173.517 21.867,172.482 22.927 C 171.447 23.986,169.197 26.236,167.482 27.927 C 165.767 29.617,163.517 31.867,162.482 32.927 C 161.447 33.986,159.197 36.236,157.482 37.927 C 155.767 39.617,153.517 41.867,152.482 42.927 C 151.447 43.986,149.197 46.236,147.482 47.927 C 145.767 49.617,143.517 51.867,142.482 52.927 C 141.447 53.986,139.197 56.236,137.482 57.927 C 135.767 59.617,133.517 61.867,132.482 62.927 C 131.447 63.986,129.197 66.236,127.482 67.927 C 125.767 69.617,123.517 71.867,122.482 72.927 C 121.447 73.986,119.197 76.236,117.482 77.927 C 115.767 79.617,113.517 81.865,112.482 82.921 C 110.029 85.425,105.347 90.106,102.921 92.480 C 96.323 98.936,95.600 99.876,95.600 102.005 C 95.600 103.102,95.780 104.000,96.000 104.000 C 96.220 104.000,96.400 103.170,96.400 102.156 L 96.400 100.313 146.372 50.356 C 173.856 22.880,196.516 0.400,196.727 0.400 C 197.310 0.400,321.200 124.416,321.200 125.000 C 321.200 125.280,304.438 142.270,283.951 162.756 L 246.703 200.003 296.351 249.638 C 346.056 299.329,347.836 301.200,345.400 301.200 C 345.070 301.200,344.800 301.380,344.800 301.600 C 344.800 302.157,345.665 302.077,346.500 301.443 C 347.551 300.646,347.369 299.114,346.116 298.195 C 345.519 297.758,344.394 296.711,343.616 295.868 C 342.837 295.026,340.580 292.733,338.600 290.773 C 336.620 288.813,334.483 286.690,333.850 286.055 C 333.218 285.420,330.990 283.190,328.900 281.100 C 326.810 279.010,324.560 276.760,323.900 276.100 C 323.240 275.440,320.990 273.190,318.900 271.100 C 316.810 269.010,314.560 266.760,313.900 266.100 C 313.240 265.440,310.990 263.190,308.900 261.100 C 306.810 259.010,304.560 256.760,303.900 256.100 C 303.240 255.440,301.013 253.212,298.950 251.150 C 296.887 249.087,294.660 246.860,294.000 246.200 C 293.340 245.540,291.090 243.290,289.000 241.200 C 286.910 239.110,284.637 236.837,283.950 236.150 C 283.263 235.462,280.990 233.190,278.900 231.100 C 276.810 229.010,274.560 226.760,273.900 226.100 C 273.240 225.440,270.990 223.190,268.900 221.100 C 266.810 219.010,264.580 216.783,263.945 216.150 C 263.310 215.518,261.187 213.380,259.227 211.400 C 257.267 209.420,254.974 207.135,254.132 206.323 C 253.289 205.511,251.567 203.756,250.306 202.423 L 248.011 200.000 250.306 197.577 C 251.567 196.244,253.289 194.489,254.132 193.677 C 254.974 192.865,257.267 190.580,259.227 188.600 C 261.187 186.620,263.310 184.482,263.945 183.850 C 264.580 183.217,266.810 180.990,268.900 178.900 C 270.990 176.810,273.240 174.560,273.900 173.900 C 274.560 173.240,276.810 170.990,278.900 168.900 C 280.990 166.810,283.240 164.560,283.900 163.900 C 284.560 163.240,286.810 160.990,288.900 158.900 C 290.990 156.810,293.240 154.560,293.900 153.900 C 294.560 153.240,296.810 150.990,298.900 148.900 C 300.990 146.810,303.240 144.560,303.900 143.900 C 304.560 143.240,306.810 140.990,308.900 138.900 C 310.990 136.810,313.218 134.578,313.850 133.939 C 314.483 133.301,316.575 131.265,318.500 129.414 C 321.156 126.861,322.000 125.796,322.000 125.000 C 322.000 124.204,321.156 123.139,318.500 120.586 C 316.575 118.735,314.505 116.721,313.900 116.111 C 313.295 115.500,311.090 113.290,309.000 111.200 C 306.910 109.110,304.660 106.860,304.000 106.200 C 303.340 105.540,301.090 103.290,299.000 101.200 C 296.910 99.110,294.637 96.837,293.950 96.150 C 293.263 95.462,290.990 93.190,288.900 91.100 C 286.810 89.010,284.560 86.760,283.900 86.100 C 282.288 84.488,280.650 82.850,273.900 76.100 C 273.240 75.440,270.990 73.190,268.900 71.100 C 266.810 69.010,264.560 66.760,263.900 66.100 C 263.240 65.440,260.990 63.190,258.900 61.100 C 256.810 59.010,254.560 56.760,253.900 56.100 C 253.240 55.440,250.990 53.190,248.900 51.100 C 246.810 49.010,244.582 46.782,243.950 46.150 C 243.318 45.518,241.045 43.245,238.900 41.100 C 236.755 38.955,234.460 36.660,233.800 36.000 C 233.140 35.340,230.935 33.135,228.900 31.100 C 226.865 29.065,224.660 26.860,224.000 26.200 C 223.340 25.540,221.045 23.245,218.900 21.100 C 216.755 18.955,214.503 16.705,213.895 16.100 C 213.288 15.495,211.187 13.380,209.227 11.400 C 207.267 9.420,204.974 7.135,204.132 6.323 C 203.289 5.511,201.567 3.756,200.306 2.423 C 197.802 -0.221,196.637 -0.589,194.789 0.678 M94.643 106.233 C 94.123 107.588,94.367 109.988,95.000 109.745 C 95.420 109.583,95.600 108.928,95.600 107.557 C 95.600 105.639,95.124 104.980,94.643 106.233 M93.867 111.467 C 93.291 112.042,93.578 115.600,94.200 115.600 C 94.661 115.600,94.800 115.089,94.800 113.400 C 94.800 111.362,94.530 110.803,93.867 111.467 M92.800 119.167 C 92.800 120.739,92.941 121.200,93.422 121.200 C 93.913 121.200,94.018 120.807,93.922 119.331 C 93.748 116.663,92.800 116.524,92.800 119.167 M92.278 123.055 C 92.125 123.208,92.000 124.218,92.000 125.300 C 92.000 127.650,92.927 127.795,93.124 125.476 C 93.252 123.963,92.765 122.569,92.278 123.055 M91.200 131.000 C 91.200 133.125,91.656 133.873,92.157 132.567 C 92.677 131.211,92.293 128.800,91.557 128.800 C 91.361 128.800,91.200 129.790,91.200 131.000 M90.400 136.800 C 90.400 138.906,91.010 139.496,91.436 137.800 C 91.734 136.610,91.346 134.800,90.792 134.800 C 90.577 134.800,90.400 135.700,90.400 136.800 M89.600 142.600 C 89.600 144.861,90.126 145.545,90.554 143.839 C 90.844 142.687,90.442 140.400,89.950 140.400 C 89.758 140.400,89.600 141.390,89.600 142.600 M88.800 148.400 C 88.800 150.360,89.322 151.105,89.696 149.678 C 89.959 148.672,89.584 146.400,89.155 146.400 C 88.960 146.400,88.800 147.300,88.800 148.400 M88.000 154.200 C 88.000 155.410,88.180 156.400,88.400 156.400 C 88.620 156.400,88.800 155.410,88.800 154.200 C 88.800 152.990,88.620 152.000,88.400 152.000 C 88.180 152.000,88.000 152.990,88.000 154.200 M87.200 160.000 C 87.200 161.100,87.380 162.000,87.600 162.000 C 87.820 162.000,88.000 161.100,88.000 160.000 C 88.000 158.900,87.820 158.000,87.600 158.000 C 87.380 158.000,87.200 158.900,87.200 160.000 M86.667 163.867 C 86.240 164.294,86.359 168.000,86.800 168.000 C 87.020 168.000,87.200 167.010,87.200 165.800 C 87.200 163.575,87.148 163.386,86.667 163.867 M85.600 171.800 C 85.600 173.010,85.780 174.000,86.000 174.000 C 86.220 174.000,86.400 173.010,86.400 171.800 C 86.400 170.590,86.220 169.600,86.000 169.600 C 85.780 169.600,85.600 170.590,85.600 171.800 M84.643 176.233 C 84.123 177.588,84.367 179.988,85.000 179.745 C 85.420 179.583,85.600 178.928,85.600 177.557 C 85.600 175.639,85.124 174.980,84.643 176.233 M83.867 181.467 C 83.291 182.042,83.578 185.600,84.200 185.600 C 84.661 185.600,84.800 185.089,84.800 183.400 C 84.800 181.362,84.530 180.803,83.867 181.467 M82.800 189.167 C 82.800 190.739,82.941 191.200,83.422 191.200 C 83.913 191.200,84.018 190.807,83.922 189.331 C 83.748 186.663,82.800 186.524,82.800 189.167 M82.278 193.055 C 82.125 193.208,82.000 194.218,82.000 195.300 C 82.000 197.650,82.927 197.795,83.124 195.476 C 83.252 193.963,82.765 192.569,82.278 193.055 M81.200 201.000 C 81.200 203.125,81.656 203.873,82.157 202.567 C 82.677 201.211,82.293 198.800,81.557 198.800 C 81.361 198.800,81.200 199.790,81.200 201.000 M80.400 206.800 C 80.400 208.906,81.010 209.496,81.436 207.800 C 81.734 206.610,81.346 204.800,80.792 204.800 C 80.577 204.800,80.400 205.700,80.400 206.800 M79.600 212.600 C 79.600 214.861,80.126 215.545,80.554 213.839 C 80.844 212.687,80.442 210.400,79.950 210.400 C 79.758 210.400,79.600 211.390,79.600 212.600 M78.800 218.400 C 78.800 220.360,79.322 221.105,79.696 219.678 C 79.959 218.672,79.584 216.400,79.155 216.400 C 78.960 216.400,78.800 217.300,78.800 218.400 M78.000 224.200 C 78.000 225.410,78.180 226.400,78.400 226.400 C 78.620 226.400,78.800 225.410,78.800 224.200 C 78.800 222.990,78.620 222.000,78.400 222.000 C 78.180 222.000,78.000 222.990,78.000 224.200 M77.200 230.000 C 77.200 231.100,77.380 232.000,77.600 232.000 C 77.820 232.000,78.000 231.100,78.000 230.000 C 78.000 228.900,77.820 228.000,77.600 228.000 C 77.380 228.000,77.200 228.900,77.200 230.000 M76.667 233.867 C 76.240 234.294,76.359 238.000,76.800 238.000 C 77.020 238.000,77.200 237.010,77.200 235.800 C 77.200 233.575,77.148 233.386,76.667 233.867 M75.600 241.800 C 75.600 243.010,75.780 244.000,76.000 244.000 C 76.220 244.000,76.400 243.010,76.400 241.800 C 76.400 240.590,76.220 239.600,76.000 239.600 C 75.780 239.600,75.600 240.590,75.600 241.800 M74.643 246.233 C 74.123 247.588,74.367 249.988,75.000 249.745 C 75.420 249.583,75.600 248.928,75.600 247.557 C 75.600 245.639,75.124 244.980,74.643 246.233 M73.867 251.467 C 73.291 252.042,73.578 255.600,74.200 255.600 C 74.661 255.600,74.800 255.089,74.800 253.400 C 74.800 251.362,74.530 250.803,73.867 251.467 M72.800 259.167 C 72.800 260.739,72.941 261.200,73.422 261.200 C 73.913 261.200,74.018 260.807,73.922 259.331 C 73.748 256.663,72.800 256.524,72.800 259.167 M72.278 263.055 C 72.125 263.208,72.000 264.218,72.000 265.300 C 72.000 267.650,72.927 267.795,73.124 265.476 C 73.252 263.963,72.765 262.569,72.278 263.055 M71.200 271.000 C 71.200 273.125,71.656 273.873,72.157 272.567 C 72.677 271.211,72.293 268.800,71.557 268.800 C 71.361 268.800,71.200 269.790,71.200 271.000 M71.214 275.700 C 71.222 275.975,72.052 276.920,73.059 277.800 C 74.065 278.680,76.263 280.803,77.944 282.518 C 79.625 284.233,81.867 286.483,82.927 287.518 C 83.986 288.553,86.236 290.803,87.927 292.518 C 89.617 294.233,91.867 296.483,92.927 297.518 C 93.986 298.553,96.236 300.803,97.927 302.518 C 99.617 304.233,101.867 306.483,102.927 307.518 C 103.986 308.553,106.236 310.803,107.927 312.518 C 109.617 314.233,111.867 316.483,112.927 317.518 C 113.986 318.553,116.236 320.803,117.927 322.518 C 119.617 324.233,121.867 326.483,122.927 327.518 C 123.986 328.553,126.236 330.803,127.927 332.518 C 129.617 334.233,131.867 336.483,132.927 337.518 C 133.986 338.553,136.236 340.803,137.927 342.518 C 139.617 344.233,141.867 346.483,142.927 347.518 C 143.986 348.553,146.236 350.803,147.927 352.518 C 149.617 354.233,151.867 356.483,152.927 357.518 C 153.986 358.553,156.236 360.803,157.927 362.518 C 159.617 364.233,161.865 366.483,162.921 367.518 C 165.385 369.932,170.068 374.615,172.482 377.079 C 173.517 378.135,175.767 380.383,177.482 382.073 C 179.197 383.764,181.447 386.014,182.482 387.073 C 183.517 388.133,185.767 390.377,187.482 392.059 C 189.197 393.742,191.320 395.912,192.200 396.881 C 195.006 399.971,197.790 400.953,199.343 399.400 C 199.673 399.070,200.186 398.800,200.483 398.800 C 200.780 398.800,201.283 398.440,201.600 398.000 C 201.917 397.560,202.415 397.200,202.706 397.200 C 202.998 397.200,203.686 396.750,204.236 396.200 C 204.786 395.650,205.458 395.200,205.730 395.200 C 206.001 395.200,206.483 394.840,206.800 394.400 C 207.117 393.960,207.657 393.600,208.000 393.600 C 208.343 393.600,208.883 393.240,209.200 392.800 C 209.517 392.360,210.057 392.000,210.400 392.000 C 210.743 392.000,211.283 391.640,211.600 391.200 C 211.917 390.760,212.457 390.400,212.800 390.400 C 213.143 390.400,213.683 390.040,214.000 389.600 C 214.317 389.160,214.863 388.800,215.213 388.800 C 215.563 388.800,216.236 388.440,216.708 388.000 C 217.180 387.560,217.709 387.200,217.883 387.200 C 218.203 387.199,219.853 385.925,221.486 384.418 C 221.973 383.968,222.608 383.600,222.897 383.600 C 223.187 383.600,223.683 383.240,224.000 382.800 C 224.317 382.360,224.863 382.000,225.213 382.000 C 225.563 382.000,226.236 381.640,226.708 381.200 C 227.180 380.760,227.804 380.400,228.095 380.400 C 228.386 380.400,228.883 380.040,229.200 379.600 C 229.517 379.160,230.057 378.800,230.400 378.800 C 230.743 378.800,231.283 378.440,231.600 378.000 C 231.917 377.560,232.415 377.200,232.706 377.200 C 232.998 377.200,233.686 376.750,234.236 376.200 C 234.786 375.650,235.458 375.200,235.730 375.200 C 236.001 375.200,236.483 374.840,236.800 374.400 C 237.117 373.960,237.657 373.600,238.000 373.600 C 238.343 373.600,238.883 373.240,239.200 372.800 C 239.517 372.360,240.057 372.000,240.400 372.000 C 240.743 372.000,241.283 371.640,241.600 371.200 C 241.917 370.760,242.457 370.400,242.800 370.400 C 243.143 370.400,243.683 370.040,244.000 369.600 C 244.317 369.160,244.863 368.800,245.213 368.800 C 245.563 368.800,246.236 368.440,246.708 368.000 C 247.180 367.560,247.709 367.200,247.883 367.200 C 248.057 367.199,248.678 366.794,249.263 366.300 C 249.847 365.805,250.702 365.135,251.163 364.812 C 252.145 364.122,252.247 363.600,251.400 363.600 C 251.070 363.600,250.800 363.780,250.800 364.000 C 250.800 364.220,250.530 364.400,250.200 364.400 C 249.870 364.400,249.600 364.580,249.600 364.800 C 249.600 365.020,249.330 365.200,249.000 365.200 C 248.670 365.200,248.400 365.380,248.400 365.600 C 248.400 365.820,248.130 366.000,247.800 366.000 C 247.470 366.000,247.200 366.180,247.200 366.400 C 247.200 366.620,246.930 366.800,246.600 366.800 C 246.270 366.800,246.000 366.958,246.000 367.151 C 246.000 367.345,245.460 367.727,244.800 368.000 C 244.140 368.273,243.600 368.653,243.600 368.843 C 243.600 369.034,242.970 369.452,242.200 369.774 C 241.430 370.096,240.800 370.548,240.800 370.780 C 240.800 371.011,240.530 371.200,240.200 371.200 C 239.870 371.200,239.600 371.380,239.600 371.600 C 239.600 371.820,239.330 372.000,239.000 372.000 C 238.670 372.000,238.400 372.180,238.400 372.400 C 238.400 372.620,238.130 372.800,237.800 372.800 C 237.470 372.800,237.200 372.980,237.200 373.200 C 237.200 373.420,236.930 373.600,236.600 373.600 C 236.270 373.600,236.000 373.780,236.000 374.000 C 236.000 374.220,235.680 374.400,235.288 374.400 C 234.897 374.400,234.317 374.760,234.000 375.200 C 233.683 375.640,233.279 376.000,233.102 376.000 C 232.759 376.000,228.737 378.691,228.400 379.146 C 228.290 379.295,227.705 379.634,227.100 379.900 C 226.495 380.165,226.000 380.567,226.000 380.791 C 226.000 381.016,225.680 381.200,225.288 381.200 C 224.897 381.200,224.317 381.560,224.000 382.000 C 223.683 382.440,223.103 382.800,222.712 382.800 C 222.320 382.800,222.000 382.980,222.000 383.200 C 222.000 383.420,221.730 383.600,221.400 383.600 C 221.070 383.600,220.800 383.780,220.800 384.000 C 220.800 384.220,220.530 384.400,220.200 384.400 C 219.870 384.400,219.600 384.580,219.600 384.800 C 219.600 385.020,219.330 385.200,219.000 385.200 C 218.670 385.200,218.400 385.380,218.400 385.600 C 218.400 385.820,218.130 386.000,217.800 386.000 C 217.470 386.000,217.200 386.180,217.200 386.400 C 217.200 386.620,216.930 386.800,216.600 386.800 C 216.270 386.800,216.000 386.958,216.000 387.151 C 216.000 387.345,215.460 387.727,214.800 388.000 C 214.140 388.273,213.600 388.653,213.600 388.843 C 213.600 389.034,212.970 389.452,212.200 389.774 C 211.430 390.096,210.800 390.548,210.800 390.780 C 210.800 391.011,210.530 391.200,210.200 391.200 C 209.870 391.200,209.600 391.380,209.600 391.600 C 209.600 391.820,209.330 392.000,209.000 392.000 C 208.670 392.000,208.400 392.180,208.400 392.400 C 208.400 392.620,208.130 392.800,207.800 392.800 C 207.470 392.800,207.200 392.980,207.200 393.200 C 207.200 393.420,206.930 393.600,206.600 393.600 C 206.270 393.600,206.000 393.780,206.000 394.000 C 206.000 394.220,205.680 394.400,205.288 394.400 C 204.897 394.400,204.317 394.760,204.000 395.200 C 203.683 395.640,203.285 396.000,203.116 396.000 C 202.621 396.000,198.400 398.940,198.400 399.285 C 198.400 401.579,196.045 399.311,134.131 337.400 C 74.836 278.107,71.181 274.523,71.214 275.700 M343.600 302.400 C 343.600 302.620,343.330 302.800,343.000 302.800 C 342.670 302.800,342.400 302.980,342.400 303.200 C 342.400 303.782,343.168 303.690,343.829 303.029 C 344.499 302.358,344.558 302.000,344.000 302.000 C 343.780 302.000,343.600 302.180,343.600 302.400 M340.500 304.144 C 340.005 304.389,339.600 304.727,339.600 304.895 C 339.600 305.063,339.330 305.200,339.000 305.200 C 338.670 305.200,338.400 305.350,338.400 305.532 C 338.400 305.715,337.908 306.120,337.306 306.432 C 335.946 307.138,334.800 308.078,334.800 308.489 C 334.800 309.071,335.846 308.803,336.708 308.000 C 337.180 307.560,337.709 307.200,337.883 307.200 C 338.057 307.199,338.678 306.794,339.263 306.300 C 339.847 305.805,340.702 305.135,341.163 304.812 C 342.655 303.763,342.198 303.303,340.500 304.144 M333.100 309.233 C 331.981 310.459,332.651 311.007,333.829 309.829 C 334.436 309.221,334.600 308.378,334.100 308.433 C 333.935 308.452,333.485 308.812,333.100 309.233 M330.800 310.800 C 330.800 311.020,330.530 311.200,330.200 311.200 C 329.870 311.200,329.600 311.380,329.600 311.600 C 329.600 311.820,329.330 312.000,329.000 312.000 C 328.670 312.000,328.400 312.180,328.400 312.400 C 328.400 312.620,328.130 312.800,327.800 312.800 C 327.470 312.800,327.200 312.980,327.200 313.200 C 327.200 313.420,326.930 313.600,326.600 313.600 C 326.270 313.600,326.000 313.780,326.000 314.000 C 326.000 314.220,325.730 314.400,325.400 314.400 C 325.070 314.400,324.800 314.580,324.800 314.800 C 324.800 315.020,324.530 315.200,324.200 315.200 C 323.870 315.200,323.600 315.380,323.600 315.600 C 323.600 315.820,323.330 316.000,323.000 316.000 C 322.670 316.000,322.400 316.180,322.400 316.400 C 322.400 316.620,322.236 316.800,322.036 316.800 C 321.483 316.800,318.400 318.896,318.400 319.271 C 318.400 319.452,318.130 319.600,317.800 319.600 C 317.470 319.600,317.200 319.780,317.200 320.000 C 317.200 320.707,318.604 320.426,319.200 319.600 C 319.517 319.160,320.057 318.800,320.400 318.800 C 320.743 318.800,321.283 318.440,321.600 318.000 C 321.917 317.560,322.415 317.200,322.706 317.200 C 322.998 317.200,323.686 316.750,324.236 316.200 C 324.786 315.650,325.458 315.200,325.730 315.200 C 326.001 315.200,326.483 314.840,326.800 314.400 C 327.117 313.960,327.657 313.600,328.000 313.600 C 328.343 313.600,328.883 313.240,329.200 312.800 C 329.517 312.360,330.020 312.000,330.317 312.000 C 330.854 312.000,332.000 311.066,332.000 310.629 C 332.000 310.503,331.730 310.400,331.400 310.400 C 331.070 310.400,330.800 310.580,330.800 310.800 M316.170 320.533 C 316.030 320.900,315.664 321.200,315.357 321.200 C 315.051 321.200,314.800 321.380,314.800 321.600 C 314.800 322.175,315.674 322.070,316.579 321.386 C 317.170 320.938,317.245 320.685,316.892 320.332 C 316.538 319.978,316.365 320.026,316.170 320.533 M313.600 322.372 C 313.600 322.577,313.195 322.815,312.700 322.902 C 311.920 323.038,311.892 323.100,312.490 323.368 C 312.926 323.564,313.403 323.454,313.790 323.067 C 314.496 322.361,314.567 322.000,314.000 322.000 C 313.780 322.000,313.600 322.167,313.600 322.372 M310.500 324.144 C 310.005 324.389,309.600 324.727,309.600 324.895 C 309.600 325.063,309.330 325.200,309.000 325.200 C 308.670 325.200,308.400 325.350,308.400 325.532 C 308.400 325.715,307.908 326.120,307.306 326.432 C 305.946 327.138,304.800 328.078,304.800 328.489 C 304.800 329.071,305.846 328.803,306.708 328.000 C 307.180 327.560,307.709 327.200,307.883 327.200 C 308.057 327.199,308.678 326.794,309.263 326.300 C 309.847 325.805,310.702 325.135,311.163 324.812 C 312.655 323.763,312.198 323.303,310.500 324.144 M303.600 328.813 C 303.600 329.040,303.195 329.382,302.700 329.573 C 301.909 329.878,301.884 329.954,302.490 330.199 C 302.902 330.365,303.425 330.232,303.790 329.867 C 304.484 329.173,304.595 328.400,304.000 328.400 C 303.780 328.400,303.600 328.586,303.600 328.813 M300.970 330.533 C 300.830 330.900,300.464 331.200,300.157 331.200 C 299.851 331.200,299.600 331.380,299.600 331.600 C 299.600 331.820,299.330 332.000,299.000 332.000 C 298.670 332.000,298.400 332.180,298.400 332.400 C 298.400 332.620,298.130 332.800,297.800 332.800 C 297.470 332.800,297.200 332.980,297.200 333.200 C 297.200 333.420,296.930 333.600,296.600 333.600 C 296.270 333.600,296.000 333.780,296.000 334.000 C 296.000 334.220,295.730 334.400,295.400 334.400 C 295.070 334.400,294.800 334.580,294.800 334.800 C 294.800 335.020,294.530 335.200,294.200 335.200 C 293.870 335.200,293.600 335.380,293.600 335.600 C 293.600 335.820,293.330 336.000,293.000 336.000 C 292.670 336.000,292.400 336.180,292.400 336.400 C 292.400 336.620,292.236 336.800,292.036 336.800 C 291.483 336.800,288.400 338.896,288.400 339.271 C 288.400 339.452,288.130 339.600,287.800 339.600 C 287.470 339.600,287.200 339.780,287.200 340.000 C 287.200 340.707,288.604 340.426,289.200 339.600 C 289.517 339.160,290.057 338.800,290.400 338.800 C 290.743 338.800,291.283 338.440,291.600 338.000 C 291.917 337.560,292.415 337.200,292.706 337.200 C 292.998 337.200,293.686 336.750,294.236 336.200 C 294.786 335.650,295.458 335.200,295.730 335.200 C 296.001 335.200,296.483 334.840,296.800 334.400 C 297.117 333.960,297.657 333.600,298.000 333.600 C 298.343 333.600,298.883 333.240,299.200 332.800 C 299.517 332.360,300.020 332.000,300.317 332.000 C 301.230 332.000,302.175 330.815,301.667 330.307 C 301.346 329.986,301.157 330.047,300.970 330.533 M286.170 340.533 C 286.030 340.900,285.664 341.200,285.357 341.200 C 285.051 341.200,284.800 341.380,284.800 341.600 C 284.800 342.175,285.674 342.070,286.579 341.386 C 287.170 340.938,287.245 340.685,286.892 340.332 C 286.538 339.978,286.365 340.026,286.170 340.533 M283.600 342.372 C 283.600 342.577,283.195 342.815,282.700 342.902 C 281.920 343.038,281.892 343.100,282.490 343.368 C 282.926 343.564,283.403 343.454,283.790 343.067 C 284.496 342.361,284.567 342.000,284.000 342.000 C 283.780 342.000,283.600 342.167,283.600 342.372 M280.800 344.000 C 280.800 344.220,280.530 344.400,280.200 344.400 C 279.870 344.400,279.600 344.580,279.600 344.800 C 279.600 345.020,279.330 345.200,279.000 345.200 C 278.670 345.200,278.400 345.350,278.400 345.532 C 278.400 345.715,277.908 346.120,277.306 346.432 C 275.946 347.138,274.800 348.078,274.800 348.489 C 274.800 349.071,275.846 348.803,276.708 348.000 C 277.180 347.560,277.709 347.200,277.883 347.200 C 278.057 347.199,278.678 346.794,279.263 346.300 C 279.847 345.805,280.702 345.135,281.163 344.812 C 282.145 344.122,282.247 343.600,281.400 343.600 C 281.070 343.600,280.800 343.780,280.800 344.000 M273.600 348.813 C 273.600 349.040,273.195 349.382,272.700 349.573 C 271.909 349.878,271.884 349.954,272.490 350.199 C 272.902 350.365,273.425 350.232,273.790 349.867 C 274.484 349.173,274.595 348.400,274.000 348.400 C 273.780 348.400,273.600 348.586,273.600 348.813 M270.970 350.533 C 270.830 350.900,270.464 351.200,270.157 351.200 C 269.851 351.200,269.600 351.380,269.600 351.600 C 269.600 351.820,269.330 352.000,269.000 352.000 C 268.670 352.000,268.400 352.180,268.400 352.400 C 268.400 352.620,268.130 352.800,267.800 352.800 C 267.470 352.800,267.200 352.980,267.200 353.200 C 267.200 353.420,266.930 353.600,266.600 353.600 C 266.270 353.600,266.000 353.780,266.000 354.000 C 266.000 354.220,265.730 354.400,265.400 354.400 C 265.070 354.400,264.800 354.580,264.800 354.800 C 264.800 355.020,264.530 355.200,264.200 355.200 C 263.870 355.200,263.600 355.380,263.600 355.600 C 263.600 355.820,263.330 356.000,263.000 356.000 C 262.670 356.000,262.400 356.180,262.400 356.400 C 262.400 356.620,262.236 356.800,262.036 356.800 C 261.483 356.800,258.400 358.896,258.400 359.271 C 258.400 359.452,258.130 359.600,257.800 359.600 C 257.470 359.600,257.200 359.780,257.200 360.000 C 257.200 360.707,258.604 360.426,259.200 359.600 C 259.517 359.160,260.057 358.800,260.400 358.800 C 260.743 358.800,261.283 358.440,261.600 358.000 C 261.917 357.560,262.415 357.200,262.706 357.200 C 262.998 357.200,263.686 356.750,264.236 356.200 C 264.786 355.650,265.458 355.200,265.730 355.200 C 266.001 355.200,266.483 354.840,266.800 354.400 C 267.117 353.960,267.657 353.600,268.000 353.600 C 268.343 353.600,268.883 353.240,269.200 352.800 C 269.517 352.360,270.020 352.000,270.317 352.000 C 271.230 352.000,272.175 350.815,271.667 350.307 C 271.346 349.986,271.157 350.047,270.970 350.533 M256.170 360.533 C 256.030 360.900,255.664 361.200,255.357 361.200 C 255.051 361.200,254.800 361.380,254.800 361.600 C 254.800 362.175,255.674 362.070,256.579 361.386 C 257.170 360.938,257.245 360.685,256.892 360.332 C 256.538 359.978,256.365 360.026,256.170 360.533 M253.600 362.372 C 253.600 362.577,253.195 362.815,252.700 362.902 C 251.920 363.038,251.892 363.100,252.490 363.368 C 252.926 363.564,253.403 363.454,253.790 363.067 C 254.496 362.361,254.567 362.000,254.000 362.000 C 253.780 362.000,253.600 362.167,253.600 362.372 " stroke="none" fill="#53e3cc" fill-rule="evenodd"></path><path id="path2" d="M89.309 155.200 C 89.309 156.190,89.387 156.595,89.482 156.100 C 89.578 155.605,89.578 154.795,89.482 154.300 C 89.387 153.805,89.309 154.210,89.309 155.200 M79.309 225.200 C 79.309 226.190,79.387 226.595,79.482 226.100 C 79.578 225.605,79.578 224.795,79.482 224.300 C 79.387 223.805,79.309 224.210,79.309 225.200 " stroke="none" fill="#0cd4bc" fill-rule="evenodd"></path><path id="path3" d="M258.697 62.498 C 292.854 96.652,320.800 124.777,320.800 124.997 C 320.800 125.218,304.015 142.184,283.501 162.699 L 246.201 200.000 295.901 249.701 C 341.415 295.216,346.789 300.800,345.075 300.800 C 344.787 300.800,344.202 301.115,343.775 301.500 C 343.349 301.885,342.515 302.450,341.921 302.756 C 340.498 303.490,340.048 304.487,341.430 303.847 C 341.960 303.601,342.395 303.265,342.397 303.100 C 342.399 302.935,342.670 302.800,343.000 302.800 C 343.330 302.800,343.600 302.620,343.600 302.400 C 343.600 302.180,343.870 302.000,344.200 302.000 C 344.530 302.000,344.800 301.820,344.800 301.600 C 344.800 301.380,345.070 301.200,345.400 301.200 C 347.836 301.200,346.056 299.329,296.351 249.638 L 246.703 200.003 283.951 162.756 C 304.438 142.270,321.200 125.280,321.200 125.000 C 321.200 124.498,197.353 0.400,196.852 0.400 C 196.710 0.400,224.540 28.344,258.697 62.498 M193.286 3.454 C 192.783 3.974,192.530 4.400,192.724 4.400 C 193.148 4.400,194.597 2.855,194.364 2.651 C 194.274 2.572,193.789 2.933,193.286 3.454 M188.209 8.391 C 187.131 9.486,186.327 10.448,186.424 10.529 C 186.521 10.611,187.549 9.715,188.708 8.538 C 189.867 7.362,190.670 6.400,190.493 6.400 C 190.315 6.400,189.288 7.296,188.209 8.391 M183.286 13.454 C 182.783 13.974,182.530 14.400,182.724 14.400 C 183.148 14.400,184.597 12.855,184.364 12.651 C 184.274 12.572,183.789 12.933,183.286 13.454 M178.209 18.391 C 177.131 19.486,176.327 20.448,176.424 20.529 C 176.521 20.611,177.549 19.715,178.708 18.538 C 179.867 17.362,180.670 16.400,180.493 16.400 C 180.315 16.400,179.288 17.296,178.209 18.391 M173.286 23.454 C 172.783 23.974,172.530 24.400,172.724 24.400 C 173.148 24.400,174.597 22.855,174.364 22.651 C 174.274 22.572,173.789 22.933,173.286 23.454 M168.209 28.391 C 167.131 29.486,166.327 30.448,166.424 30.529 C 166.521 30.611,167.549 29.715,168.708 28.538 C 169.867 27.362,170.670 26.400,170.493 26.400 C 170.315 26.400,169.288 27.296,168.209 28.391 M163.286 33.454 C 162.783 33.974,162.530 34.400,162.724 34.400 C 163.148 34.400,164.597 32.855,164.364 32.651 C 164.274 32.572,163.789 32.933,163.286 33.454 M158.209 38.391 C 157.131 39.486,156.327 40.448,156.424 40.529 C 156.521 40.611,157.549 39.715,158.708 38.538 C 159.867 37.362,160.670 36.400,160.493 36.400 C 160.315 36.400,159.288 37.296,158.209 38.391 M153.286 43.454 C 152.783 43.974,152.530 44.400,152.724 44.400 C 153.148 44.400,154.597 42.855,154.364 42.651 C 154.274 42.572,153.789 42.933,153.286 43.454 M148.209 48.391 C 147.131 49.486,146.327 50.448,146.424 50.529 C 146.521 50.611,147.549 49.715,148.708 48.538 C 149.867 47.362,150.670 46.400,150.493 46.400 C 150.315 46.400,149.288 47.296,148.209 48.391 M143.286 53.454 C 142.783 53.974,142.530 54.400,142.724 54.400 C 143.148 54.400,144.597 52.855,144.364 52.651 C 144.274 52.572,143.789 52.933,143.286 53.454 M138.209 58.391 C 137.131 59.486,136.327 60.448,136.424 60.529 C 136.521 60.611,137.549 59.715,138.708 58.538 C 139.867 57.362,140.670 56.400,140.493 56.400 C 140.315 56.400,139.288 57.296,138.209 58.391 M133.286 63.454 C 132.783 63.974,132.530 64.400,132.724 64.400 C 133.148 64.400,134.597 62.855,134.364 62.651 C 134.274 62.572,133.789 62.933,133.286 63.454 M128.209 68.391 C 127.131 69.486,126.327 70.448,126.424 70.529 C 126.521 70.611,127.549 69.715,128.708 68.538 C 129.867 67.362,130.670 66.400,130.493 66.400 C 130.315 66.400,129.288 67.296,128.209 68.391 M123.286 73.454 C 122.783 73.974,122.530 74.400,122.724 74.400 C 123.148 74.400,124.597 72.855,124.364 72.651 C 124.274 72.572,123.789 72.933,123.286 73.454 M118.209 78.391 C 117.131 79.486,116.327 80.448,116.424 80.529 C 116.521 80.611,117.549 79.715,118.708 78.538 C 119.867 77.362,120.670 76.400,120.493 76.400 C 120.315 76.400,119.288 77.296,118.209 78.391 M113.286 83.454 C 112.783 83.974,112.530 84.400,112.724 84.400 C 113.148 84.400,114.597 82.855,114.364 82.651 C 114.274 82.572,113.789 82.933,113.286 83.454 M108.209 88.391 C 107.131 89.486,106.327 90.448,106.424 90.529 C 106.521 90.611,107.549 89.715,108.708 88.538 C 109.867 87.362,110.670 86.400,110.493 86.400 C 110.315 86.400,109.288 87.296,108.209 88.391 M103.286 93.454 C 102.783 93.974,102.530 94.400,102.724 94.400 C 103.148 94.400,104.597 92.855,104.364 92.651 C 104.274 92.572,103.789 92.933,103.286 93.454 M98.200 98.400 C 97.117 99.500,96.346 100.400,96.488 100.400 C 96.630 100.400,97.671 99.500,98.800 98.400 C 99.929 97.300,100.700 96.400,100.512 96.400 C 100.324 96.400,99.283 97.300,98.200 98.400 M96.400 102.367 C 96.400 103.258,96.184 104.010,95.900 104.112 C 95.625 104.210,95.545 104.445,95.722 104.634 C 96.226 105.171,96.787 103.949,96.794 102.300 C 96.797 101.475,96.710 100.800,96.600 100.800 C 96.490 100.800,96.400 101.505,96.400 102.367 M95.660 108.057 C 95.624 108.940,95.364 109.605,95.000 109.745 C 94.226 110.042,94.221 110.800,94.992 110.800 C 95.699 110.800,96.129 109.342,95.891 107.748 C 95.740 106.737,95.713 106.773,95.660 108.057 M94.854 114.100 C 94.817 115.142,94.617 115.600,94.200 115.600 C 93.870 115.600,93.600 115.780,93.600 116.000 C 93.600 116.220,93.867 116.400,94.192 116.400 C 94.878 116.400,95.347 114.905,95.088 113.541 C 94.968 112.909,94.891 113.093,94.854 114.100 M94.032 119.900 C 94.010 120.775,93.804 121.200,93.400 121.200 C 93.070 121.200,92.800 121.470,92.800 121.800 C 92.800 122.130,93.062 122.400,93.382 122.400 C 93.999 122.400,94.640 120.039,94.272 119.121 C 94.157 118.835,94.049 119.185,94.032 119.900 M92.500 127.065 C 91.804 127.346,91.873 128.000,92.600 128.000 C 92.930 128.000,93.200 127.730,93.200 127.400 C 93.200 127.070,93.155 126.814,93.100 126.832 C 93.045 126.849,92.775 126.954,92.500 127.065 M91.700 132.998 C 91.043 133.744,91.069 134.000,91.800 134.000 C 92.133 134.000,92.400 133.644,92.400 133.200 C 92.400 132.262,92.359 132.250,91.700 132.998 M90.871 138.653 C 90.211 139.371,90.407 140.094,91.139 139.639 C 91.436 139.455,91.616 139.028,91.539 138.691 C 91.419 138.160,91.330 138.155,90.871 138.653 M90.400 144.200 C 90.400 144.530,90.220 144.800,90.000 144.800 C 89.780 144.800,89.600 144.980,89.600 145.200 C 89.600 145.420,89.870 145.600,90.200 145.600 C 90.573 145.600,90.800 145.222,90.800 144.600 C 90.800 144.050,90.710 143.600,90.600 143.600 C 90.490 143.600,90.400 143.870,90.400 144.200 M89.646 149.700 C 89.621 150.085,89.420 150.400,89.200 150.400 C 88.980 150.400,88.800 150.670,88.800 151.000 C 88.800 151.330,88.986 151.600,89.213 151.600 C 89.763 151.600,90.112 150.619,89.880 149.723 C 89.708 149.060,89.689 149.058,89.646 149.700 M88.800 154.600 C 88.800 155.590,88.620 156.400,88.400 156.400 C 88.180 156.400,88.000 156.580,88.000 156.800 C 88.000 157.020,88.270 157.200,88.600 157.200 C 89.061 157.200,89.200 156.689,89.200 155.000 C 89.200 153.790,89.110 152.800,89.000 152.800 C 88.890 152.800,88.800 153.610,88.800 154.600 M88.070 160.300 C 88.031 161.235,87.820 162.000,87.600 162.000 C 87.380 162.000,87.200 162.270,87.200 162.600 C 87.200 163.354,87.953 163.387,88.238 162.646 C 88.355 162.341,88.381 161.306,88.295 160.346 L 88.140 158.600 88.070 160.300 M87.270 166.267 C 87.231 167.183,86.975 168.014,86.700 168.112 C 86.425 168.210,86.338 168.438,86.507 168.619 C 87.120 169.275,87.648 168.067,87.496 166.354 L 87.340 164.600 87.270 166.267 M86.400 172.367 C 86.400 173.258,86.184 174.010,85.900 174.112 C 85.625 174.210,85.545 174.445,85.722 174.634 C 86.226 175.171,86.787 173.949,86.794 172.300 C 86.797 171.475,86.710 170.800,86.600 170.800 C 86.490 170.800,86.400 171.505,86.400 172.367 M85.660 178.057 C 85.624 178.940,85.364 179.605,85.000 179.745 C 84.226 180.042,84.221 180.800,84.992 180.800 C 85.699 180.800,86.129 179.342,85.891 177.748 C 85.740 176.737,85.713 176.773,85.660 178.057 M84.854 184.100 C 84.817 185.142,84.617 185.600,84.200 185.600 C 83.870 185.600,83.600 185.780,83.600 186.000 C 83.600 186.220,83.867 186.400,84.192 186.400 C 84.878 186.400,85.347 184.905,85.088 183.541 C 84.968 182.909,84.891 183.093,84.854 184.100 M84.032 189.900 C 84.010 190.775,83.804 191.200,83.400 191.200 C 83.070 191.200,82.800 191.470,82.800 191.800 C 82.800 192.130,83.062 192.400,83.382 192.400 C 83.999 192.400,84.640 190.039,84.272 189.121 C 84.157 188.835,84.049 189.185,84.032 189.900 M82.392 197.205 C 81.934 197.488,81.912 197.672,82.290 198.050 C 82.668 198.428,82.831 198.385,83.036 197.850 C 83.371 196.979,83.137 196.745,82.392 197.205 M81.700 202.998 C 81.043 203.744,81.069 204.000,81.800 204.000 C 82.133 204.000,82.400 203.644,82.400 203.200 C 82.400 202.262,82.359 202.250,81.700 202.998 M80.900 208.623 C 80.625 208.922,80.400 209.354,80.400 209.583 C 80.400 210.212,81.193 210.083,81.450 209.413 C 81.798 208.506,81.457 208.016,80.900 208.623 M80.400 214.200 C 80.400 214.530,80.220 214.800,80.000 214.800 C 79.780 214.800,79.600 214.980,79.600 215.200 C 79.600 215.420,79.870 215.600,80.200 215.600 C 80.573 215.600,80.800 215.222,80.800 214.600 C 80.800 214.050,80.710 213.600,80.600 213.600 C 80.490 213.600,80.400 213.870,80.400 214.200 M79.646 219.700 C 79.621 220.085,79.420 220.400,79.200 220.400 C 78.980 220.400,78.800 220.670,78.800 221.000 C 78.800 221.330,78.986 221.600,79.213 221.600 C 79.763 221.600,80.112 220.619,79.880 219.723 C 79.708 219.060,79.689 219.058,79.646 219.700 M78.800 224.600 C 78.800 225.590,78.620 226.400,78.400 226.400 C 78.180 226.400,78.000 226.580,78.000 226.800 C 78.000 227.020,78.270 227.200,78.600 227.200 C 79.061 227.200,79.200 226.689,79.200 225.000 C 79.200 223.790,79.110 222.800,79.000 222.800 C 78.890 222.800,78.800 223.610,78.800 224.600 M78.070 230.300 C 78.031 231.235,77.820 232.000,77.600 232.000 C 77.380 232.000,77.200 232.270,77.200 232.600 C 77.200 233.354,77.953 233.387,78.238 232.646 C 78.355 232.341,78.381 231.306,78.295 230.346 L 78.140 228.600 78.070 230.300 M77.264 236.300 C 77.229 237.235,77.020 238.000,76.800 238.000 C 76.580 238.000,76.400 238.270,76.400 238.600 C 76.400 239.553,77.161 239.296,77.422 238.255 C 77.552 237.736,77.584 236.701,77.493 235.955 C 77.342 234.712,77.323 234.741,77.264 236.300 M76.470 242.267 C 76.431 243.183,76.175 244.014,75.900 244.112 C 75.625 244.210,75.538 244.438,75.707 244.619 C 76.320 245.275,76.848 244.067,76.696 242.354 L 76.540 240.600 76.470 242.267 M75.660 248.057 C 75.624 248.940,75.364 249.605,75.000 249.745 C 74.226 250.042,74.221 250.800,74.992 250.800 C 75.699 250.800,76.129 249.342,75.891 247.748 C 75.740 246.737,75.713 246.773,75.660 248.057 M74.854 254.100 C 74.817 255.142,74.617 255.600,74.200 255.600 C 73.870 255.600,73.600 255.780,73.600 256.000 C 73.600 256.220,73.867 256.400,74.192 256.400 C 74.878 256.400,75.347 254.905,75.088 253.541 C 74.968 252.909,74.891 253.093,74.854 254.100 M74.032 259.900 C 74.010 260.775,73.804 261.200,73.400 261.200 C 73.070 261.200,72.800 261.470,72.800 261.800 C 72.800 262.130,73.062 262.400,73.382 262.400 C 73.999 262.400,74.640 260.039,74.272 259.121 C 74.157 258.835,74.049 259.185,74.032 259.900 M72.392 267.205 C 71.934 267.488,71.912 267.672,72.290 268.050 C 72.668 268.428,72.831 268.385,73.036 267.850 C 73.371 266.979,73.137 266.745,72.392 267.205 M71.700 272.998 C 71.043 273.744,71.069 274.000,71.800 274.000 C 72.133 274.000,72.400 273.644,72.400 273.200 C 72.400 272.262,72.359 272.250,71.700 272.998 M73.286 276.546 C 73.789 277.067,74.274 277.428,74.364 277.349 C 74.597 277.145,73.148 275.600,72.724 275.600 C 72.530 275.600,72.783 276.026,73.286 276.546 M76.400 279.507 C 76.400 279.928,80.336 283.806,80.529 283.576 C 80.611 283.479,79.715 282.451,78.538 281.292 C 77.362 280.133,76.400 279.330,76.400 279.507 M83.286 286.546 C 83.789 287.067,84.274 287.428,84.364 287.349 C 84.597 287.145,83.148 285.600,82.724 285.600 C 82.530 285.600,82.783 286.026,83.286 286.546 M86.400 289.507 C 86.400 289.928,90.336 293.806,90.529 293.576 C 90.611 293.479,89.715 292.451,88.538 291.292 C 87.362 290.133,86.400 289.330,86.400 289.507 M93.286 296.546 C 93.789 297.067,94.274 297.428,94.364 297.349 C 94.597 297.145,93.148 295.600,92.724 295.600 C 92.530 295.600,92.783 296.026,93.286 296.546 M96.400 299.507 C 96.400 299.928,100.336 303.806,100.529 303.576 C 100.611 303.479,99.715 302.451,98.538 301.292 C 97.362 300.133,96.400 299.330,96.400 299.507 M103.286 306.546 C 103.789 307.067,104.274 307.428,104.364 307.349 C 104.597 307.145,103.148 305.600,102.724 305.600 C 102.530 305.600,102.783 306.026,103.286 306.546 M333.200 308.733 C 333.200 308.990,332.917 309.200,332.571 309.200 C 332.226 309.200,331.673 309.470,331.343 309.800 C 330.810 310.333,330.815 310.400,331.388 310.400 C 332.181 310.400,333.845 308.912,333.471 308.538 C 333.322 308.389,333.200 308.477,333.200 308.733 M106.400 309.507 C 106.400 309.928,110.336 313.806,110.529 313.576 C 110.611 313.479,109.715 312.451,108.538 311.292 C 107.362 310.133,106.400 309.330,106.400 309.507 M329.200 311.132 C 329.200 311.315,328.705 311.720,328.100 312.032 C 326.598 312.807,325.401 313.934,325.729 314.262 C 325.878 314.411,326.000 314.323,326.000 314.067 C 326.000 313.810,326.270 313.600,326.600 313.600 C 326.930 313.600,327.200 313.420,327.200 313.200 C 327.200 312.980,327.470 312.800,327.800 312.800 C 328.130 312.800,328.400 312.620,328.400 312.400 C 328.400 312.180,328.670 312.000,329.000 312.000 C 329.330 312.000,329.600 311.833,329.600 311.629 C 329.600 311.425,329.915 311.176,330.300 311.076 C 330.827 310.938,330.777 310.881,330.100 310.846 C 329.605 310.821,329.200 310.950,329.200 311.132 M323.798 314.802 C 323.398 315.244,323.190 315.724,323.336 315.869 C 323.481 316.014,323.600 315.923,323.600 315.667 C 323.600 315.410,323.870 315.200,324.200 315.200 C 324.530 315.200,324.800 314.930,324.800 314.600 C 324.800 313.815,324.667 313.842,323.798 314.802 M113.286 316.546 C 113.789 317.067,114.274 317.428,114.364 317.349 C 114.597 317.145,113.148 315.600,112.724 315.600 C 112.530 315.600,112.783 316.026,113.286 316.546 M321.000 316.800 C 320.602 317.240,320.062 317.600,319.800 317.600 C 319.538 317.600,318.998 317.960,318.600 318.400 C 318.202 318.840,317.662 319.200,317.400 319.200 C 317.138 319.200,316.598 319.560,316.200 320.000 C 315.802 320.440,315.256 320.800,314.987 320.800 C 314.718 320.800,314.271 321.073,313.994 321.407 C 313.717 321.741,312.899 322.295,312.176 322.638 C 311.453 322.981,310.773 323.494,310.664 323.778 C 310.509 324.183,310.667 324.199,311.399 323.853 C 311.912 323.611,312.246 323.275,312.142 323.107 C 312.038 322.938,312.323 322.800,312.776 322.800 C 313.229 322.800,313.600 322.620,313.600 322.400 C 313.600 322.180,313.870 322.000,314.200 322.000 C 314.530 322.000,314.800 321.820,314.800 321.600 C 314.800 321.380,315.051 321.200,315.357 321.200 C 315.664 321.200,316.022 320.919,316.154 320.575 C 316.286 320.231,316.576 320.061,316.797 320.198 C 317.019 320.335,317.200 320.257,317.200 320.024 C 317.200 319.791,317.470 319.600,317.800 319.600 C 318.130 319.600,318.400 319.452,318.400 319.271 C 318.400 318.896,321.483 316.800,322.036 316.800 C 322.236 316.800,322.400 316.620,322.400 316.400 C 322.400 315.759,321.782 315.936,321.000 316.800 M116.400 319.507 C 116.400 319.928,120.336 323.806,120.529 323.576 C 120.611 323.479,119.715 322.451,118.538 321.292 C 117.362 320.133,116.400 319.330,116.400 319.507 M123.286 326.546 C 123.789 327.067,124.274 327.428,124.364 327.349 C 124.597 327.145,123.148 325.600,122.724 325.600 C 122.530 325.600,122.783 326.026,123.286 326.546 M303.200 328.733 C 303.200 328.990,302.840 329.200,302.400 329.200 C 301.956 329.200,301.600 329.467,301.600 329.800 C 301.600 330.130,301.791 330.400,302.024 330.400 C 302.257 330.400,302.336 330.220,302.200 330.000 C 302.064 329.780,302.223 329.600,302.553 329.600 C 303.224 329.600,303.810 328.877,303.440 328.507 C 303.308 328.375,303.200 328.477,303.200 328.733 M126.400 329.507 C 126.400 329.928,130.336 333.806,130.529 333.576 C 130.611 333.479,129.715 332.451,128.538 331.292 C 127.362 330.133,126.400 329.330,126.400 329.507 M299.200 331.132 C 299.200 331.315,298.705 331.720,298.100 332.032 C 296.598 332.807,295.401 333.934,295.729 334.262 C 295.878 334.411,296.000 334.323,296.000 334.067 C 296.000 333.810,296.270 333.600,296.600 333.600 C 296.930 333.600,297.200 333.420,297.200 333.200 C 297.200 332.980,297.470 332.800,297.800 332.800 C 298.130 332.800,298.400 332.620,298.400 332.400 C 298.400 332.180,298.670 332.000,299.000 332.000 C 299.330 332.000,299.600 331.833,299.600 331.629 C 299.600 331.425,299.915 331.176,300.300 331.076 C 300.827 330.938,300.777 330.881,300.100 330.846 C 299.605 330.821,299.200 330.950,299.200 331.132 M293.798 334.802 C 293.398 335.244,293.190 335.724,293.336 335.869 C 293.481 336.014,293.600 335.923,293.600 335.667 C 293.600 335.410,293.870 335.200,294.200 335.200 C 294.530 335.200,294.800 334.930,294.800 334.600 C 294.800 333.815,294.667 333.842,293.798 334.802 M133.286 336.546 C 133.789 337.067,134.274 337.428,134.364 337.349 C 134.597 337.145,133.148 335.600,132.724 335.600 C 132.530 335.600,132.783 336.026,133.286 336.546 M291.000 336.800 C 290.602 337.240,290.062 337.600,289.800 337.600 C 289.538 337.600,288.998 337.960,288.600 338.400 C 288.202 338.840,287.656 339.200,287.387 339.200 C 287.118 339.200,286.671 339.473,286.394 339.807 C 286.117 340.141,285.285 340.702,284.545 341.053 C 283.805 341.404,283.200 341.851,283.200 342.046 C 283.200 342.241,282.975 342.406,282.700 342.413 C 281.648 342.439,280.522 343.600,281.547 343.600 C 282.045 343.600,282.337 343.421,282.200 343.200 C 282.064 342.980,282.323 342.800,282.776 342.800 C 283.229 342.800,283.600 342.620,283.600 342.400 C 283.600 342.180,283.870 342.000,284.200 342.000 C 284.530 342.000,284.800 341.820,284.800 341.600 C 284.800 341.380,285.051 341.200,285.357 341.200 C 285.664 341.200,286.022 340.919,286.154 340.575 C 286.286 340.231,286.576 340.061,286.797 340.198 C 287.019 340.335,287.200 340.257,287.200 340.024 C 287.200 339.791,287.470 339.600,287.800 339.600 C 288.130 339.600,288.400 339.452,288.400 339.271 C 288.400 338.896,291.483 336.800,292.036 336.800 C 292.236 336.800,292.400 336.620,292.400 336.400 C 292.400 335.759,291.782 335.936,291.000 336.800 M136.400 339.507 C 136.400 339.928,140.336 343.806,140.529 343.576 C 140.611 343.479,139.715 342.451,138.538 341.292 C 137.362 340.133,136.400 339.330,136.400 339.507 M278.806 344.782 C 278.259 345.202,277.944 345.678,278.106 345.839 C 278.268 346.001,278.400 345.923,278.400 345.667 C 278.400 345.410,278.651 345.200,278.957 345.200 C 279.264 345.200,279.618 344.930,279.745 344.600 C 280.033 343.850,280.014 343.853,278.806 344.782 M143.286 346.546 C 143.789 347.067,144.274 347.428,144.364 347.349 C 144.597 347.145,143.148 345.600,142.724 345.600 C 142.530 345.600,142.783 346.026,143.286 346.546 M273.200 348.733 C 273.200 348.990,272.840 349.200,272.400 349.200 C 271.956 349.200,271.600 349.467,271.600 349.800 C 271.600 350.130,271.791 350.400,272.024 350.400 C 272.257 350.400,272.336 350.220,272.200 350.000 C 272.064 349.780,272.223 349.600,272.553 349.600 C 273.224 349.600,273.810 348.877,273.440 348.507 C 273.308 348.375,273.200 348.477,273.200 348.733 M146.400 349.507 C 146.400 349.928,150.336 353.806,150.529 353.576 C 150.611 353.479,149.715 352.451,148.538 351.292 C 147.362 350.133,146.400 349.330,146.400 349.507 M269.200 351.132 C 269.200 351.315,268.705 351.720,268.100 352.032 C 266.598 352.807,265.401 353.934,265.729 354.262 C 265.878 354.411,266.000 354.323,266.000 354.067 C 266.000 353.810,266.270 353.600,266.600 353.600 C 266.930 353.600,267.200 353.420,267.200 353.200 C 267.200 352.980,267.470 352.800,267.800 352.800 C 268.130 352.800,268.400 352.620,268.400 352.400 C 268.400 352.180,268.670 352.000,269.000 352.000 C 269.330 352.000,269.600 351.833,269.600 351.629 C 269.600 351.425,269.915 351.176,270.300 351.076 C 270.827 350.938,270.777 350.881,270.100 350.846 C 269.605 350.821,269.200 350.950,269.200 351.132 M263.798 354.802 C 263.398 355.244,263.190 355.724,263.336 355.869 C 263.481 356.014,263.600 355.923,263.600 355.667 C 263.600 355.410,263.870 355.200,264.200 355.200 C 264.530 355.200,264.800 354.930,264.800 354.600 C 264.800 353.815,264.667 353.842,263.798 354.802 M153.286 356.546 C 153.789 357.067,154.274 357.428,154.364 357.349 C 154.597 357.145,153.148 355.600,152.724 355.600 C 152.530 355.600,152.783 356.026,153.286 356.546 M261.000 356.800 C 260.602 357.240,260.062 357.600,259.800 357.600 C 259.538 357.600,258.998 357.960,258.600 358.400 C 258.202 358.840,257.656 359.200,257.387 359.200 C 257.118 359.200,256.671 359.473,256.394 359.807 C 256.117 360.141,255.285 360.702,254.545 361.053 C 253.805 361.404,253.200 361.851,253.200 362.046 C 253.200 362.241,252.975 362.406,252.700 362.413 C 251.648 362.439,250.522 363.600,251.547 363.600 C 252.045 363.600,252.337 363.421,252.200 363.200 C 252.064 362.980,252.323 362.800,252.776 362.800 C 253.229 362.800,253.600 362.620,253.600 362.400 C 253.600 362.180,253.870 362.000,254.200 362.000 C 254.530 362.000,254.800 361.820,254.800 361.600 C 254.800 361.380,255.051 361.200,255.357 361.200 C 255.664 361.200,256.022 360.919,256.154 360.575 C 256.286 360.231,256.576 360.061,256.797 360.198 C 257.019 360.335,257.200 360.257,257.200 360.024 C 257.200 359.791,257.470 359.600,257.800 359.600 C 258.130 359.600,258.400 359.452,258.400 359.271 C 258.400 358.896,261.483 356.800,262.036 356.800 C 262.236 356.800,262.400 356.620,262.400 356.400 C 262.400 355.759,261.782 355.936,261.000 356.800 M156.400 359.507 C 156.400 359.928,160.336 363.806,160.529 363.576 C 160.611 363.479,159.715 362.451,158.538 361.292 C 157.362 360.133,156.400 359.330,156.400 359.507 M248.806 364.782 C 248.259 365.202,247.944 365.678,248.106 365.839 C 248.268 366.001,248.400 365.923,248.400 365.667 C 248.400 365.410,248.651 365.200,248.957 365.200 C 249.264 365.200,249.618 364.930,249.745 364.600 C 250.033 363.850,250.014 363.853,248.806 364.782 M163.286 366.546 C 163.789 367.067,164.274 367.428,164.364 367.349 C 164.597 367.145,163.148 365.600,162.724 365.600 C 162.530 365.600,162.783 366.026,163.286 366.546 M243.200 368.733 C 243.200 368.990,242.840 369.200,242.400 369.200 C 241.960 369.200,241.600 369.363,241.600 369.563 C 241.600 370.008,243.123 369.648,243.446 369.125 C 243.575 368.917,243.572 368.639,243.440 368.507 C 243.308 368.375,243.200 368.477,243.200 368.733 M166.400 369.507 C 166.400 369.928,170.336 373.806,170.529 373.576 C 170.611 373.479,169.715 372.451,168.538 371.292 C 167.362 370.133,166.400 369.330,166.400 369.507 M239.200 371.132 C 239.200 371.315,238.705 371.720,238.100 372.032 C 236.598 372.807,235.401 373.934,235.729 374.262 C 235.878 374.411,236.000 374.323,236.000 374.067 C 236.000 373.810,236.270 373.600,236.600 373.600 C 236.930 373.600,237.200 373.420,237.200 373.200 C 237.200 372.980,237.470 372.800,237.800 372.800 C 238.130 372.800,238.400 372.620,238.400 372.400 C 238.400 372.180,238.670 372.000,239.000 372.000 C 239.330 372.000,239.600 371.833,239.600 371.629 C 239.600 371.425,239.915 371.176,240.300 371.076 C 240.827 370.938,240.777 370.881,240.100 370.846 C 239.605 370.821,239.200 370.950,239.200 371.132 M233.798 374.802 C 232.758 375.951,233.220 376.080,234.314 374.946 C 234.817 374.426,235.070 374.000,234.876 374.000 C 234.682 374.000,234.197 374.361,233.798 374.802 M173.286 376.546 C 173.789 377.067,174.274 377.428,174.364 377.349 C 174.597 377.145,173.148 375.600,172.724 375.600 C 172.530 375.600,172.783 376.026,173.286 376.546 M231.000 376.800 C 230.602 377.240,230.062 377.600,229.800 377.600 C 229.538 377.600,228.998 377.960,228.600 378.400 C 228.202 378.840,227.662 379.200,227.400 379.200 C 227.138 379.200,226.598 379.560,226.200 380.000 C 225.802 380.440,225.268 380.800,225.013 380.800 C 224.759 380.800,224.202 381.115,223.775 381.500 C 223.349 381.885,222.488 382.464,221.863 382.788 C 221.183 383.139,220.934 383.445,221.243 383.548 C 221.527 383.642,221.829 383.513,221.913 383.260 C 221.998 383.007,222.372 382.800,222.745 382.800 C 223.118 382.800,223.683 382.440,224.000 382.000 C 224.317 381.560,224.807 381.200,225.088 381.200 C 225.370 381.200,225.960 380.840,226.400 380.400 C 226.840 379.960,227.470 379.600,227.800 379.600 C 228.130 379.600,228.400 379.450,228.400 379.267 C 228.400 379.084,229.300 378.352,230.400 377.639 C 231.500 376.926,232.400 376.266,232.400 376.171 C 232.400 375.740,231.657 376.074,231.000 376.800 M176.400 379.507 C 176.400 379.928,180.336 383.806,180.529 383.576 C 180.611 383.479,179.715 382.451,178.538 381.292 C 177.362 380.133,176.400 379.330,176.400 379.507 M183.286 386.546 C 183.789 387.067,184.274 387.428,184.364 387.349 C 184.597 387.145,183.148 385.600,182.724 385.600 C 182.530 385.600,182.783 386.026,183.286 386.546 M213.200 388.733 C 213.200 388.990,212.840 389.200,212.400 389.200 C 211.960 389.200,211.600 389.363,211.600 389.563 C 211.600 390.008,213.123 389.648,213.446 389.125 C 213.575 388.917,213.572 388.639,213.440 388.507 C 213.308 388.375,213.200 388.477,213.200 388.733 M186.400 389.507 C 186.400 389.928,190.336 393.806,190.529 393.576 C 190.611 393.479,189.715 392.451,188.538 391.292 C 187.362 390.133,186.400 389.330,186.400 389.507 M209.200 391.132 C 209.200 391.315,208.705 391.720,208.100 392.032 C 206.598 392.807,205.401 393.934,205.729 394.262 C 205.878 394.411,206.000 394.323,206.000 394.067 C 206.000 393.810,206.270 393.600,206.600 393.600 C 206.930 393.600,207.200 393.420,207.200 393.200 C 207.200 392.980,207.470 392.800,207.800 392.800 C 208.130 392.800,208.400 392.620,208.400 392.400 C 208.400 392.180,208.670 392.000,209.000 392.000 C 209.330 392.000,209.600 391.833,209.600 391.629 C 209.600 391.425,209.915 391.176,210.300 391.076 C 210.827 390.938,210.777 390.881,210.100 390.846 C 209.605 390.821,209.200 390.950,209.200 391.132 M203.798 394.802 C 202.758 395.951,203.220 396.080,204.314 394.946 C 204.817 394.426,205.070 394.000,204.876 394.000 C 204.682 394.000,204.197 394.361,203.798 394.802 M193.286 396.546 C 193.789 397.067,194.274 397.428,194.364 397.349 C 194.597 397.145,193.148 395.600,192.724 395.600 C 192.530 395.600,192.783 396.026,193.286 396.546 M201.000 396.800 C 200.602 397.240,200.062 397.600,199.800 397.600 C 199.538 397.600,199.007 397.950,198.620 398.378 C 198.233 398.805,197.530 399.231,197.058 399.323 C 196.373 399.457,196.422 399.502,197.300 399.546 C 197.905 399.575,198.400 399.450,198.400 399.267 C 198.400 399.084,199.300 398.352,200.400 397.639 C 201.500 396.926,202.400 396.266,202.400 396.171 C 202.400 395.740,201.657 396.074,201.000 396.800 " stroke="none" fill="#24dcc4" fill-rule="evenodd"></path><path id="path4" d="M87.709 166.800 C 87.709 167.790,87.787 168.195,87.882 167.700 C 87.978 167.205,87.978 166.395,87.882 165.900 C 87.787 165.405,87.709 165.810,87.709 166.800 M77.709 236.800 C 77.709 237.790,77.787 238.195,77.882 237.700 C 77.978 237.205,77.978 236.395,77.882 235.900 C 77.787 235.405,77.709 235.810,77.709 236.800 " stroke="none" fill="#08d4b4" fill-rule="evenodd"></path><path id="path5" d="M196.400 1.081 C 196.730 1.200,197.630 1.861,198.400 2.549 L 199.800 3.800 198.422 2.300 C 197.663 1.475,196.763 0.814,196.422 0.832 C 195.884 0.859,195.881 0.892,196.400 1.081 M207.800 12.000 C 208.659 12.880,209.452 13.600,209.562 13.600 C 209.672 13.600,209.059 12.880,208.200 12.000 C 207.341 11.120,206.548 10.400,206.438 10.400 C 206.328 10.400,206.941 11.120,207.800 12.000 M217.800 22.000 C 218.659 22.880,219.452 23.600,219.562 23.600 C 219.672 23.600,219.059 22.880,218.200 22.000 C 217.341 21.120,216.548 20.400,216.438 20.400 C 216.328 20.400,216.941 21.120,217.800 22.000 M227.800 32.000 C 228.659 32.880,229.452 33.600,229.562 33.600 C 229.672 33.600,229.059 32.880,228.200 32.000 C 227.341 31.120,226.548 30.400,226.438 30.400 C 226.328 30.400,226.941 31.120,227.800 32.000 M237.800 42.000 C 238.659 42.880,239.452 43.600,239.562 43.600 C 239.672 43.600,239.059 42.880,238.200 42.000 C 237.341 41.120,236.548 40.400,236.438 40.400 C 236.328 40.400,236.941 41.120,237.800 42.000 M247.800 52.000 C 248.659 52.880,249.452 53.600,249.562 53.600 C 249.672 53.600,249.059 52.880,248.200 52.000 C 247.341 51.120,246.548 50.400,246.438 50.400 C 246.328 50.400,246.941 51.120,247.800 52.000 M257.800 62.000 C 258.659 62.880,259.452 63.600,259.562 63.600 C 259.672 63.600,259.059 62.880,258.200 62.000 C 257.341 61.120,256.548 60.400,256.438 60.400 C 256.328 60.400,256.941 61.120,257.800 62.000 M267.800 72.000 C 268.659 72.880,269.452 73.600,269.562 73.600 C 269.672 73.600,269.059 72.880,268.200 72.000 C 267.341 71.120,266.548 70.400,266.438 70.400 C 266.328 70.400,266.941 71.120,267.800 72.000 M277.800 82.000 C 278.659 82.880,279.452 83.600,279.562 83.600 C 279.672 83.600,279.059 82.880,278.200 82.000 C 277.341 81.120,276.548 80.400,276.438 80.400 C 276.328 80.400,276.941 81.120,277.800 82.000 M287.800 92.000 C 288.659 92.880,289.452 93.600,289.562 93.600 C 289.672 93.600,289.059 92.880,288.200 92.000 C 287.341 91.120,286.548 90.400,286.438 90.400 C 286.328 90.400,286.941 91.120,287.800 92.000 M297.800 102.000 C 298.659 102.880,299.452 103.600,299.562 103.600 C 299.672 103.600,299.059 102.880,298.200 102.000 C 297.341 101.120,296.548 100.400,296.438 100.400 C 296.328 100.400,296.941 101.120,297.800 102.000 M307.800 112.000 C 308.659 112.880,309.452 113.600,309.562 113.600 C 309.672 113.600,309.059 112.880,308.200 112.000 C 307.341 111.120,306.548 110.400,306.438 110.400 C 306.328 110.400,306.941 111.120,307.800 112.000 M317.800 122.000 C 318.659 122.880,319.452 123.600,319.562 123.600 C 319.672 123.600,319.059 122.880,318.200 122.000 C 317.341 121.120,316.548 120.400,316.438 120.400 C 316.328 120.400,316.941 121.120,317.800 122.000 M317.781 128.100 L 316.200 129.800 317.900 128.219 C 319.481 126.748,319.784 126.400,319.481 126.400 C 319.416 126.400,318.651 127.165,317.781 128.100 M92.514 131.800 C 92.517 132.900,92.595 133.303,92.687 132.695 C 92.779 132.086,92.777 131.186,92.682 130.695 C 92.587 130.203,92.511 130.700,92.514 131.800 M91.709 137.600 C 91.709 138.590,91.787 138.995,91.882 138.500 C 91.978 138.005,91.978 137.195,91.882 136.700 C 91.787 136.205,91.709 136.610,91.709 137.600 M307.781 138.100 L 306.200 139.800 307.900 138.219 C 309.481 136.748,309.784 136.400,309.481 136.400 C 309.416 136.400,308.651 137.165,307.781 138.100 M90.893 143.600 C 90.893 144.370,90.975 144.685,91.076 144.300 C 91.176 143.915,91.176 143.285,91.076 142.900 C 90.975 142.515,90.893 142.830,90.893 143.600 M297.781 148.100 L 296.200 149.800 297.900 148.219 C 299.481 146.748,299.784 146.400,299.481 146.400 C 299.416 146.400,298.651 147.165,297.781 148.100 M287.781 158.100 L 286.200 159.800 287.900 158.219 C 289.481 156.748,289.784 156.400,289.481 156.400 C 289.416 156.400,288.651 157.165,287.781 158.100 M277.781 168.100 L 276.200 169.800 277.900 168.219 C 279.481 166.748,279.784 166.400,279.481 166.400 C 279.416 166.400,278.651 167.165,277.781 168.100 M267.781 178.100 L 266.200 179.800 267.900 178.219 C 269.481 176.748,269.784 176.400,269.481 176.400 C 269.416 176.400,268.651 177.165,267.781 178.100 M257.781 188.100 L 256.200 189.800 257.900 188.219 C 259.481 186.748,259.784 186.400,259.481 186.400 C 259.416 186.400,258.651 187.165,257.781 188.100 M247.781 198.100 L 246.200 199.800 247.900 198.219 C 249.481 196.748,249.784 196.400,249.481 196.400 C 249.416 196.400,248.651 197.165,247.781 198.100 M82.514 201.800 C 82.517 202.900,82.595 203.303,82.687 202.695 C 82.779 202.086,82.777 201.186,82.682 200.695 C 82.587 200.203,82.511 200.700,82.514 201.800 M247.800 202.000 C 248.659 202.880,249.452 203.600,249.562 203.600 C 249.672 203.600,249.059 202.880,248.200 202.000 C 247.341 201.120,246.548 200.400,246.438 200.400 C 246.328 200.400,246.941 201.120,247.800 202.000 M81.709 207.600 C 81.709 208.590,81.787 208.995,81.882 208.500 C 81.978 208.005,81.978 207.195,81.882 206.700 C 81.787 206.205,81.709 206.610,81.709 207.600 M257.800 212.000 C 258.659 212.880,259.452 213.600,259.562 213.600 C 259.672 213.600,259.059 212.880,258.200 212.000 C 257.341 211.120,256.548 210.400,256.438 210.400 C 256.328 210.400,256.941 211.120,257.800 212.000 M80.893 213.600 C 80.893 214.370,80.975 214.685,81.076 214.300 C 81.176 213.915,81.176 213.285,81.076 212.900 C 80.975 212.515,80.893 212.830,80.893 213.600 M267.800 222.000 C 268.659 222.880,269.452 223.600,269.562 223.600 C 269.672 223.600,269.059 222.880,268.200 222.000 C 267.341 221.120,266.548 220.400,266.438 220.400 C 266.328 220.400,266.941 221.120,267.800 222.000 M277.800 232.000 C 278.659 232.880,279.452 233.600,279.562 233.600 C 279.672 233.600,279.059 232.880,278.200 232.000 C 277.341 231.120,276.548 230.400,276.438 230.400 C 276.328 230.400,276.941 231.120,277.800 232.000 M287.800 242.000 C 288.659 242.880,289.452 243.600,289.562 243.600 C 289.672 243.600,289.059 242.880,288.200 242.000 C 287.341 241.120,286.548 240.400,286.438 240.400 C 286.328 240.400,286.941 241.120,287.800 242.000 M297.800 252.000 C 298.659 252.880,299.452 253.600,299.562 253.600 C 299.672 253.600,299.059 252.880,298.200 252.000 C 297.341 251.120,296.548 250.400,296.438 250.400 C 296.328 250.400,296.941 251.120,297.800 252.000 M307.800 262.000 C 308.659 262.880,309.452 263.600,309.562 263.600 C 309.672 263.600,309.059 262.880,308.200 262.000 C 307.341 261.120,306.548 260.400,306.438 260.400 C 306.328 260.400,306.941 261.120,307.800 262.000 M72.514 271.800 C 72.517 272.900,72.595 273.303,72.687 272.695 C 72.779 272.086,72.777 271.186,72.682 270.695 C 72.587 270.203,72.511 270.700,72.514 271.800 M317.800 272.000 C 318.659 272.880,319.452 273.600,319.562 273.600 C 319.672 273.600,319.059 272.880,318.200 272.000 C 317.341 271.120,316.548 270.400,316.438 270.400 C 316.328 270.400,316.941 271.120,317.800 272.000 M327.800 282.000 C 328.659 282.880,329.452 283.600,329.562 283.600 C 329.672 283.600,329.059 282.880,328.200 282.000 C 327.341 281.120,326.548 280.400,326.438 280.400 C 326.328 280.400,326.941 281.120,327.800 282.000 M337.800 292.000 C 338.659 292.880,339.452 293.600,339.562 293.600 C 339.672 293.600,339.059 292.880,338.200 292.000 C 337.341 291.120,336.548 290.400,336.438 290.400 C 336.328 290.400,336.941 291.120,337.800 292.000 M337.341 305.597 C 336.868 305.788,336.370 306.124,336.234 306.345 C 336.098 306.565,336.530 306.475,337.193 306.143 C 337.857 305.812,338.400 305.465,338.400 305.371 C 338.400 305.166,338.420 305.162,337.341 305.597 M307.341 325.597 C 306.868 325.788,306.370 326.124,306.234 326.345 C 306.098 326.565,306.530 326.475,307.193 326.143 C 307.857 325.812,308.400 325.465,308.400 325.371 C 308.400 325.166,308.420 325.162,307.341 325.597 " stroke="none" fill="#14dcb4" fill-rule="evenodd"></path><path id="path6" d="" stroke="none" fill="#04e0b4" fill-rule="evenodd"></path><path id="path7" d="M87.709 166.800 C 87.709 167.790,87.787 168.195,87.882 167.700 C 87.978 167.205,87.978 166.395,87.882 165.900 C 87.787 165.405,87.709 165.810,87.709 166.800 M77.709 236.800 C 77.709 237.790,77.787 238.195,77.882 237.700 C 77.978 237.205,77.978 236.395,77.882 235.900 C 77.787 235.405,77.709 235.810,77.709 236.800 " stroke="none" fill="#08d4b4" fill-rule="evenodd"></path><path id="path8" d="M87.709 166.800 C 87.709 167.790,87.787 168.195,87.882 167.700 C 87.978 167.205,87.978 166.395,87.882 165.900 C 87.787 165.405,87.709 165.810,87.709 166.800 M77.709 236.800 C 77.709 237.790,77.787 238.195,77.882 237.700 C 77.978 237.205,77.978 236.395,77.882 235.900 C 77.787 235.405,77.709 235.810,77.709 236.800 " stroke="none" fill="#08d4b4" fill-rule="evenodd"></path></g></svg>