<svg id="svg" version="1.1" xmlns="http://www.w3.org/2000/svg" xmlns:xlink="http://www.w3.org/1999/xlink" width="400" height="400" viewBox="0, 0, 400,400"><g id="svgg"><path id="path0" d="M198.133 4.000 C 92.277 4.110,5.561 4.306,5.431 4.436 C 4.848 5.018,5.180 395.357,5.764 395.684 C 6.942 396.343,393.234 396.070,394.243 395.409 C 395.023 394.898,395.113 394.599,394.876 393.307 C 394.515 391.337,394.515 8.663,394.876 6.693 C 395.197 4.942,394.415 4.195,392.000 3.945 C 391.230 3.865,303.990 3.890,198.133 4.000 M9.777 5.047 C 10.754 5.422,9.754 6.400,8.394 6.400 C 7.354 6.400,6.563 5.571,7.094 5.039 C 7.406 4.728,8.958 4.732,9.777 5.047 M392.906 5.039 C 393.437 5.571,392.646 6.400,391.606 6.400 C 390.346 6.400,389.220 5.417,390.083 5.070 C 390.818 4.776,392.622 4.756,392.906 5.039 M386.656 21.635 C 389.302 23.035,388.764 28.484,385.930 28.989 C 381.701 29.743,13.131 28.994,12.573 28.231 C 10.714 25.689,11.680 21.515,14.200 21.200 C 17.818 20.748,385.791 21.178,386.656 21.635 M126.758 71.762 C 128.003 72.889,127.804 73.809,125.747 76.426 C 123.324 79.510,129.034 79.246,67.665 79.115 L 13.929 79.000 13.165 78.056 C 11.677 76.219,12.276 71.951,14.126 71.201 C 16.152 70.379,125.834 70.926,126.758 71.762 M385.851 71.039 C 387.646 71.521,388.345 76.455,386.833 77.967 C 385.564 79.236,385.196 79.240,289.069 79.118 L 196.338 79.000 194.969 77.506 C 192.953 75.305,193.701 72.347,196.567 71.188 C 197.483 70.817,384.478 70.671,385.851 71.039 M162.494 72.143 C 164.196 72.496,166.266 73.069,167.094 73.418 C 167.922 73.766,169.487 74.221,170.572 74.429 C 171.657 74.637,172.865 75.097,173.256 75.451 C 173.648 75.805,174.830 76.497,175.884 76.987 C 176.938 77.478,178.404 78.446,179.142 79.140 C 179.881 79.833,180.602 80.400,180.746 80.400 C 180.965 80.400,182.929 82.400,187.239 87.014 C 187.658 87.462,188.000 87.974,188.000 88.153 C 188.000 88.331,188.702 89.274,189.559 90.248 C 190.417 91.223,191.433 92.690,191.818 93.510 C 192.203 94.329,192.941 95.509,193.459 96.131 C 193.976 96.753,194.400 97.583,194.400 97.977 C 194.400 98.370,194.736 99.121,195.146 99.646 C 196.076 100.835,197.743 104.144,198.346 106.000 C 198.597 106.770,199.251 108.286,199.801 109.368 C 200.350 110.450,200.800 111.786,200.800 112.336 C 200.800 112.887,201.056 113.621,201.368 113.969 C 202.070 114.749,203.797 119.292,204.634 122.559 C 204.978 123.902,205.503 125.380,205.802 125.843 C 206.100 126.307,206.551 127.827,206.804 129.222 C 207.057 130.616,207.589 132.396,207.987 133.178 C 208.385 133.960,209.295 136.670,210.010 139.200 C 210.724 141.730,211.647 144.474,212.062 145.299 C 212.476 146.123,212.927 147.653,213.064 148.699 C 213.200 149.744,213.580 151.129,213.906 151.777 C 214.788 153.525,216.388 158.333,216.811 160.505 C 217.014 161.552,217.622 163.352,218.161 164.505 C 218.700 165.657,219.267 167.500,219.423 168.600 C 219.578 169.700,220.041 171.267,220.451 172.082 C 221.665 174.492,222.717 177.625,223.243 180.400 C 223.515 181.830,224.156 183.792,224.668 184.760 C 225.181 185.727,225.608 186.987,225.618 187.560 C 225.627 188.132,225.912 189.320,226.250 190.200 C 227.603 193.723,229.108 198.317,229.591 200.400 C 229.872 201.610,230.353 202.889,230.661 203.242 C 230.968 203.596,231.419 205.036,231.662 206.442 C 231.905 207.849,232.353 209.490,232.657 210.089 C 233.622 211.991,235.188 216.628,235.602 218.809 C 235.821 219.967,236.361 221.654,236.802 222.557 C 237.243 223.461,237.856 225.370,238.166 226.800 C 238.476 228.230,239.253 230.660,239.894 232.200 C 240.534 233.740,241.383 236.440,241.781 238.200 C 242.179 239.960,242.826 241.940,243.218 242.600 C 243.610 243.260,244.120 244.836,244.352 246.101 C 244.584 247.367,244.961 248.754,245.191 249.184 C 245.913 250.533,247.937 256.770,248.420 259.135 C 248.675 260.381,249.138 261.689,249.450 262.041 C 249.762 262.394,250.215 263.744,250.455 265.041 C 250.696 266.339,251.160 267.909,251.487 268.531 C 251.814 269.152,252.519 271.402,253.054 273.531 C 253.589 275.659,254.455 278.300,254.978 279.400 C 256.163 281.891,256.321 282.378,257.003 285.614 C 257.305 287.052,258.193 289.596,258.976 291.268 C 259.759 292.940,260.400 294.560,260.400 294.869 C 260.400 295.178,260.737 296.054,261.149 296.815 C 261.561 297.577,262.259 298.870,262.700 299.688 C 265.289 304.493,269.296 306.084,278.400 305.921 C 282.316 305.852,284.474 305.972,285.044 306.293 C 287.858 307.877,288.860 316.436,287.007 323.075 C 285.528 328.377,285.476 328.439,280.929 330.242 L 277.000 331.800 268.200 331.768 C 260.861 331.741,259.101 331.620,257.600 331.042 C 256.610 330.660,254.630 330.065,253.200 329.719 C 250.040 328.956,246.967 327.277,244.671 325.058 C 243.727 324.146,241.679 322.273,240.120 320.896 C 238.423 319.398,237.177 317.953,237.015 317.296 C 236.867 316.693,235.968 315.030,235.018 313.600 C 234.067 312.170,233.089 310.370,232.844 309.600 C 232.599 308.830,231.949 307.314,231.399 306.232 C 230.850 305.150,230.400 303.945,230.400 303.555 C 230.400 303.165,230.051 302.250,229.624 301.523 C 228.751 300.033,226.979 294.802,226.571 292.511 C 226.424 291.680,225.987 290.460,225.601 289.800 C 225.214 289.140,224.672 287.340,224.395 285.800 C 224.118 284.260,223.544 282.310,223.121 281.467 C 222.697 280.624,222.002 278.339,221.576 276.389 C 220.732 272.521,220.144 270.958,219.158 269.964 C 218.790 269.592,218.394 268.231,218.229 266.771 C 218.070 265.371,217.610 263.500,217.207 262.613 C 216.248 260.503,215.029 256.842,214.208 253.600 C 213.845 252.170,213.218 250.280,212.813 249.400 C 212.409 248.520,211.953 246.902,211.800 245.805 C 211.647 244.708,211.293 243.358,211.013 242.805 C 210.229 241.258,208.517 236.051,207.986 233.600 C 207.724 232.390,207.266 231.010,206.968 230.534 C 206.670 230.058,206.237 228.438,206.006 226.934 C 205.758 225.321,205.014 223.052,204.192 221.400 C 203.425 219.860,202.429 216.980,201.979 215.000 C 201.529 213.020,200.889 210.985,200.556 210.477 C 200.223 209.969,199.708 208.349,199.410 206.877 C 199.112 205.405,198.254 202.490,197.503 200.400 C 196.751 198.310,195.901 195.475,195.614 194.100 C 195.326 192.725,194.980 191.600,194.845 191.600 C 194.281 191.600,192.478 194.336,192.199 195.616 C 191.682 197.989,189.945 202.944,189.190 204.200 C 188.794 204.860,188.274 206.465,188.036 207.767 C 187.797 209.069,187.347 210.419,187.035 210.767 C 186.723 211.115,186.171 212.550,185.809 213.955 C 184.966 217.221,184.089 219.439,182.942 221.200 C 182.441 221.970,181.822 223.590,181.568 224.800 C 181.313 226.010,180.930 227.333,180.717 227.740 C 180.503 228.148,179.879 230.030,179.330 231.924 C 178.781 233.818,177.833 236.468,177.223 237.814 C 176.612 239.160,175.886 241.237,175.608 242.431 C 175.330 243.624,174.779 245.140,174.385 245.800 C 173.990 246.460,173.366 248.170,172.998 249.600 C 172.630 251.030,172.202 252.380,172.048 252.600 C 171.893 252.820,171.527 253.720,171.234 254.600 C 170.941 255.480,170.477 256.470,170.201 256.800 C 169.926 257.130,169.580 258.120,169.431 259.000 C 169.050 261.250,168.395 263.200,168.020 263.200 C 167.845 263.200,167.381 264.730,166.988 266.600 C 166.596 268.470,166.152 270.000,166.001 270.000 C 165.372 270.000,163.604 274.031,163.034 276.768 C 162.695 278.389,162.167 280.005,161.860 280.358 C 161.553 280.711,161.072 281.990,160.791 283.200 C 160.198 285.755,158.577 290.240,157.826 291.404 C 157.541 291.846,157.101 293.173,156.847 294.353 C 156.594 295.533,156.123 296.971,155.799 297.549 C 155.475 298.127,154.562 300.580,153.769 303.000 C 152.977 305.420,152.006 307.940,151.612 308.600 C 151.217 309.260,150.778 310.616,150.636 311.613 C 150.493 312.610,150.033 313.992,149.612 314.684 C 149.191 315.376,148.722 316.606,148.570 317.419 C 147.828 321.373,144.182 327.420,141.924 328.440 C 139.028 329.749,117.671 329.946,115.200 328.687 C 112.273 327.196,111.326 323.634,113.094 320.769 C 113.559 320.016,114.157 318.500,114.424 317.400 C 114.690 316.300,115.592 314.023,116.428 312.341 C 117.264 310.658,118.070 308.631,118.219 307.837 C 118.368 307.043,118.799 305.990,119.177 305.497 C 119.554 305.003,120.176 303.466,120.558 302.080 C 120.940 300.694,121.858 298.354,122.598 296.880 C 123.338 295.406,124.147 293.390,124.396 292.400 C 124.645 291.410,125.164 290.150,125.548 289.600 C 125.933 289.050,126.572 287.383,126.969 285.895 C 127.366 284.408,127.851 283.092,128.046 282.972 C 128.241 282.851,128.400 282.428,128.400 282.030 C 128.400 281.633,128.794 280.807,129.275 280.195 C 130.129 279.110,131.184 276.465,132.863 271.200 C 133.319 269.770,134.367 267.160,135.192 265.400 C 136.017 263.640,136.811 261.543,136.956 260.741 C 137.102 259.938,137.555 258.857,137.962 258.339 C 138.370 257.821,139.028 256.227,139.425 254.798 C 139.821 253.369,140.742 251.030,141.471 249.600 C 142.200 248.170,142.912 246.370,143.052 245.600 C 143.193 244.830,143.719 243.480,144.222 242.600 C 144.725 241.720,145.446 239.922,145.825 238.605 C 146.203 237.287,146.652 235.937,146.823 235.605 C 148.237 232.855,149.147 230.712,149.584 229.108 C 149.868 228.067,150.347 227.010,150.650 226.759 C 150.952 226.508,151.200 226.060,151.200 225.765 C 151.200 224.861,152.401 221.549,153.798 218.600 C 154.527 217.060,155.340 214.992,155.603 214.004 C 155.867 213.016,156.395 211.756,156.776 211.204 C 157.158 210.652,157.709 209.300,158.002 208.200 C 158.294 207.100,159.313 204.561,160.267 202.557 C 161.220 200.553,162.001 198.483,162.003 197.957 C 162.004 197.431,162.366 196.460,162.807 195.800 C 163.248 195.140,163.965 193.430,164.399 192.000 C 164.833 190.570,165.821 188.150,166.594 186.623 C 167.367 185.096,168.000 183.551,168.000 183.191 C 168.000 182.830,168.449 181.650,168.999 180.568 C 169.548 179.486,170.284 177.618,170.634 176.418 C 170.984 175.218,171.891 172.980,172.650 171.444 C 173.409 169.908,174.213 167.833,174.438 166.832 C 174.662 165.832,175.118 164.712,175.451 164.344 C 175.784 163.976,176.331 162.623,176.666 161.337 C 177.286 158.958,177.437 158.593,179.326 154.900 C 180.655 152.301,180.765 149.464,179.612 147.510 C 178.804 146.140,176.800 140.395,176.800 139.447 C 176.800 139.157,176.361 138.094,175.825 137.086 C 175.289 136.077,174.666 134.255,174.441 133.036 C 174.215 131.817,173.776 130.320,173.464 129.710 C 173.152 129.099,172.432 127.066,171.864 125.191 C 171.295 123.316,170.302 120.976,169.657 119.991 C 169.012 119.006,168.359 117.390,168.205 116.400 C 168.052 115.410,167.502 113.970,166.982 113.200 C 166.463 112.430,165.396 110.450,164.612 108.800 C 159.268 97.564,150.144 94.256,134.094 97.736 C 126.604 99.360,124.627 99.172,123.357 96.718 C 121.915 93.929,122.294 81.538,123.882 79.554 C 126.506 76.277,128.209 74.776,129.754 74.379 C 130.659 74.147,132.480 73.609,133.800 73.185 C 140.233 71.119,154.974 70.583,162.494 72.143 M169.439 121.190 C 170.745 121.220,171.909 127.451,170.813 128.547 C 170.479 128.881,149.889 129.000,92.145 129.000 L 13.929 129.000 13.165 128.056 C 11.399 125.876,12.356 121.753,14.740 121.266 C 15.634 121.083,161.570 121.012,169.439 121.190 M386.253 122.213 C 388.312 123.784,388.039 128.373,385.851 128.961 C 384.147 129.418,212.986 129.223,211.665 128.763 C 209.039 127.847,208.968 124.028,211.542 122.136 L 213.086 121.000 298.995 121.093 L 384.905 121.185 386.253 122.213 M166.035 171.944 C 167.225 173.413,167.101 176.935,165.815 178.221 L 164.830 179.206 89.380 179.103 L 13.929 179.000 13.165 178.056 C 11.677 176.219,12.276 171.950,14.126 171.201 C 14.624 171.000,47.322 170.880,90.135 170.924 L 165.271 171.000 166.035 171.944 M385.851 171.039 C 387.646 171.521,388.345 176.455,386.833 177.967 C 385.569 179.231,384.821 179.241,303.942 179.118 C 214.364 178.982,224.275 179.518,224.483 174.823 C 224.682 170.345,215.410 170.801,306.200 170.806 C 349.540 170.809,385.383 170.914,385.851 171.039 M194.920 197.464 C 194.807 197.759,194.464 198.000,194.157 198.000 C 193.851 198.000,193.600 198.349,193.600 198.776 C 193.600 199.815,192.861 200.224,192.532 199.368 C 192.372 198.949,192.528 198.496,192.935 198.198 C 193.301 197.931,193.600 197.543,193.600 197.336 C 193.600 197.129,193.815 196.745,194.078 196.482 C 194.652 195.908,195.250 196.605,194.920 197.464 M147.242 221.617 C 148.554 222.161,149.038 223.813,148.676 226.511 C 148.284 229.434,153.970 229.218,80.483 229.103 L 13.929 229.000 13.165 228.056 C 11.399 225.875,12.356 221.753,14.740 221.266 C 17.224 220.758,145.992 221.100,147.242 221.617 M203.142 221.353 C 204.782 222.400,205.677 226.741,204.577 228.311 C 203.807 229.411,184.078 229.731,182.624 228.667 C 181.585 227.907,181.891 223.838,183.116 222.118 L 183.991 220.889 193.296 220.948 C 198.413 220.980,202.844 221.162,203.142 221.353 M386.258 222.217 C 388.313 223.784,388.036 228.374,385.851 228.961 C 385.383 229.086,352.470 229.192,312.710 229.195 L 240.421 229.200 239.810 228.020 C 239.187 226.814,238.993 223.806,239.460 222.588 C 240.076 220.982,239.367 220.997,313.401 221.097 L 384.916 221.194 386.258 222.217 M218.729 271.285 C 220.456 272.179,221.440 276.456,220.378 278.442 C 219.907 279.321,166.328 279.618,164.708 278.751 C 162.990 277.831,164.140 272.633,166.360 271.282 C 167.790 270.413,217.050 270.415,218.729 271.285 M129.820 271.208 C 131.421 271.816,131.153 276.170,129.403 277.997 L 128.243 279.208 71.086 279.104 L 13.929 279.000 13.165 278.056 C 11.677 276.219,12.277 271.948,14.126 271.203 C 15.401 270.689,128.469 270.694,129.820 271.208 M385.851 271.039 C 388.835 271.840,388.143 278.081,384.989 278.812 C 382.753 279.331,257.571 279.321,256.207 278.803 C 254.394 278.113,253.292 273.670,254.414 271.574 C 254.822 270.812,383.060 270.290,385.851 271.039 M197.600 321.158 C 220.150 321.149,238.901 321.154,239.269 321.170 C 242.422 321.310,245.215 327.533,242.613 328.620 C 240.438 329.529,148.189 329.488,146.889 328.577 C 145.458 327.575,145.931 323.894,147.772 321.706 L 148.713 320.588 152.657 320.882 C 154.825 321.044,175.050 321.168,197.600 321.158 M109.874 321.702 C 110.700 322.528,110.981 325.239,110.418 326.946 C 109.634 329.322,111.339 329.248,60.465 329.119 L 13.929 329.000 13.165 328.056 C 11.399 325.875,12.356 321.753,14.741 321.266 C 17.713 320.659,109.250 321.079,109.874 321.702 M386.252 322.213 C 388.542 323.959,387.993 328.551,385.439 329.008 C 381.782 329.663,288.027 328.998,287.341 328.313 C 286.557 327.528,287.047 323.503,288.128 321.854 L 288.687 321.000 336.796 321.092 L 384.904 321.184 386.252 322.213 M386.525 371.171 C 388.978 372.104,388.958 377.138,386.495 378.456 C 384.604 379.468,13.314 379.244,12.573 378.231 C 11.129 376.257,11.594 371.900,13.322 371.204 C 14.526 370.719,385.250 370.687,386.525 371.171 M9.961 394.153 C 10.484 394.783,9.797 395.200,8.234 395.200 C 7.129 395.200,6.788 394.896,7.070 394.161 C 7.348 393.438,9.364 393.433,9.961 394.153 M392.930 394.161 C 393.212 394.896,392.871 395.200,391.766 395.200 C 390.203 395.200,389.516 394.783,390.039 394.153 C 390.636 393.433,392.652 393.438,392.930 394.161 " stroke="none" fill="#7bc34b" fill-rule="evenodd"></path><path id="path1" d="M0.000 200.000 L 0.000 400.000 2.000 400.000 C 4.283 400.000,4.274 400.018,3.198 397.795 C 1.929 395.175,1.929 4.825,3.198 2.205 C 4.274 -0.018,4.283 0.000,2.000 0.000 L 0.000 0.000 0.000 200.000 M396.000 0.325 C 396.000 0.504,396.360 1.395,396.800 2.306 C 398.064 4.922,398.064 395.320,396.800 397.800 C 395.705 399.949,395.733 400.000,398.000 400.000 L 400.000 400.000 400.000 200.000 L 400.000 0.000 398.000 0.000 C 396.900 0.000,396.000 0.146,396.000 0.325 M140.000 75.034 C 127.607 76.526,125.606 78.449,125.602 88.877 C 125.599 96.709,125.866 96.940,132.648 94.975 C 146.170 91.056,157.711 93.901,164.486 102.821 C 165.840 104.603,169.600 111.865,169.600 112.697 C 169.600 113.049,169.851 113.621,170.157 113.969 C 170.724 114.613,172.319 118.403,173.373 121.616 C 173.695 122.597,174.532 124.930,175.232 126.800 C 177.308 132.345,180.420 141.182,181.429 144.400 C 181.946 146.050,182.651 148.180,182.994 149.133 C 183.675 151.023,183.621 151.353,181.857 156.000 C 179.369 162.554,177.519 167.115,176.826 168.400 C 176.411 169.170,175.767 170.880,175.395 172.200 C 175.022 173.520,174.500 174.960,174.234 175.400 C 173.968 175.840,173.242 177.640,172.620 179.400 C 171.999 181.160,171.072 183.410,170.562 184.400 C 170.051 185.390,169.286 187.190,168.863 188.400 C 167.420 192.522,165.317 197.796,164.317 199.800 C 163.768 200.900,163.100 202.700,162.833 203.800 C 162.566 204.900,162.118 206.160,161.837 206.600 C 161.556 207.040,160.723 209.020,159.987 211.000 C 159.251 212.980,158.405 214.985,158.107 215.457 C 157.809 215.928,157.135 217.638,156.610 219.257 C 155.638 222.255,152.011 231.301,151.238 232.654 C 151.004 233.064,150.467 234.390,150.044 235.600 C 148.274 240.662,146.680 244.746,145.595 247.000 C 144.960 248.320,144.240 250.181,143.995 251.136 C 143.750 252.090,143.224 253.530,142.825 254.336 C 142.426 255.141,141.509 257.330,140.786 259.200 C 140.063 261.070,139.307 262.814,139.106 263.077 C 138.905 263.339,138.405 264.599,137.994 265.877 C 137.160 268.475,133.434 277.799,132.778 278.930 C 132.546 279.332,131.986 280.862,131.536 282.330 C 131.085 283.799,130.573 285.180,130.398 285.400 C 130.223 285.620,129.414 287.600,128.601 289.800 C 127.788 292.000,126.885 294.176,126.594 294.636 C 126.303 295.096,125.856 296.266,125.600 297.236 C 125.344 298.206,124.794 299.720,124.379 300.600 C 123.964 301.480,122.971 303.910,122.172 306.000 C 121.374 308.090,120.479 310.250,120.184 310.800 C 119.889 311.350,119.343 312.790,118.971 314.000 C 118.599 315.210,118.158 316.380,117.992 316.600 C 115.991 319.251,115.258 323.767,116.564 325.400 L 117.524 326.600 126.112 326.739 C 141.873 326.994,142.058 326.901,145.600 316.940 C 146.996 313.013,148.357 309.440,148.624 309.000 C 148.891 308.560,149.334 307.210,149.609 306.000 C 149.883 304.790,150.333 303.350,150.609 302.800 C 150.886 302.250,151.851 299.660,152.754 297.043 C 153.657 294.427,154.579 292.067,154.802 291.797 C 155.026 291.528,155.553 290.068,155.973 288.554 C 157.027 284.756,160.222 275.850,160.935 274.725 C 161.257 274.216,161.718 272.846,161.960 271.680 C 162.202 270.514,162.666 269.046,162.991 268.417 C 163.317 267.788,164.239 265.322,165.041 262.937 C 165.844 260.552,166.767 258.077,167.093 257.437 C 167.419 256.798,168.012 255.178,168.411 253.837 C 169.392 250.540,172.913 240.887,173.677 239.400 C 174.016 238.740,174.421 237.480,174.578 236.600 C 174.735 235.720,175.225 234.190,175.668 233.200 C 176.110 232.210,176.912 230.071,177.449 228.448 C 177.986 226.824,178.854 224.574,179.377 223.448 C 179.900 222.321,180.688 220.140,181.129 218.600 C 181.569 217.060,182.779 213.550,183.816 210.800 C 184.854 208.050,186.055 204.720,186.486 203.400 C 186.916 202.080,187.526 200.403,187.840 199.673 C 188.155 198.944,189.061 196.334,189.853 193.873 C 193.104 183.784,195.794 183.244,198.188 192.200 C 198.718 194.180,199.587 197.430,200.120 199.422 C 200.653 201.415,201.312 203.461,201.584 203.970 C 201.857 204.480,202.783 207.259,203.643 210.148 C 204.502 213.037,205.466 216.030,205.784 216.800 C 206.102 217.570,206.571 219.280,206.827 220.600 C 207.083 221.920,207.608 223.630,207.992 224.400 C 208.377 225.170,209.269 227.780,209.973 230.200 C 210.678 232.620,211.578 235.500,211.973 236.600 C 212.369 237.700,212.822 239.314,212.981 240.186 C 213.139 241.059,213.553 242.319,213.901 242.986 C 214.507 244.150,216.994 252.026,219.021 259.200 C 219.549 261.070,220.696 264.760,221.571 267.400 C 222.445 270.040,223.459 273.100,223.822 274.200 C 224.186 275.300,224.888 277.731,225.381 279.603 C 225.875 281.475,226.555 283.545,226.893 284.203 C 227.230 284.861,228.078 287.427,228.777 289.904 C 229.477 292.382,230.384 295.172,230.793 296.104 C 231.202 297.037,231.664 298.520,231.821 299.400 C 231.977 300.280,232.261 301.198,232.452 301.441 C 232.644 301.684,233.598 303.754,234.574 306.041 C 241.940 323.314,249.362 328.341,267.711 328.487 C 277.767 328.566,282.108 327.634,283.487 325.099 C 284.735 322.805,284.742 311.373,283.496 309.850 L 282.556 308.701 279.378 309.126 C 277.240 309.412,275.185 309.425,273.100 309.165 C 266.105 308.291,261.466 304.269,257.688 295.800 C 256.015 292.049,255.444 290.432,252.753 281.800 C 251.861 278.940,250.960 276.240,250.751 275.800 C 250.542 275.359,250.030 273.739,249.613 272.200 C 249.196 270.660,247.845 266.430,246.610 262.800 C 245.375 259.170,243.928 254.670,243.395 252.800 C 242.862 250.930,241.807 247.600,241.050 245.400 C 238.816 238.900,237.999 236.362,237.190 233.400 C 236.769 231.860,235.802 228.800,235.041 226.600 C 232.770 220.032,231.596 216.338,230.974 213.800 C 230.651 212.480,230.041 210.590,229.620 209.600 C 229.198 208.610,227.845 204.560,226.613 200.600 C 225.381 196.640,224.098 192.590,223.762 191.600 C 220.687 182.531,218.449 175.407,218.170 173.800 C 218.017 172.920,217.563 171.546,217.161 170.746 C 216.759 169.946,215.792 167.156,215.011 164.546 C 214.230 161.936,213.327 159.170,213.005 158.400 C 212.682 157.630,212.156 155.920,211.834 154.600 C 211.513 153.280,210.092 148.780,208.677 144.600 C 207.262 140.420,205.985 136.460,205.841 135.800 C 205.697 135.140,204.968 132.890,204.222 130.800 C 202.716 126.582,200.697 120.465,199.798 117.400 C 199.476 116.300,198.019 112.700,196.562 109.400 C 195.105 106.100,193.676 102.770,193.386 102.000 C 192.887 100.672,190.365 96.340,187.798 92.400 C 183.648 86.029,177.485 80.495,172.000 78.212 C 170.570 77.617,169.035 76.899,168.590 76.615 C 166.014 74.976,148.525 74.009,140.000 75.034 " stroke="none" fill="#40444b" fill-rule="evenodd"></path><path id="path2" d="M15.606 23.200 C 13.395 23.935,12.883 25.512,14.510 26.578 C 15.914 27.498,384.012 27.546,385.415 26.627 C 386.618 25.838,386.286 24.168,384.769 23.384 C 383.026 22.483,18.311 22.301,15.606 23.200 M16.200 73.200 C 14.599 74.000,14.357 75.691,15.714 76.581 C 17.010 77.430,121.378 77.540,123.151 76.694 C 124.526 76.039,124.844 73.866,123.657 73.231 C 122.254 72.480,17.700 72.450,16.200 73.200 M197.779 73.113 C 196.511 73.777,196.381 76.148,197.577 76.788 C 198.988 77.543,383.111 77.350,384.268 76.592 C 385.494 75.789,385.490 74.209,384.261 73.403 C 382.965 72.554,199.391 72.268,197.779 73.113 M16.200 123.200 C 14.595 124.003,14.357 125.691,15.723 126.586 C 17.022 127.437,167.447 127.552,168.807 126.703 C 169.946 125.992,169.880 123.883,168.700 123.260 C 167.184 122.460,17.797 122.401,16.200 123.200 M298.040 122.701 C 236.639 122.775,213.734 122.923,213.340 123.250 C 212.637 123.833,212.643 126.172,213.349 126.757 C 214.308 127.553,383.043 127.395,384.260 126.597 C 385.943 125.495,385.404 123.649,383.187 122.923 C 382.644 122.745,344.328 122.645,298.040 122.701 M16.200 173.200 C 14.602 173.999,14.356 175.691,15.709 176.577 C 17.009 177.429,161.361 177.548,163.141 176.699 C 164.606 176.001,164.786 174.271,163.483 173.418 C 162.046 172.476,18.073 172.263,16.200 173.200 M228.600 173.200 C 227.003 173.999,226.756 175.691,228.109 176.577 C 229.551 177.522,382.825 177.538,384.267 176.593 C 385.494 175.789,385.491 174.209,384.259 173.402 C 382.844 172.475,230.446 172.277,228.600 173.200 M16.200 223.200 C 14.598 224.001,14.357 225.691,15.717 226.583 C 17.249 227.586,144.547 227.553,145.657 226.549 C 146.603 225.693,146.609 224.313,145.671 223.464 C 144.604 222.499,18.119 222.240,16.200 223.200 M185.143 223.081 C 183.642 223.712,183.477 226.092,184.883 226.844 C 186.118 227.505,201.070 227.512,202.303 226.852 C 203.509 226.206,203.569 223.826,202.395 223.197 C 201.216 222.566,186.601 222.467,185.143 223.081 M312.361 222.800 C 237.082 223.016,241.200 222.886,241.200 225.040 C 241.200 227.351,236.702 227.215,313.200 227.216 C 389.701 227.216,385.200 227.352,385.200 225.040 C 385.200 223.985,384.644 223.400,383.187 222.923 C 382.644 222.745,350.773 222.690,312.361 222.800 M16.200 273.200 C 14.602 273.999,14.356 275.691,15.710 276.578 C 16.680 277.213,126.097 277.598,127.729 276.972 C 128.986 276.490,128.869 273.879,127.559 273.178 C 126.199 272.450,17.657 272.472,16.200 273.200 M168.345 272.823 C 165.893 273.221,164.875 275.770,166.764 276.781 C 167.844 277.359,217.327 277.374,218.406 276.797 C 219.392 276.269,219.434 274.778,218.496 273.619 L 217.792 272.749 193.754 272.675 C 180.534 272.634,169.100 272.700,168.345 272.823 M258.200 272.733 C 255.729 273.008,254.700 275.392,256.534 276.593 C 257.954 277.524,382.845 277.524,384.266 276.593 C 385.500 275.785,385.491 274.209,384.248 273.395 C 383.377 272.824,263.062 272.193,258.200 272.733 M16.200 323.200 C 14.594 324.003,14.357 325.691,15.725 326.587 C 16.928 327.376,105.741 327.581,107.204 326.798 C 108.119 326.308,108.328 323.860,107.500 323.324 C 106.466 322.654,17.532 322.534,16.200 323.200 M149.543 323.081 C 148.096 323.689,147.874 326.090,149.200 326.800 C 149.754 327.097,163.741 327.228,194.800 327.228 C 225.859 327.228,239.846 327.097,240.400 326.800 C 241.727 326.090,241.270 323.887,239.662 323.236 C 238.051 322.584,151.079 322.434,149.543 323.081 M291.600 322.717 C 288.893 323.032,287.670 325.502,289.618 326.718 C 290.971 327.564,382.958 327.450,384.254 326.602 C 385.491 325.791,385.497 324.213,384.265 323.406 C 383.424 322.855,295.989 322.205,291.600 322.717 M16.279 372.834 C 13.295 373.319,12.521 375.590,14.989 376.621 C 17.102 377.504,383.062 377.499,384.769 376.616 C 386.286 375.832,386.618 374.162,385.415 373.373 C 384.510 372.780,19.885 372.248,16.279 372.834 " stroke="none" fill="#a4cc8f" fill-rule="evenodd"></path><path id="path3" d="M14.400 21.884 C 12.203 22.692,11.595 25.905,13.331 27.535 L 14.262 28.410 199.512 28.403 C 306.684 28.398,385.156 28.245,385.697 28.039 C 388.118 27.119,388.310 24.037,386.041 22.513 L 384.682 21.600 199.841 21.632 C 98.178 21.649,14.730 21.762,14.400 21.884 M384.769 23.384 C 386.286 24.168,386.618 25.838,385.415 26.627 C 384.012 27.546,15.914 27.498,14.510 26.578 C 12.883 25.512,13.395 23.935,15.606 23.200 C 18.311 22.301,383.026 22.483,384.769 23.384 M14.182 72.582 C 13.504 73.260,13.200 74.008,13.200 75.000 C 13.200 75.992,13.504 76.740,14.182 77.418 L 15.164 78.400 67.682 78.484 C 96.567 78.531,120.801 78.554,121.536 78.536 C 123.196 78.494,124.789 77.352,125.681 75.565 C 126.571 73.781,126.566 73.730,125.418 72.582 L 124.436 71.600 69.800 71.600 L 15.164 71.600 14.182 72.582 M196.943 71.997 C 194.799 72.862,194.235 75.298,195.765 77.078 L 196.731 78.200 289.265 78.316 C 340.159 78.380,382.578 78.322,383.529 78.187 C 386.736 77.733,387.964 74.727,385.818 72.582 L 384.836 71.600 291.318 71.625 C 239.715 71.639,197.416 71.806,196.943 71.997 M123.657 73.231 C 124.844 73.866,124.526 76.039,123.151 76.694 C 121.378 77.540,17.010 77.430,15.714 76.581 C 14.357 75.691,14.599 74.000,16.200 73.200 C 17.700 72.450,122.254 72.480,123.657 73.231 M384.261 73.403 C 385.490 74.209,385.494 75.789,384.268 76.592 C 383.111 77.350,198.988 77.543,197.577 76.788 C 196.381 76.148,196.511 73.777,197.779 73.113 C 199.391 72.268,382.965 72.554,384.261 73.403 M90.400 121.597 C 49.150 121.709,15.080 121.956,14.689 122.147 C 13.080 122.932,12.690 125.682,13.965 127.256 L 14.729 128.200 91.265 128.400 C 133.359 128.510,168.299 128.446,168.908 128.258 C 172.820 127.051,170.641 120.906,166.440 121.297 C 165.868 121.350,131.650 121.485,90.400 121.597 M212.277 122.719 C 210.873 124.186,210.834 126.071,212.182 127.418 L 213.164 128.400 299.000 128.400 L 384.836 128.400 385.842 127.394 C 387.229 126.007,387.059 123.820,385.471 122.640 L 384.341 121.800 298.848 121.697 L 213.355 121.595 212.277 122.719 M168.700 123.260 C 169.880 123.883,169.946 125.992,168.807 126.703 C 167.447 127.552,17.022 127.437,15.723 126.586 C 14.357 125.691,14.595 124.003,16.200 123.200 C 17.797 122.401,167.184 122.460,168.700 123.260 M384.687 123.672 C 385.517 124.361,385.290 125.923,384.260 126.597 C 383.043 127.395,214.308 127.553,213.349 126.757 C 212.643 126.172,212.637 123.833,213.340 123.250 C 213.982 122.717,381.572 122.394,383.187 122.923 C 383.730 123.101,384.405 123.438,384.687 123.672 M14.182 172.582 C 13.504 173.260,13.200 174.008,13.200 175.000 C 13.200 175.992,13.504 176.740,14.182 177.418 L 15.164 178.400 89.600 178.400 L 164.036 178.400 165.018 177.418 C 166.354 176.082,166.354 173.918,165.018 172.582 L 164.036 171.600 89.600 171.600 L 15.164 171.600 14.182 172.582 M226.431 172.636 C 225.511 173.409,225.200 174.007,225.200 175.000 C 225.200 175.993,225.511 176.591,226.431 177.364 L 227.661 178.400 305.331 178.398 C 357.781 178.396,383.486 178.261,384.495 177.980 C 386.971 177.293,387.671 174.435,385.818 172.582 L 384.836 171.600 306.249 171.600 L 227.661 171.600 226.431 172.636 M163.483 173.418 C 164.786 174.271,164.606 176.001,163.141 176.699 C 161.361 177.548,17.009 177.429,15.709 176.577 C 14.356 175.691,14.602 173.999,16.200 173.200 C 18.073 172.263,162.046 172.476,163.483 173.418 M384.259 173.402 C 385.491 174.209,385.494 175.789,384.267 176.593 C 382.825 177.538,229.551 177.522,228.109 176.577 C 226.756 175.691,227.003 173.999,228.600 173.200 C 230.446 172.277,382.844 172.475,384.259 173.402 M185.159 221.610 C 182.997 222.120,181.667 226.067,183.155 227.555 C 183.969 228.369,184.359 228.400,193.790 228.400 L 203.579 228.400 204.152 227.293 C 205.121 225.419,204.070 222.334,202.264 221.753 C 201.249 221.427,186.457 221.303,185.159 221.610 M15.400 222.025 C 13.023 222.737,12.373 225.610,14.182 227.418 L 15.164 228.400 79.282 228.484 C 114.547 228.531,144.021 228.552,144.780 228.532 C 147.674 228.454,149.079 224.754,146.968 222.770 L 145.936 221.800 81.268 221.733 C 43.950 221.694,16.093 221.817,15.400 222.025 M241.612 222.110 C 239.263 223.303,239.046 227.544,241.302 228.148 C 241.796 228.281,274.293 228.392,313.518 228.395 L 384.836 228.400 385.842 227.394 C 387.229 226.007,387.059 223.820,385.471 222.640 L 384.341 221.800 313.471 221.704 C 257.285 221.628,242.395 221.712,241.612 222.110 M145.671 223.464 C 146.609 224.313,146.603 225.693,145.657 226.549 C 144.547 227.553,17.249 227.586,15.717 226.583 C 14.357 225.691,14.598 224.001,16.200 223.200 C 18.119 222.240,144.604 222.499,145.671 223.464 M202.395 223.197 C 203.569 223.826,203.509 226.206,202.303 226.852 C 201.070 227.512,186.118 227.505,184.883 226.844 C 183.477 226.092,183.642 223.712,185.143 223.081 C 186.601 222.467,201.216 222.566,202.395 223.197 M384.687 223.672 C 385.518 224.362,385.289 225.923,384.258 226.599 C 382.822 227.540,243.578 227.539,242.142 226.599 C 241.039 225.876,240.899 224.348,241.861 223.549 C 242.615 222.924,381.312 222.309,383.187 222.923 C 383.730 223.101,384.405 223.438,384.687 223.672 M166.352 272.088 C 164.407 273.270,164.183 276.967,166.000 277.890 C 167.160 278.479,219.277 278.456,219.867 277.867 C 220.680 277.054,220.222 273.640,219.158 272.576 L 218.116 271.534 192.799 271.467 C 169.496 271.405,167.393 271.455,166.352 272.088 M256.032 271.684 C 253.924 272.808,254.069 276.956,256.252 277.951 C 257.635 278.581,382.142 278.608,384.480 277.978 C 386.966 277.309,387.677 274.441,385.818 272.582 L 384.836 271.600 322.674 271.600 C 288.485 271.600,259.722 271.503,258.756 271.384 C 257.683 271.251,256.623 271.368,256.032 271.684 M14.182 272.582 C 13.504 273.260,13.200 274.008,13.200 275.000 C 13.200 275.992,13.504 276.740,14.182 277.418 L 15.164 278.400 69.882 278.486 C 133.695 278.587,127.945 278.694,129.100 277.380 C 130.276 276.042,130.326 273.526,129.200 272.400 C 128.408 271.608,127.867 271.600,71.782 271.600 L 15.164 271.600 14.182 272.582 M127.559 273.178 C 128.869 273.879,128.986 276.490,127.729 276.972 C 126.097 277.598,16.680 277.213,15.710 276.578 C 14.356 275.691,14.602 273.999,16.200 273.200 C 17.657 272.472,126.199 272.450,127.559 273.178 M218.496 273.619 C 219.434 274.778,219.392 276.269,218.406 276.797 C 217.327 277.374,167.844 277.359,166.764 276.781 C 165.886 276.311,165.687 273.841,166.486 273.347 C 167.565 272.680,170.679 272.603,193.754 272.675 L 217.792 272.749 218.496 273.619 M384.248 273.395 C 385.491 274.209,385.500 275.785,384.266 276.593 C 382.845 277.524,257.954 277.524,256.534 276.593 C 254.700 275.392,255.729 273.008,258.200 272.733 C 263.062 272.193,383.377 272.824,384.248 273.395 M149.714 321.526 C 147.337 321.864,145.924 325.924,147.600 327.600 C 148.391 328.391,148.933 328.400,194.725 328.400 L 241.049 328.400 241.964 327.548 C 243.585 326.037,241.311 321.611,238.906 321.595 C 223.080 321.494,150.337 321.437,149.714 321.526 M289.440 321.720 C 288.238 322.121,287.507 323.828,287.673 325.849 C 287.914 328.785,284.761 328.625,337.935 328.400 L 385.271 328.200 386.035 327.256 C 387.783 325.097,386.474 322.325,383.459 321.803 C 381.420 321.450,290.491 321.369,289.440 321.720 M15.400 322.026 C 13.023 322.735,12.373 325.610,14.182 327.418 L 15.164 328.400 61.328 328.400 C 106.750 328.400,107.508 328.387,108.500 327.607 C 110.418 326.099,110.349 323.208,108.371 322.185 C 107.059 321.507,17.655 321.354,15.400 322.026 M107.500 323.324 C 108.328 323.860,108.119 326.308,107.204 326.798 C 105.741 327.581,16.928 327.376,15.725 326.587 C 14.357 325.691,14.594 324.003,16.200 323.200 C 17.532 322.534,106.466 322.654,107.500 323.324 M239.662 323.236 C 241.270 323.887,241.727 326.090,240.400 326.800 C 239.846 327.097,225.859 327.228,194.800 327.228 C 163.741 327.228,149.754 327.097,149.200 326.800 C 147.874 326.090,148.096 323.689,149.543 323.081 C 151.079 322.434,238.051 322.584,239.662 323.236 M384.265 323.406 C 385.497 324.213,385.491 325.791,384.254 326.602 C 382.958 327.450,290.971 327.564,289.618 326.718 C 287.670 325.502,288.893 323.032,291.600 322.717 C 295.989 322.205,383.424 322.855,384.265 323.406 M14.400 371.883 C 12.267 372.670,11.586 375.939,13.242 377.438 C 14.067 378.185,17.801 378.202,199.381 378.301 L 384.678 378.403 386.039 377.488 C 387.792 376.311,388.164 373.834,386.777 372.579 C 385.937 371.819,16.448 371.128,14.400 371.883 M385.415 373.373 C 386.618 374.162,386.286 375.832,384.769 376.616 C 383.062 377.499,17.102 377.504,14.989 376.621 C 12.521 375.590,13.295 373.319,16.279 372.834 C 19.885 372.248,384.510 372.780,385.415 373.373 " stroke="none" fill="#8cc464" fill-rule="evenodd"></path><path id="path4" d="M3.295 1.962 L 2.395 3.924 2.395 200.000 L 2.395 396.076 3.295 398.038 L 4.195 400.000 200.000 400.000 L 395.805 400.000 396.702 398.043 L 397.600 396.087 397.600 200.075 L 397.600 4.062 396.700 2.032 L 395.800 0.001 199.998 0.001 L 4.195 0.000 3.295 1.962 M394.698 1.782 C 394.971 1.887,395.556 2.564,395.996 3.287 C 397.124 5.136,397.284 394.260,396.158 396.632 C 395.074 398.917,406.064 398.795,199.950 398.798 C -5.883 398.800,5.092 398.898,3.960 397.042 C 2.756 395.067,2.772 4.906,3.977 2.931 C 4.412 2.217,5.155 1.605,5.675 1.531 C 7.156 1.321,394.147 1.571,394.698 1.782 M145.200 73.445 C 144.210 73.533,141.780 73.880,139.800 74.216 C 126.143 76.533,125.174 77.407,124.877 87.690 C 124.591 97.594,124.924 97.899,133.600 95.665 C 151.834 90.968,162.200 96.277,169.399 114.000 C 172.016 120.440,174.168 126.066,175.215 129.200 C 177.170 135.049,179.921 142.706,180.372 143.548 C 182.486 147.498,182.529 153.291,180.475 157.400 C 179.708 158.934,176.633 166.505,175.195 170.400 C 174.585 172.050,173.151 175.650,172.007 178.400 C 170.863 181.150,169.426 184.750,168.813 186.400 C 168.201 188.050,166.766 191.650,165.625 194.400 C 164.484 197.150,163.123 200.570,162.600 202.000 C 162.077 203.430,160.716 206.850,159.575 209.600 C 158.434 212.350,157.005 215.950,156.400 217.600 C 154.895 221.706,151.594 229.711,151.204 230.200 C 151.029 230.420,150.523 231.770,150.078 233.200 C 149.634 234.630,148.255 238.230,147.013 241.200 C 145.772 244.170,144.329 247.770,143.807 249.200 C 143.285 250.630,141.843 254.230,140.602 257.200 C 139.361 260.170,138.027 263.590,137.638 264.800 C 137.248 266.010,136.640 267.557,136.287 268.237 C 135.934 268.917,134.987 271.167,134.183 273.237 C 129.277 285.868,127.491 290.338,126.449 292.600 C 126.043 293.480,125.399 295.280,125.018 296.600 C 124.636 297.920,124.157 299.203,123.953 299.452 C 123.501 300.002,119.836 308.951,118.813 312.000 C 118.407 313.210,117.422 315.730,116.624 317.600 C 112.581 327.069,114.789 328.361,133.667 327.571 C 142.363 327.207,143.321 326.411,146.624 316.800 C 147.343 314.710,148.299 312.100,148.748 311.000 C 149.198 309.900,149.917 307.920,150.345 306.600 C 150.774 305.280,151.976 301.860,153.017 299.000 C 154.058 296.140,155.264 292.720,155.697 291.400 C 156.130 290.080,157.002 287.650,157.635 286.000 C 160.455 278.645,161.700 275.262,162.269 273.400 C 162.605 272.300,163.466 269.870,164.181 268.000 C 164.896 266.130,166.245 262.440,167.179 259.800 C 168.935 254.835,169.650 252.865,172.411 245.400 C 173.306 242.980,174.466 239.650,174.990 238.000 C 175.514 236.350,176.869 232.570,178.002 229.600 C 179.135 226.630,180.653 222.490,181.375 220.400 C 184.685 210.827,185.538 208.464,185.986 207.626 C 186.251 207.131,186.891 205.348,187.409 203.663 C 192.682 186.510,195.218 183.800,197.428 192.959 C 197.805 194.521,198.442 196.647,198.844 197.682 C 199.246 198.717,199.855 200.787,200.198 202.282 C 200.541 203.777,201.169 205.900,201.593 207.000 C 202.018 208.100,203.287 211.970,204.414 215.600 C 205.540 219.230,207.792 226.340,209.417 231.400 C 211.041 236.460,212.566 241.410,212.805 242.400 C 213.043 243.390,213.573 245.100,213.983 246.200 C 215.013 248.967,218.703 260.650,219.164 262.600 C 219.371 263.480,219.904 265.190,220.347 266.400 C 220.791 267.610,222.073 271.570,223.198 275.200 C 227.695 289.719,228.913 293.525,229.982 296.400 C 230.596 298.050,231.226 299.940,231.382 300.600 C 232.199 304.060,237.285 314.288,239.835 317.600 C 246.948 326.838,255.141 330.004,270.590 329.483 C 283.666 329.042,285.388 327.614,285.396 317.200 C 285.402 308.157,285.470 308.231,277.200 308.213 C 265.954 308.188,259.937 302.883,256.152 289.658 C 255.796 288.416,254.287 283.710,252.798 279.200 C 251.309 274.690,249.959 270.370,249.797 269.600 C 249.636 268.830,249.095 267.120,248.594 265.800 C 247.414 262.685,244.194 252.716,243.620 250.400 C 243.375 249.410,242.655 247.160,242.021 245.400 C 241.386 243.640,240.025 239.500,238.995 236.200 C 237.966 232.900,236.863 229.390,236.543 228.400 C 235.685 225.739,232.958 217.357,232.053 214.600 C 231.620 213.280,229.802 207.610,228.013 202.000 C 226.224 196.390,223.329 187.437,221.580 182.105 C 219.831 176.772,218.400 172.125,218.400 171.779 C 218.400 171.432,218.055 170.305,217.633 169.274 C 216.997 167.718,214.358 159.614,211.880 151.600 C 211.342 149.863,209.489 144.168,203.809 126.800 C 197.900 108.732,194.724 101.522,188.536 92.121 C 186.659 89.270,180.800 82.462,179.877 82.059 C 179.699 81.981,178.709 81.269,177.677 80.477 C 171.235 75.530,156.831 72.411,145.200 73.445 M162.990 75.421 C 165.624 75.794,168.144 76.331,168.590 76.615 C 169.035 76.899,170.570 77.617,172.000 78.212 C 177.485 80.495,183.648 86.029,187.798 92.400 C 190.365 96.340,192.887 100.672,193.386 102.000 C 193.676 102.770,195.105 106.100,196.562 109.400 C 198.019 112.700,199.476 116.300,199.798 117.400 C 200.697 120.465,202.716 126.582,204.222 130.800 C 204.968 132.890,205.697 135.140,205.841 135.800 C 205.985 136.460,207.262 140.420,208.677 144.600 C 210.092 148.780,211.513 153.280,211.834 154.600 C 212.156 155.920,212.682 157.630,213.005 158.400 C 213.327 159.170,214.230 161.936,215.011 164.546 C 215.792 167.156,216.759 169.946,217.161 170.746 C 217.563 171.546,218.017 172.920,218.170 173.800 C 218.449 175.407,220.687 182.531,223.762 191.600 C 224.098 192.590,225.381 196.640,226.613 200.600 C 227.845 204.560,229.198 208.610,229.620 209.600 C 230.041 210.590,230.651 212.480,230.974 213.800 C 231.596 216.338,232.770 220.032,235.041 226.600 C 235.802 228.800,236.769 231.860,237.190 233.400 C 237.999 236.362,238.816 238.900,241.050 245.400 C 241.807 247.600,242.862 250.930,243.395 252.800 C 243.928 254.670,245.375 259.170,246.610 262.800 C 247.845 266.430,249.196 270.660,249.613 272.200 C 250.030 273.739,250.542 275.359,250.751 275.800 C 250.960 276.240,251.861 278.940,252.753 281.800 C 255.444 290.432,256.015 292.049,257.688 295.800 C 261.466 304.269,266.105 308.291,273.100 309.165 C 275.185 309.425,277.240 309.412,279.378 309.126 L 282.556 308.701 283.496 309.850 C 284.742 311.373,284.735 322.805,283.487 325.099 C 282.108 327.634,277.767 328.566,267.711 328.487 C 249.362 328.341,241.940 323.314,234.574 306.041 C 233.598 303.754,232.644 301.684,232.452 301.441 C 232.261 301.198,231.977 300.280,231.821 299.400 C 231.664 298.520,231.202 297.037,230.793 296.104 C 230.384 295.172,229.477 292.382,228.777 289.904 C 228.078 287.427,227.230 284.861,226.893 284.203 C 226.555 283.545,225.875 281.475,225.381 279.603 C 224.888 277.731,224.186 275.300,223.822 274.200 C 223.459 273.100,222.445 270.040,221.571 267.400 C 220.696 264.760,219.549 261.070,219.021 259.200 C 216.994 252.026,214.507 244.150,213.901 242.986 C 213.553 242.319,213.139 241.059,212.981 240.186 C 212.822 239.314,212.369 237.700,211.973 236.600 C 211.578 235.500,210.678 232.620,209.973 230.200 C 209.269 227.780,208.377 225.170,207.992 224.400 C 207.608 223.630,207.083 221.920,206.827 220.600 C 206.571 219.280,206.102 217.570,205.784 216.800 C 205.466 216.030,204.502 213.037,203.643 210.148 C 202.783 207.259,201.857 204.480,201.584 203.970 C 201.312 203.461,200.653 201.415,200.120 199.422 C 199.587 197.430,198.718 194.180,198.188 192.200 C 195.794 183.244,193.104 183.784,189.853 193.873 C 189.061 196.334,188.155 198.944,187.840 199.673 C 187.526 200.403,186.916 202.080,186.486 203.400 C 186.055 204.720,184.854 208.050,183.816 210.800 C 182.779 213.550,181.569 217.060,181.129 218.600 C 180.688 220.140,179.900 222.321,179.377 223.448 C 178.854 224.574,177.986 226.824,177.449 228.448 C 176.912 230.071,176.110 232.210,175.668 233.200 C 175.225 234.190,174.735 235.720,174.578 236.600 C 174.421 237.480,174.016 238.740,173.677 239.400 C 172.913 240.887,169.392 250.540,168.411 253.837 C 168.012 255.178,167.419 256.798,167.093 257.437 C 166.767 258.077,165.844 260.552,165.041 262.937 C 164.239 265.322,163.317 267.788,162.991 268.417 C 162.666 269.046,162.202 270.514,161.960 271.680 C 161.718 272.846,161.257 274.216,160.935 274.725 C 160.222 275.850,157.027 284.756,155.973 288.554 C 155.553 290.068,155.026 291.528,154.802 291.797 C 154.579 292.067,153.657 294.427,152.754 297.043 C 151.851 299.660,150.886 302.250,150.609 302.800 C 150.333 303.350,149.883 304.790,149.609 306.000 C 149.334 307.210,148.891 308.560,148.624 309.000 C 148.357 309.440,146.996 313.013,145.600 316.940 C 142.058 326.901,141.873 326.994,126.112 326.739 L 117.524 326.600 116.564 325.400 C 115.258 323.767,115.991 319.251,117.992 316.600 C 118.158 316.380,118.599 315.210,118.971 314.000 C 119.343 312.790,119.889 311.350,120.184 310.800 C 120.479 310.250,121.374 308.090,122.172 306.000 C 122.971 303.910,123.964 301.480,124.379 300.600 C 124.794 299.720,125.344 298.206,125.600 297.236 C 125.856 296.266,126.303 295.096,126.594 294.636 C 126.885 294.176,127.788 292.000,128.601 289.800 C 129.414 287.600,130.223 285.620,130.398 285.400 C 130.573 285.180,131.085 283.799,131.536 282.330 C 131.986 280.862,132.546 279.332,132.778 278.930 C 133.434 277.799,137.160 268.475,137.994 265.877 C 138.405 264.599,138.905 263.339,139.106 263.077 C 139.307 262.814,140.063 261.070,140.786 259.200 C 141.509 257.330,142.426 255.141,142.825 254.336 C 143.224 253.530,143.750 252.090,143.995 251.136 C 144.240 250.181,144.960 248.320,145.595 247.000 C 146.680 244.746,148.274 240.662,150.044 235.600 C 150.467 234.390,151.004 233.064,151.238 232.654 C 152.011 231.301,155.638 222.255,156.610 219.257 C 157.135 217.638,157.809 215.928,158.107 215.457 C 158.405 214.985,159.251 212.980,159.987 211.000 C 160.723 209.020,161.556 207.040,161.837 206.600 C 162.118 206.160,162.566 204.900,162.833 203.800 C 163.100 202.700,163.768 200.900,164.317 199.800 C 165.317 197.796,167.420 192.522,168.863 188.400 C 169.286 187.190,170.051 185.390,170.562 184.400 C 171.072 183.410,171.999 181.160,172.620 179.400 C 173.242 177.640,173.968 175.840,174.234 175.400 C 174.500 174.960,175.022 173.520,175.395 172.200 C 175.767 170.880,176.411 169.170,176.826 168.400 C 177.519 167.115,179.369 162.554,181.857 156.000 C 183.621 151.353,183.675 151.023,182.994 149.133 C 182.651 148.180,181.946 146.050,181.429 144.400 C 180.420 141.182,177.308 132.345,175.232 126.800 C 174.532 124.930,173.695 122.597,173.373 121.616 C 172.319 118.403,170.724 114.613,170.157 113.969 C 169.851 113.621,169.600 113.049,169.600 112.697 C 169.600 111.865,165.840 104.603,164.486 102.821 C 157.711 93.901,146.170 91.056,132.648 94.975 C 125.866 96.940,125.599 96.709,125.602 88.877 C 125.605 81.897,125.932 80.444,127.861 78.854 C 132.625 74.927,148.524 73.373,162.990 75.421 " stroke="none" fill="#5c7444" fill-rule="evenodd"></path><path id="path5" d="M5.675 1.531 C 5.155 1.605,4.412 2.217,3.977 2.931 C 2.772 4.906,2.756 395.067,3.960 397.042 C 5.092 398.898,-5.883 398.800,199.950 398.798 C 406.064 398.795,395.074 398.917,396.158 396.632 C 397.284 394.260,397.124 5.136,395.996 3.287 C 395.556 2.564,394.971 1.887,394.698 1.782 C 394.147 1.571,7.156 1.321,5.675 1.531 M394.155 2.383 C 394.709 2.593,395.440 3.304,395.781 3.963 C 396.337 5.039,396.400 24.952,396.400 200.411 L 396.400 395.662 395.231 396.831 L 394.062 398.000 200.063 398.000 C 93.365 398.000,5.774 397.888,5.418 397.752 C 3.488 397.011,3.600 409.172,3.600 200.000 C 3.600 -7.698,3.509 2.985,5.292 2.268 C 6.273 1.873,393.115 1.987,394.155 2.383 M143.200 73.065 C 125.952 75.427,124.007 77.319,124.461 91.293 C 124.676 97.923,125.410 98.261,134.600 95.963 C 152.332 91.529,162.131 96.943,169.418 115.200 C 172.337 122.514,174.290 127.755,176.870 135.200 C 178.433 139.710,180.160 144.660,180.707 146.200 C 181.264 147.769,181.700 149.880,181.698 151.000 C 181.695 153.052,181.561 153.449,178.002 162.000 C 176.857 164.750,175.576 167.990,175.155 169.200 C 174.734 170.410,173.860 172.660,173.213 174.200 C 169.791 182.346,168.800 184.839,168.804 185.296 C 168.812 186.316,172.260 178.268,175.187 170.400 C 176.674 166.401,179.727 158.896,180.475 157.400 C 182.529 153.291,182.486 147.498,180.372 143.548 C 179.921 142.706,177.170 135.049,175.215 129.200 C 174.168 126.066,172.016 120.440,169.399 114.000 C 162.200 96.277,151.834 90.968,133.600 95.665 C 124.924 97.899,124.591 97.594,124.877 87.690 C 125.087 80.420,125.321 79.695,128.142 77.564 C 131.307 75.174,140.523 73.468,150.200 73.479 C 162.516 73.494,171.594 75.805,177.677 80.477 C 178.709 81.269,179.699 81.981,179.877 82.059 C 180.800 82.462,186.659 89.270,188.536 92.121 C 194.724 101.522,197.900 108.732,203.809 126.800 C 209.489 144.168,211.342 149.863,211.880 151.600 C 214.358 159.614,216.997 167.718,217.633 169.274 C 218.055 170.305,218.400 171.432,218.400 171.779 C 218.400 172.125,219.831 176.772,221.580 182.105 C 223.329 187.437,226.224 196.390,228.013 202.000 C 229.802 207.610,231.620 213.280,232.053 214.600 C 232.958 217.357,235.685 225.739,236.543 228.400 C 236.863 229.390,237.966 232.900,238.995 236.200 C 240.025 239.500,241.386 243.640,242.021 245.400 C 242.655 247.160,243.375 249.410,243.620 250.400 C 244.194 252.716,247.414 262.685,248.594 265.800 C 249.095 267.120,249.636 268.830,249.797 269.600 C 249.959 270.370,251.309 274.690,252.798 279.200 C 254.287 283.710,255.796 288.416,256.152 289.658 C 259.937 302.883,265.954 308.188,277.200 308.213 C 285.470 308.231,285.402 308.157,285.396 317.200 C 285.388 327.614,283.666 329.042,270.590 329.483 C 255.141 330.004,246.948 326.838,239.835 317.600 C 237.285 314.288,232.199 304.060,231.382 300.600 C 231.226 299.940,230.596 298.050,229.982 296.400 C 228.913 293.525,227.695 289.719,223.198 275.200 C 222.073 271.570,220.791 267.610,220.347 266.400 C 219.904 265.190,219.371 263.480,219.164 262.600 C 218.703 260.650,215.013 248.967,213.983 246.200 C 213.573 245.100,213.043 243.390,212.805 242.400 C 212.566 241.410,211.041 236.460,209.417 231.400 C 207.792 226.340,205.540 219.230,204.414 215.600 C 203.287 211.970,202.018 208.100,201.593 207.000 C 201.169 205.900,200.541 203.777,200.198 202.282 C 199.855 200.787,199.246 198.717,198.844 197.682 C 198.442 196.647,197.805 194.521,197.428 192.959 C 195.218 183.800,192.682 186.510,187.409 203.663 C 186.891 205.348,186.251 207.131,185.986 207.626 C 185.538 208.464,184.685 210.827,181.375 220.400 C 180.653 222.490,179.135 226.630,178.002 229.600 C 176.869 232.570,175.514 236.350,174.990 238.000 C 174.466 239.650,173.306 242.980,172.411 245.400 C 169.650 252.865,168.935 254.835,167.179 259.800 C 166.245 262.440,164.890 266.130,164.167 268.000 C 163.444 269.870,162.748 271.940,162.621 272.600 C 162.493 273.260,162.723 272.862,163.133 271.715 C 163.543 270.568,164.064 269.398,164.291 269.115 C 164.518 268.832,165.011 267.520,165.387 266.200 C 165.763 264.880,166.578 262.540,167.198 261.000 C 167.819 259.460,168.682 257.120,169.116 255.800 C 169.551 254.480,170.848 250.880,172.000 247.800 C 173.151 244.720,174.508 240.850,175.014 239.200 C 175.521 237.550,176.248 235.480,176.630 234.600 C 177.012 233.720,177.936 231.290,178.683 229.200 C 181.071 222.521,182.298 219.133,184.402 213.400 C 185.533 210.320,186.902 206.360,187.445 204.600 C 187.989 202.840,188.619 201.066,188.847 200.657 C 189.074 200.249,189.977 197.834,190.854 195.291 C 193.737 186.930,195.254 186.418,196.997 193.218 C 197.361 194.638,198.177 197.420,198.810 199.400 C 199.443 201.380,200.797 205.700,201.818 209.000 C 202.839 212.300,204.184 216.530,204.806 218.400 C 205.429 220.270,206.860 224.860,207.986 228.600 C 209.113 232.340,210.466 236.570,210.994 238.000 C 211.522 239.430,212.396 242.130,212.935 244.000 C 214.841 250.605,216.853 256.942,217.370 257.965 C 217.657 258.534,218.114 259.990,218.385 261.200 C 218.656 262.410,219.776 266.190,220.875 269.600 C 223.817 278.730,224.593 281.174,226.653 287.800 C 227.679 291.100,229.020 295.150,229.633 296.800 C 230.245 298.450,231.056 300.846,231.435 302.124 C 237.717 323.307,254.798 333.683,276.625 329.575 C 284.875 328.022,286.000 326.452,286.000 316.492 C 286.000 309.301,284.847 307.299,280.884 307.608 C 271.361 308.350,265.315 306.431,262.591 301.800 C 262.202 301.140,261.583 300.240,261.214 299.800 C 260.320 298.734,256.944 291.067,256.371 288.800 C 256.121 287.810,254.602 283.040,252.995 278.200 C 251.389 273.360,249.948 268.770,249.794 268.000 C 249.639 267.230,249.185 265.790,248.783 264.800 C 247.843 262.482,245.049 253.974,243.792 249.600 C 242.643 245.606,240.334 238.483,238.993 234.800 C 238.472 233.370,237.604 230.670,237.065 228.800 C 236.096 225.441,234.196 219.431,232.261 213.600 C 231.714 211.950,229.885 206.280,228.198 201.000 C 226.511 195.720,224.683 190.050,224.137 188.400 C 223.591 186.750,222.538 183.510,221.797 181.200 C 221.056 178.890,220.097 175.920,219.667 174.600 C 219.237 173.280,217.884 169.050,216.662 165.200 C 215.439 161.350,214.087 157.120,213.658 155.800 C 213.229 154.480,211.433 148.900,209.667 143.400 C 203.283 123.515,201.942 119.448,201.438 118.433 C 201.156 117.865,200.606 116.230,200.216 114.800 C 199.826 113.370,199.078 111.391,198.554 110.403 C 198.029 109.415,197.600 108.457,197.600 108.275 C 197.600 107.364,191.729 96.115,189.485 92.727 C 183.463 83.634,174.144 76.038,167.736 75.001 C 166.891 74.864,164.490 74.386,162.400 73.939 C 158.645 73.135,146.668 72.590,143.200 73.065 M167.269 189.062 C 166.536 190.709,165.611 193.005,165.213 194.163 C 164.814 195.322,164.169 196.884,163.779 197.635 C 163.390 198.386,162.752 199.990,162.362 201.200 C 161.973 202.410,160.635 205.830,159.390 208.800 C 158.145 211.770,156.775 215.280,156.345 216.600 C 155.916 217.920,155.045 220.170,154.409 221.600 C 152.742 225.348,150.152 231.634,149.793 232.800 C 149.624 233.350,148.412 236.410,147.099 239.600 C 145.786 242.790,144.296 246.570,143.787 248.000 C 143.278 249.430,141.847 253.030,140.607 256.000 C 139.367 258.970,137.930 262.570,137.413 264.000 C 136.605 266.237,133.020 275.253,130.335 281.800 C 127.694 288.241,126.154 292.187,125.103 295.200 C 124.451 297.070,123.748 298.808,123.541 299.062 C 123.193 299.490,121.985 302.466,118.617 311.200 C 117.896 313.070,116.630 316.220,115.804 318.200 C 112.193 326.857,113.797 328.146,128.200 328.163 C 140.024 328.177,142.890 327.324,144.657 323.262 C 145.748 320.755,148.815 312.351,149.862 309.000 C 150.411 307.240,151.123 305.221,151.443 304.514 C 152.224 302.787,155.487 293.896,156.255 291.400 C 156.973 289.069,160.490 279.453,161.622 276.726 C 162.050 275.695,162.396 274.615,162.391 274.326 C 162.378 273.563,160.948 276.839,159.569 280.787 C 158.914 282.664,157.950 285.280,157.426 286.600 C 156.903 287.920,156.122 290.080,155.692 291.400 C 155.261 292.720,154.058 296.140,153.017 299.000 C 151.976 301.860,150.774 305.280,150.345 306.600 C 149.917 307.920,149.198 309.900,148.748 311.000 C 148.299 312.100,147.343 314.710,146.624 316.800 C 143.321 326.411,142.363 327.207,133.667 327.571 C 114.789 328.361,112.581 327.069,116.624 317.600 C 117.422 315.730,118.407 313.210,118.813 312.000 C 119.836 308.951,123.501 300.002,123.953 299.452 C 124.157 299.203,124.636 297.920,125.018 296.600 C 125.399 295.280,126.043 293.480,126.449 292.600 C 127.491 290.338,129.277 285.868,134.183 273.237 C 134.987 271.167,135.934 268.917,136.287 268.237 C 136.640 267.557,137.248 266.010,137.638 264.800 C 138.027 263.590,139.361 260.170,140.602 257.200 C 141.843 254.230,143.285 250.630,143.807 249.200 C 144.329 247.770,145.772 244.170,147.013 241.200 C 148.255 238.230,149.634 234.630,150.078 233.200 C 150.523 231.770,151.029 230.420,151.204 230.200 C 151.590 229.716,154.875 221.754,156.404 217.600 C 157.012 215.950,158.362 212.530,159.405 210.000 C 160.448 207.470,161.888 203.870,162.606 202.000 C 164.711 196.518,166.363 192.418,167.649 189.489 C 168.310 187.983,168.794 186.597,168.725 186.409 C 168.656 186.221,168.001 187.414,167.269 189.062 " stroke="none" fill="#5c7f4c" fill-rule="evenodd"></path><path id="path6" d="M5.029 3.429 C 4.683 3.774,4.399 4.269,4.399 4.529 C 4.260 50.280,4.474 395.727,4.641 396.163 C 4.777 396.517,5.273 396.900,5.744 397.013 C 8.245 397.615,394.380 396.991,394.987 396.384 C 395.605 395.766,395.995 5.896,395.380 4.291 C 394.797 2.772,398.467 2.800,199.410 2.800 C 23.804 2.800,5.598 2.859,5.029 3.429 M394.276 4.638 C 395.022 5.106,395.111 5.410,394.876 6.693 C 394.515 8.663,394.515 391.337,394.876 393.307 C 395.113 394.599,395.023 394.898,394.243 395.409 C 393.234 396.070,6.942 396.343,5.764 395.684 C 5.180 395.357,4.848 5.018,5.431 4.436 C 5.681 4.186,389.615 3.698,392.000 3.945 C 392.770 4.025,393.794 4.337,394.276 4.638 M139.400 71.821 C 137.640 72.148,135.120 72.761,133.800 73.185 C 132.480 73.609,130.659 74.147,129.754 74.379 C 128.209 74.776,126.506 76.277,123.882 79.554 C 122.294 81.538,121.915 93.929,123.357 96.718 C 124.627 99.172,126.604 99.360,134.094 97.736 C 150.144 94.256,159.268 97.564,164.612 108.800 C 165.396 110.450,166.463 112.430,166.982 113.200 C 167.502 113.970,168.052 115.410,168.205 116.400 C 168.359 117.390,169.012 119.006,169.657 119.991 C 170.302 120.976,171.295 123.316,171.864 125.191 C 172.432 127.066,173.152 129.099,173.464 129.710 C 173.776 130.320,174.215 131.817,174.441 133.036 C 174.666 134.255,175.289 136.077,175.825 137.086 C 176.361 138.094,176.800 139.157,176.800 139.447 C 176.800 140.395,178.804 146.140,179.612 147.510 C 180.765 149.464,180.655 152.301,179.326 154.900 C 177.437 158.593,177.286 158.958,176.666 161.337 C 176.331 162.623,175.784 163.976,175.451 164.344 C 175.118 164.712,174.662 165.832,174.438 166.832 C 174.213 167.833,173.409 169.908,172.650 171.444 C 171.891 172.980,170.984 175.218,170.634 176.418 C 170.284 177.618,169.548 179.486,168.999 180.568 C 168.449 181.650,168.000 182.830,168.000 183.191 C 168.000 183.551,167.367 185.096,166.594 186.623 C 165.821 188.150,164.833 190.570,164.399 192.000 C 163.965 193.430,163.248 195.140,162.807 195.800 C 162.366 196.460,162.004 197.431,162.003 197.957 C 162.001 198.483,161.220 200.553,160.267 202.557 C 159.313 204.561,158.294 207.100,158.002 208.200 C 157.709 209.300,157.158 210.652,156.776 211.204 C 156.395 211.756,155.867 213.016,155.603 214.004 C 155.340 214.992,154.527 217.060,153.798 218.600 C 152.401 221.549,151.200 224.861,151.200 225.765 C 151.200 226.060,150.952 226.508,150.650 226.759 C 150.347 227.010,149.868 228.067,149.584 229.108 C 149.147 230.712,148.237 232.855,146.823 235.605 C 146.652 235.937,146.203 237.287,145.825 238.605 C 145.446 239.922,144.725 241.720,144.222 242.600 C 143.719 243.480,143.193 244.830,143.052 245.600 C 142.912 246.370,142.200 248.170,141.471 249.600 C 140.742 251.030,139.821 253.369,139.425 254.798 C 139.028 256.227,138.370 257.821,137.962 258.339 C 137.555 258.857,137.102 259.938,136.956 260.741 C 136.811 261.543,136.017 263.640,135.192 265.400 C 134.367 267.160,133.319 269.770,132.863 271.200 C 131.184 276.465,130.129 279.110,129.275 280.195 C 128.794 280.807,128.400 281.633,128.400 282.030 C 128.400 282.428,128.241 282.851,128.046 282.972 C 127.851 283.092,127.366 284.408,126.969 285.895 C 126.572 287.383,125.933 289.050,125.548 289.600 C 125.164 290.150,124.645 291.410,124.396 292.400 C 124.147 293.390,123.338 295.406,122.598 296.880 C 121.858 298.354,120.940 300.694,120.558 302.080 C 120.176 303.466,119.554 305.003,119.177 305.497 C 118.799 305.990,118.368 307.043,118.219 307.837 C 118.070 308.631,117.264 310.658,116.428 312.341 C 115.592 314.023,114.690 316.300,114.424 317.400 C 114.157 318.500,113.559 320.016,113.094 320.769 C 111.326 323.634,112.273 327.196,115.200 328.687 C 117.671 329.946,139.028 329.749,141.924 328.440 C 144.182 327.420,147.828 321.373,148.570 317.419 C 148.722 316.606,149.191 315.376,149.612 314.684 C 150.033 313.992,150.493 312.610,150.636 311.613 C 150.778 310.616,151.217 309.260,151.612 308.600 C 152.006 307.940,152.977 305.420,153.769 303.000 C 154.562 300.580,155.475 298.127,155.799 297.549 C 156.123 296.971,156.594 295.533,156.847 294.353 C 157.101 293.173,157.541 291.846,157.826 291.404 C 158.577 290.240,160.198 285.755,160.791 283.200 C 161.072 281.990,161.553 280.711,161.860 280.358 C 162.167 280.005,162.695 278.389,163.034 276.768 C 163.604 274.031,165.372 270.000,166.001 270.000 C 166.152 270.000,166.596 268.470,166.988 266.600 C 167.381 264.730,167.845 263.200,168.020 263.200 C 168.395 263.200,169.050 261.250,169.431 259.000 C 169.580 258.120,169.926 257.130,170.201 256.800 C 170.477 256.470,170.941 255.480,171.234 254.600 C 171.527 253.720,171.893 252.820,172.048 252.600 C 172.202 252.380,172.630 251.030,172.998 249.600 C 173.366 248.170,173.990 246.460,174.385 245.800 C 174.779 245.140,175.330 243.624,175.608 242.431 C 175.886 241.237,176.612 239.160,177.223 237.814 C 177.833 236.468,178.781 233.818,179.330 231.924 C 179.879 230.030,180.503 228.148,180.717 227.740 C 180.930 227.333,181.313 226.010,181.568 224.800 C 181.822 223.590,182.441 221.970,182.942 221.200 C 184.089 219.439,184.966 217.221,185.809 213.955 C 186.171 212.550,186.723 211.115,187.035 210.767 C 187.347 210.419,187.797 209.069,188.036 207.767 C 188.274 206.465,188.794 204.860,189.190 204.200 C 189.945 202.944,191.682 197.989,192.199 195.616 C 192.478 194.336,194.281 191.600,194.845 191.600 C 194.980 191.600,195.326 192.725,195.614 194.100 C 195.901 195.475,196.751 198.310,197.503 200.400 C 198.254 202.490,199.112 205.405,199.410 206.877 C 199.708 208.349,200.223 209.969,200.556 210.477 C 200.889 210.985,201.529 213.020,201.979 215.000 C 202.429 216.980,203.425 219.860,204.192 221.400 C 205.014 223.052,205.758 225.321,206.006 226.934 C 206.237 228.438,206.670 230.058,206.968 230.534 C 207.266 231.010,207.724 232.390,207.986 233.600 C 208.517 236.051,210.229 241.258,211.013 242.805 C 211.293 243.358,211.647 244.708,211.800 245.805 C 211.953 246.902,212.409 248.520,212.813 249.400 C 213.218 250.280,213.845 252.170,214.208 253.600 C 215.029 256.842,216.248 260.503,217.207 262.613 C 217.610 263.500,218.070 265.371,218.229 266.771 C 218.394 268.231,218.790 269.592,219.158 269.964 C 220.144 270.958,220.732 272.521,221.576 276.389 C 222.002 278.339,222.697 280.624,223.121 281.467 C 223.544 282.310,224.118 284.260,224.395 285.800 C 224.672 287.340,225.214 289.140,225.601 289.800 C 225.987 290.460,226.424 291.680,226.571 292.511 C 226.979 294.802,228.751 300.033,229.624 301.523 C 230.051 302.250,230.400 303.165,230.400 303.555 C 230.400 303.945,230.850 305.150,231.399 306.232 C 231.949 307.314,232.599 308.830,232.844 309.600 C 233.089 310.370,234.067 312.170,235.018 313.600 C 235.968 315.030,236.867 316.693,237.015 317.296 C 237.177 317.953,238.423 319.398,240.120 320.896 C 241.679 322.273,243.727 324.146,244.671 325.058 C 246.967 327.277,250.040 328.956,253.200 329.719 C 254.630 330.065,256.610 330.660,257.600 331.042 C 259.101 331.620,260.861 331.741,268.200 331.768 L 277.000 331.800 280.929 330.242 C 285.476 328.439,285.528 328.377,287.007 323.075 C 288.860 316.436,287.858 307.877,285.044 306.293 C 284.474 305.972,282.316 305.852,278.400 305.921 C 269.296 306.084,265.289 304.493,262.700 299.688 C 262.259 298.870,261.561 297.577,261.149 296.815 C 260.737 296.054,260.400 295.178,260.400 294.869 C 260.400 294.560,259.759 292.940,258.976 291.268 C 258.193 289.596,257.305 287.052,257.003 285.614 C 256.321 282.378,256.163 281.891,254.978 279.400 C 254.455 278.300,253.589 275.659,253.054 273.531 C 252.519 271.402,251.814 269.152,251.487 268.531 C 251.160 267.909,250.696 266.339,250.455 265.041 C 250.215 263.744,249.762 262.394,249.450 262.041 C 249.138 261.689,248.675 260.381,248.420 259.135 C 247.937 256.770,245.913 250.533,245.191 249.184 C 244.961 248.754,244.584 247.367,244.352 246.101 C 244.120 244.836,243.610 243.260,243.218 242.600 C 242.826 241.940,242.179 239.960,241.781 238.200 C 241.383 236.440,240.534 233.740,239.894 232.200 C 239.253 230.660,238.476 228.230,238.166 226.800 C 237.856 225.370,237.243 223.461,236.802 222.557 C 236.361 221.654,235.821 219.967,235.602 218.809 C 235.188 216.628,233.622 211.991,232.657 210.089 C 232.353 209.490,231.905 207.849,231.662 206.442 C 231.419 205.036,230.968 203.596,230.661 203.242 C 230.353 202.889,229.872 201.610,229.591 200.400 C 229.108 198.317,227.603 193.723,226.250 190.200 C 225.912 189.320,225.627 188.132,225.618 187.560 C 225.608 186.987,225.181 185.727,224.668 184.760 C 224.156 183.792,223.515 181.830,223.243 180.400 C 222.717 177.625,221.665 174.492,220.451 172.082 C 220.041 171.267,219.578 169.700,219.423 168.600 C 219.267 167.500,218.700 165.657,218.161 164.505 C 217.622 163.352,217.014 161.552,216.811 160.505 C 216.388 158.333,214.788 153.525,213.906 151.777 C 213.580 151.129,213.200 149.744,213.064 148.699 C 212.927 147.653,212.476 146.123,212.062 145.299 C 211.647 144.474,210.724 141.730,210.010 139.200 C 209.295 136.670,208.385 133.960,207.987 133.178 C 207.589 132.396,207.057 130.616,206.804 129.222 C 206.551 127.827,206.100 126.307,205.802 125.843 C 205.503 125.380,204.978 123.902,204.634 122.559 C 203.797 119.292,202.070 114.749,201.368 113.969 C 201.056 113.621,200.800 112.887,200.800 112.336 C 200.800 111.786,200.350 110.450,199.801 109.368 C 199.251 108.286,198.597 106.770,198.346 106.000 C 197.743 104.144,196.076 100.835,195.146 99.646 C 194.736 99.121,194.400 98.370,194.400 97.977 C 194.400 97.583,193.976 96.753,193.459 96.131 C 192.941 95.509,192.203 94.329,191.818 93.510 C 191.433 92.690,190.417 91.223,189.559 90.248 C 188.702 89.274,188.000 88.331,188.000 88.153 C 188.000 87.974,187.658 87.462,187.239 87.014 C 182.929 82.400,180.965 80.400,180.746 80.400 C 180.602 80.400,179.881 79.833,179.142 79.140 C 178.404 78.446,176.938 77.478,175.884 76.987 C 174.830 76.497,173.648 75.805,173.256 75.451 C 172.865 75.097,171.657 74.637,170.572 74.429 C 169.487 74.221,167.922 73.766,167.094 73.418 C 162.460 71.468,146.323 70.538,139.400 71.821 M163.600 73.546 C 165.470 74.044,168.006 74.703,169.236 75.010 C 178.482 77.316,188.065 87.291,195.416 102.262 C 196.837 105.156,198.000 107.658,198.000 107.822 C 198.000 107.986,198.441 109.038,198.979 110.160 C 199.518 111.282,200.319 113.280,200.759 114.600 C 201.200 115.920,202.479 119.610,203.602 122.800 C 204.725 125.990,205.970 129.770,206.370 131.200 C 207.327 134.628,211.127 146.273,211.787 147.800 C 212.072 148.460,212.524 149.990,212.792 151.200 C 213.060 152.410,213.784 154.750,214.401 156.400 C 215.844 160.262,219.081 170.584,219.419 172.400 C 219.562 173.170,219.923 174.187,220.222 174.660 C 220.521 175.132,221.400 177.704,222.176 180.374 C 222.952 183.044,223.800 185.627,224.061 186.114 C 224.321 186.601,224.948 188.529,225.452 190.399 C 226.414 193.961,229.807 204.423,230.448 205.800 C 230.652 206.240,231.168 207.950,231.594 209.600 C 232.020 211.250,233.466 215.840,234.807 219.800 C 236.148 223.760,237.516 228.155,237.847 229.567 C 238.178 230.978,238.730 232.678,239.074 233.343 C 239.418 234.009,240.305 236.544,241.043 238.977 C 242.512 243.810,242.758 244.578,246.888 257.200 C 248.435 261.930,250.029 266.970,250.430 268.400 C 251.305 271.522,252.383 274.835,254.272 280.200 C 255.046 282.400,256.039 285.638,256.477 287.395 C 256.915 289.152,257.476 290.952,257.723 291.395 C 257.970 291.838,258.811 293.640,259.591 295.400 C 263.911 305.141,268.982 308.127,279.400 307.065 C 283.597 306.637,284.588 307.021,285.686 309.498 C 287.302 313.144,286.978 322.418,285.099 326.335 C 282.771 331.186,263.716 332.410,252.347 328.439 C 246.823 326.510,239.879 320.514,237.000 315.187 C 236.560 314.373,235.759 312.918,235.221 311.954 C 233.677 309.188,231.606 304.420,230.810 301.800 C 230.408 300.480,229.716 298.590,229.271 297.600 C 228.826 296.610,227.975 294.090,227.381 292.000 C 226.786 289.910,226.046 287.701,225.735 287.090 C 225.424 286.480,224.980 284.950,224.749 283.690 C 224.518 282.431,224.004 280.590,223.607 279.600 C 222.722 277.391,219.088 266.026,218.044 262.200 C 217.624 260.660,216.833 258.140,216.288 256.600 C 214.658 252.001,212.525 245.150,211.992 242.800 C 211.717 241.590,211.253 240.125,210.959 239.545 C 210.385 238.408,207.736 229.986,206.161 224.287 C 205.627 222.354,205.008 220.464,204.786 220.087 C 204.563 219.709,203.678 217.027,202.819 214.127 C 201.960 211.226,201.072 208.509,200.847 208.088 C 200.622 207.667,200.145 205.990,199.788 204.361 C 199.431 202.733,198.814 200.680,198.418 199.800 C 198.022 198.920,197.309 196.692,196.833 194.850 C 196.065 191.874,195.028 189.200,194.643 189.200 C 194.116 189.200,192.151 193.066,191.028 196.311 C 190.288 198.450,188.935 202.270,188.022 204.800 C 187.109 207.330,185.573 211.707,184.609 214.526 C 183.644 217.345,182.689 219.865,182.486 220.126 C 182.283 220.387,181.439 222.657,180.612 225.171 C 179.784 227.685,178.486 231.375,177.727 233.371 C 176.968 235.367,175.835 238.530,175.210 240.400 C 173.305 246.096,170.494 253.856,170.047 254.650 C 169.815 255.063,169.266 256.570,168.827 258.000 C 167.481 262.387,164.960 269.283,163.856 271.600 C 163.279 272.810,162.806 274.119,162.804 274.509 C 162.802 274.898,162.193 276.788,161.451 278.709 C 160.709 280.629,159.695 283.460,159.197 285.000 C 158.699 286.540,158.026 288.323,157.703 288.963 C 157.379 289.602,156.787 291.222,156.387 292.563 C 155.987 293.903,154.824 297.250,153.802 300.000 C 151.323 306.669,149.042 313.037,147.613 317.272 C 143.955 328.114,143.114 328.600,128.000 328.600 C 116.221 328.600,115.446 328.435,114.008 325.616 L 113.169 323.971 114.639 319.686 C 115.447 317.329,116.478 314.680,116.929 313.800 C 117.381 312.920,118.142 311.120,118.620 309.800 C 119.530 307.289,122.101 300.820,123.548 297.400 C 124.014 296.300,125.386 292.790,126.597 289.600 C 127.809 286.410,129.153 283.080,129.585 282.200 C 130.017 281.320,130.798 279.430,131.320 278.000 C 133.756 271.330,135.332 267.403,136.033 266.254 C 136.453 265.564,136.798 264.768,136.799 264.485 C 136.800 263.826,140.985 253.173,142.175 250.800 C 142.671 249.810,143.296 248.100,143.564 247.000 C 143.833 245.900,144.313 244.598,144.631 244.107 C 144.949 243.616,145.833 241.490,146.596 239.384 C 147.358 237.277,148.252 235.069,148.582 234.477 C 148.912 233.884,149.528 232.410,149.949 231.200 C 151.167 227.709,152.628 223.997,153.808 221.400 C 154.408 220.080,155.395 217.650,156.002 216.000 C 158.141 210.187,159.903 205.758,160.703 204.187 C 161.148 203.314,161.783 201.683,162.116 200.563 C 162.448 199.443,163.073 197.823,163.505 196.963 C 163.937 196.103,164.612 194.410,165.005 193.200 C 165.399 191.990,166.323 189.725,167.060 188.166 C 167.797 186.607,168.400 185.112,168.400 184.844 C 168.400 184.374,169.942 180.506,172.483 174.600 C 173.146 173.060,174.187 170.450,174.797 168.800 C 176.865 163.205,178.698 158.608,179.822 156.200 C 181.307 153.017,181.523 150.073,180.483 147.200 C 177.268 138.318,175.826 134.177,174.981 131.400 C 174.445 129.640,173.830 127.840,173.614 127.400 C 173.398 126.960,172.695 125.160,172.051 123.400 C 168.846 114.632,165.016 106.591,162.339 103.012 C 156.670 95.432,145.777 93.355,131.881 97.206 C 125.263 99.040,124.262 98.229,124.064 90.869 C 123.742 78.898,125.458 75.746,133.012 74.430 C 134.326 74.201,136.840 73.658,138.600 73.225 C 143.437 72.032,158.658 72.227,163.600 73.546 " stroke="none" fill="#6ca24c" fill-rule="evenodd"></path><path id="path7" d="M5.292 2.268 C 3.509 2.985,3.600 -7.698,3.600 200.000 C 3.600 409.172,3.488 397.011,5.418 397.752 C 5.774 397.888,93.365 398.000,200.063 398.000 L 394.062 398.000 395.231 396.831 L 396.400 395.662 396.400 200.411 C 396.400 24.952,396.337 5.039,395.781 3.963 C 395.440 3.304,394.709 2.593,394.155 2.383 C 393.115 1.987,6.273 1.873,5.292 2.268 M394.159 3.254 C 394.707 3.504,395.257 3.971,395.380 4.291 C 395.995 5.896,395.605 395.766,394.987 396.384 C 394.380 396.991,8.245 397.615,5.744 397.013 C 5.273 396.900,4.777 396.517,4.641 396.163 C 4.474 395.727,4.260 50.280,4.399 4.529 C 4.399 4.269,4.683 3.774,5.029 3.429 C 5.838 2.620,392.386 2.446,394.159 3.254 M138.600 73.225 C 136.840 73.658,134.326 74.201,133.012 74.430 C 125.458 75.746,123.742 78.898,124.064 90.869 C 124.262 98.229,125.263 99.040,131.881 97.206 C 145.777 93.355,156.670 95.432,162.339 103.012 C 165.016 106.591,168.846 114.632,172.051 123.400 C 172.695 125.160,173.398 126.960,173.614 127.400 C 173.830 127.840,174.445 129.640,174.981 131.400 C 175.826 134.177,177.268 138.318,180.483 147.200 C 181.523 150.073,181.307 153.017,179.822 156.200 C 178.698 158.608,176.865 163.205,174.797 168.800 C 174.187 170.450,173.146 173.060,172.483 174.600 C 169.942 180.506,168.400 184.374,168.400 184.844 C 168.400 185.112,167.797 186.607,167.060 188.166 C 166.323 189.725,165.399 191.990,165.005 193.200 C 164.612 194.410,163.937 196.103,163.505 196.963 C 163.073 197.823,162.448 199.443,162.116 200.563 C 161.783 201.683,161.148 203.314,160.703 204.187 C 159.903 205.758,158.141 210.187,156.002 216.000 C 155.395 217.650,154.408 220.080,153.808 221.400 C 152.628 223.997,151.167 227.709,149.949 231.200 C 149.528 232.410,148.912 233.884,148.582 234.477 C 148.252 235.069,147.358 237.277,146.596 239.384 C 145.833 241.490,144.949 243.616,144.631 244.107 C 144.313 244.598,143.833 245.900,143.564 247.000 C 143.296 248.100,142.671 249.810,142.175 250.800 C 140.985 253.173,136.800 263.826,136.799 264.485 C 136.798 264.768,136.453 265.564,136.033 266.254 C 135.332 267.403,133.756 271.330,131.320 278.000 C 130.798 279.430,130.017 281.320,129.585 282.200 C 129.153 283.080,127.809 286.410,126.597 289.600 C 125.386 292.790,124.014 296.300,123.548 297.400 C 122.101 300.820,119.530 307.289,118.620 309.800 C 118.142 311.120,117.381 312.920,116.929 313.800 C 116.478 314.680,115.447 317.329,114.639 319.686 L 113.169 323.971 114.008 325.616 C 115.446 328.435,116.221 328.600,128.000 328.600 C 143.114 328.600,143.955 328.114,147.613 317.272 C 149.042 313.037,151.323 306.669,153.802 300.000 C 154.824 297.250,155.987 293.903,156.387 292.563 C 156.787 291.222,157.379 289.602,157.703 288.963 C 158.026 288.323,158.699 286.540,159.197 285.000 C 159.695 283.460,160.709 280.629,161.451 278.709 C 162.193 276.788,162.802 274.898,162.804 274.509 C 162.806 274.119,163.279 272.810,163.856 271.600 C 164.960 269.283,167.481 262.387,168.827 258.000 C 169.266 256.570,169.815 255.063,170.047 254.650 C 170.494 253.856,173.305 246.096,175.210 240.400 C 175.835 238.530,176.968 235.367,177.727 233.371 C 178.486 231.375,179.784 227.685,180.612 225.171 C 181.439 222.657,182.283 220.387,182.486 220.126 C 182.689 219.865,183.644 217.345,184.609 214.526 C 185.573 211.707,187.109 207.330,188.022 204.800 C 188.935 202.270,190.288 198.450,191.028 196.311 C 192.151 193.066,194.116 189.200,194.643 189.200 C 195.028 189.200,196.065 191.874,196.833 194.850 C 197.309 196.692,198.022 198.920,198.418 199.800 C 198.814 200.680,199.431 202.733,199.788 204.361 C 200.145 205.990,200.622 207.667,200.847 208.088 C 201.072 208.509,201.960 211.226,202.819 214.127 C 203.678 217.027,204.563 219.709,204.786 220.087 C 205.008 220.464,205.627 222.354,206.161 224.287 C 207.736 229.986,210.385 238.408,210.959 239.545 C 211.253 240.125,211.717 241.590,211.992 242.800 C 212.525 245.150,214.658 252.001,216.288 256.600 C 216.833 258.140,217.624 260.660,218.044 262.200 C 219.088 266.026,222.722 277.391,223.607 279.600 C 224.004 280.590,224.518 282.431,224.749 283.690 C 224.980 284.950,225.424 286.480,225.735 287.090 C 226.046 287.701,226.786 289.910,227.381 292.000 C 227.975 294.090,228.826 296.610,229.271 297.600 C 229.716 298.590,230.408 300.480,230.810 301.800 C 231.606 304.420,233.677 309.188,235.221 311.954 C 235.759 312.918,236.560 314.373,237.000 315.187 C 239.879 320.514,246.823 326.510,252.347 328.439 C 263.716 332.410,282.771 331.186,285.099 326.335 C 286.978 322.418,287.302 313.144,285.686 309.498 C 284.588 307.021,283.597 306.637,279.400 307.065 C 268.982 308.127,263.911 305.141,259.591 295.400 C 258.811 293.640,257.970 291.838,257.723 291.395 C 257.476 290.952,256.915 289.152,256.477 287.395 C 256.039 285.638,255.046 282.400,254.272 280.200 C 252.383 274.835,251.305 271.522,250.430 268.400 C 250.029 266.970,248.435 261.930,246.888 257.200 C 242.758 244.578,242.512 243.810,241.043 238.977 C 240.305 236.544,239.418 234.009,239.074 233.343 C 238.730 232.678,238.178 230.978,237.847 229.567 C 237.516 228.155,236.148 223.760,234.807 219.800 C 233.466 215.840,232.020 211.250,231.594 209.600 C 231.168 207.950,230.652 206.240,230.448 205.800 C 229.807 204.423,226.414 193.961,225.452 190.399 C 224.948 188.529,224.321 186.601,224.061 186.114 C 223.800 185.627,222.952 183.044,222.176 180.374 C 221.400 177.704,220.521 175.132,220.222 174.660 C 219.923 174.187,219.562 173.170,219.419 172.400 C 219.081 170.584,215.844 160.262,214.401 156.400 C 213.784 154.750,213.060 152.410,212.792 151.200 C 212.524 149.990,212.072 148.460,211.787 147.800 C 211.127 146.273,207.327 134.628,206.370 131.200 C 205.970 129.770,204.725 125.990,203.602 122.800 C 202.479 119.610,201.200 115.920,200.759 114.600 C 200.319 113.280,199.518 111.282,198.979 110.160 C 198.441 109.038,198.000 107.986,198.000 107.822 C 198.000 107.171,192.727 96.837,191.116 94.329 C 187.596 88.852,186.413 87.322,183.286 84.200 C 178.201 79.123,173.562 76.089,169.236 75.010 C 168.006 74.703,165.470 74.044,163.600 73.546 C 158.658 72.227,143.437 72.032,138.600 73.225 M162.400 73.939 C 164.490 74.386,166.891 74.864,167.736 75.001 C 174.144 76.038,183.463 83.634,189.485 92.727 C 191.729 96.115,197.600 107.364,197.600 108.275 C 197.600 108.457,198.029 109.415,198.554 110.403 C 199.078 111.391,199.826 113.370,200.216 114.800 C 200.606 116.230,201.156 117.865,201.438 118.433 C 201.942 119.448,203.283 123.515,209.667 143.400 C 211.433 148.900,213.229 154.480,213.658 155.800 C 214.087 157.120,215.439 161.350,216.662 165.200 C 217.884 169.050,219.237 173.280,219.667 174.600 C 220.097 175.920,221.056 178.890,221.797 181.200 C 222.538 183.510,223.591 186.750,224.137 188.400 C 224.683 190.050,226.511 195.720,228.198 201.000 C 229.885 206.280,231.714 211.950,232.261 213.600 C 234.196 219.431,236.096 225.441,237.065 228.800 C 237.604 230.670,238.472 233.370,238.993 234.800 C 240.334 238.483,242.643 245.606,243.792 249.600 C 245.049 253.974,247.843 262.482,248.783 264.800 C 249.185 265.790,249.639 267.230,249.794 268.000 C 249.948 268.770,251.389 273.360,252.995 278.200 C 254.602 283.040,256.121 287.810,256.371 288.800 C 256.944 291.067,260.320 298.734,261.214 299.800 C 261.583 300.240,262.202 301.140,262.591 301.800 C 265.315 306.431,271.361 308.350,280.884 307.608 C 284.847 307.299,286.000 309.301,286.000 316.492 C 286.000 326.452,284.875 328.022,276.625 329.575 C 261.366 332.447,246.502 327.758,239.295 317.800 C 237.359 315.125,232.297 305.028,231.435 302.124 C 231.056 300.846,230.245 298.450,229.633 296.800 C 229.020 295.150,227.679 291.100,226.653 287.800 C 224.593 281.174,223.817 278.730,220.875 269.600 C 219.776 266.190,218.656 262.410,218.385 261.200 C 218.114 259.990,217.657 258.534,217.370 257.965 C 216.853 256.942,214.841 250.605,212.935 244.000 C 212.396 242.130,211.522 239.430,210.994 238.000 C 210.466 236.570,209.113 232.340,207.986 228.600 C 206.860 224.860,205.429 220.270,204.806 218.400 C 204.184 216.530,202.839 212.300,201.818 209.000 C 200.797 205.700,199.443 201.380,198.810 199.400 C 198.177 197.420,197.361 194.638,196.997 193.218 C 195.254 186.418,193.737 186.930,190.854 195.291 C 189.977 197.834,189.074 200.249,188.847 200.657 C 188.619 201.066,187.989 202.840,187.445 204.600 C 186.902 206.360,185.533 210.320,184.402 213.400 C 182.298 219.133,181.071 222.521,178.683 229.200 C 177.936 231.290,177.012 233.720,176.630 234.600 C 176.248 235.480,175.521 237.550,175.014 239.200 C 174.508 240.850,173.151 244.720,172.000 247.800 C 170.848 250.880,169.551 254.480,169.116 255.800 C 168.682 257.120,167.819 259.460,167.198 261.000 C 166.578 262.540,165.759 264.880,165.378 266.200 C 164.998 267.520,164.440 268.977,164.138 269.437 C 163.837 269.898,163.159 271.698,162.632 273.437 C 162.106 275.177,160.654 279.300,159.406 282.600 C 158.159 285.900,156.802 289.680,156.392 291.000 C 155.506 293.849,152.269 302.686,151.443 304.514 C 151.123 305.221,150.411 307.240,149.862 309.000 C 148.815 312.351,145.748 320.755,144.657 323.262 C 142.890 327.324,140.024 328.177,128.200 328.163 C 113.797 328.146,112.193 326.857,115.804 318.200 C 116.630 316.220,117.896 313.070,118.617 311.200 C 121.985 302.466,123.193 299.490,123.541 299.062 C 123.748 298.808,124.451 297.070,125.103 295.200 C 126.154 292.187,127.694 288.241,130.335 281.800 C 133.020 275.253,136.605 266.237,137.413 264.000 C 137.930 262.570,139.367 258.970,140.607 256.000 C 141.847 253.030,143.278 249.430,143.787 248.000 C 144.296 246.570,145.786 242.790,147.099 239.600 C 148.412 236.410,149.624 233.350,149.793 232.800 C 150.152 231.634,152.742 225.348,154.409 221.600 C 155.045 220.170,155.916 217.920,156.345 216.600 C 156.775 215.280,158.145 211.770,159.390 208.800 C 160.635 205.830,161.977 202.410,162.371 201.200 C 162.765 199.990,163.466 198.190,163.927 197.200 C 164.966 194.972,167.309 189.191,168.791 185.200 C 169.404 183.550,170.760 180.130,171.803 177.600 C 172.847 175.070,174.203 171.650,174.817 170.000 C 175.431 168.350,176.867 164.750,178.009 162.000 C 179.150 159.250,180.446 156.100,180.889 155.000 C 181.968 152.321,181.912 149.593,180.707 146.200 C 180.160 144.660,178.433 139.710,176.870 135.200 C 174.290 127.755,172.337 122.514,169.418 115.200 C 162.131 96.943,152.332 91.529,134.600 95.963 C 125.410 98.261,124.676 97.923,124.461 91.293 C 124.007 77.319,125.952 75.427,143.200 73.065 C 146.668 72.590,158.645 73.135,162.400 73.939 " stroke="none" fill="#64924c" fill-rule="evenodd"></path><path id="path8" d="M7.094 5.039 C 6.563 5.571,7.354 6.400,8.394 6.400 C 9.754 6.400,10.754 5.422,9.777 5.047 C 8.958 4.732,7.406 4.728,7.094 5.039 M390.083 5.070 C 389.220 5.417,390.346 6.400,391.606 6.400 C 392.646 6.400,393.437 5.571,392.906 5.039 C 392.622 4.756,390.818 4.776,390.083 5.070 M14.200 21.200 C 11.680 21.515,10.714 25.689,12.573 28.231 C 13.131 28.994,381.701 29.743,385.930 28.989 C 388.764 28.484,389.302 23.035,386.656 21.635 C 385.791 21.178,17.818 20.748,14.200 21.200 M386.041 22.513 C 388.310 24.037,388.118 27.119,385.697 28.039 C 385.156 28.245,306.684 28.398,199.512 28.403 L 14.262 28.410 13.331 27.535 C 11.595 25.905,12.203 22.692,14.400 21.884 C 14.730 21.762,98.178 21.649,199.841 21.632 L 384.682 21.600 386.041 22.513 M14.126 71.201 C 12.276 71.951,11.677 76.219,13.165 78.056 L 13.929 79.000 67.665 79.115 C 129.034 79.246,123.324 79.510,125.747 76.426 C 127.804 73.809,128.003 72.889,126.758 71.762 C 125.834 70.926,16.152 70.379,14.126 71.201 M196.567 71.188 C 193.701 72.347,192.953 75.305,194.969 77.506 L 196.338 79.000 289.069 79.118 C 385.196 79.240,385.564 79.236,386.833 77.967 C 388.345 76.455,387.646 71.521,385.851 71.039 C 384.478 70.671,197.483 70.817,196.567 71.188 M125.418 72.582 C 126.566 73.730,126.571 73.781,125.681 75.565 C 124.789 77.352,123.196 78.494,121.536 78.536 C 120.801 78.554,96.567 78.531,67.682 78.484 L 15.164 78.400 14.182 77.418 C 13.504 76.740,13.200 75.992,13.200 75.000 C 13.200 74.008,13.504 73.260,14.182 72.582 L 15.164 71.600 69.800 71.600 L 124.436 71.600 125.418 72.582 M385.818 72.582 C 387.964 74.727,386.736 77.733,383.529 78.187 C 382.578 78.322,340.159 78.380,289.265 78.316 L 196.731 78.200 195.765 77.078 C 194.235 75.298,194.799 72.862,196.943 71.997 C 197.416 71.806,239.715 71.639,291.318 71.625 L 384.836 71.600 385.818 72.582 M14.740 121.266 C 12.356 121.753,11.399 125.876,13.165 128.056 L 13.929 129.000 92.145 129.000 C 149.889 129.000,170.479 128.881,170.813 128.547 C 171.909 127.451,170.745 121.220,169.439 121.190 C 161.570 121.012,15.634 121.083,14.740 121.266 M211.542 122.136 C 208.968 124.028,209.039 127.847,211.665 128.763 C 212.986 129.223,384.147 129.418,385.851 128.961 C 388.039 128.373,388.312 123.784,386.253 122.213 L 384.905 121.185 298.995 121.093 L 213.086 121.000 211.542 122.136 M168.711 121.629 C 171.415 122.572,171.560 127.440,168.908 128.258 C 168.299 128.446,133.359 128.510,91.265 128.400 L 14.729 128.200 13.965 127.256 C 12.690 125.682,13.080 122.932,14.689 122.147 C 15.080 121.956,49.150 121.709,90.400 121.597 C 131.650 121.485,165.868 121.350,166.440 121.297 C 167.012 121.244,168.034 121.393,168.711 121.629 M385.471 122.640 C 387.059 123.820,387.229 126.007,385.842 127.394 L 384.836 128.400 299.000 128.400 L 213.164 128.400 212.182 127.418 C 210.834 126.071,210.873 124.186,212.277 122.719 L 213.355 121.595 298.848 121.697 L 384.341 121.800 385.471 122.640 M14.126 171.201 C 12.276 171.950,11.677 176.219,13.165 178.056 L 13.929 179.000 89.380 179.103 L 164.830 179.206 165.815 178.221 C 167.101 176.935,167.225 173.413,166.035 171.944 L 165.271 171.000 90.135 170.924 C 47.322 170.880,14.624 171.000,14.126 171.201 M226.000 171.501 C 224.636 172.182,224.597 172.268,224.483 174.823 C 224.275 179.518,214.364 178.982,303.942 179.118 C 384.821 179.241,385.569 179.231,386.833 177.967 C 388.345 176.455,387.646 171.521,385.851 171.039 C 383.300 170.355,227.393 170.805,226.000 171.501 M165.018 172.582 C 166.354 173.918,166.354 176.082,165.018 177.418 L 164.036 178.400 89.600 178.400 L 15.164 178.400 14.182 177.418 C 13.504 176.740,13.200 175.992,13.200 175.000 C 13.200 174.008,13.504 173.260,14.182 172.582 L 15.164 171.600 89.600 171.600 L 164.036 171.600 165.018 172.582 M385.818 172.582 C 387.671 174.435,386.971 177.293,384.495 177.980 C 383.486 178.261,357.781 178.396,305.331 178.398 L 227.661 178.400 226.431 177.364 C 225.511 176.591,225.200 175.993,225.200 175.000 C 225.200 174.007,225.511 173.409,226.431 172.636 L 227.661 171.600 306.249 171.600 L 384.836 171.600 385.818 172.582 M194.078 196.482 C 193.815 196.745,193.600 197.129,193.600 197.336 C 193.600 197.543,193.301 197.931,192.935 198.198 C 192.528 198.496,192.372 198.949,192.532 199.368 C 192.861 200.224,193.600 199.815,193.600 198.776 C 193.600 198.349,193.851 198.000,194.157 198.000 C 194.833 198.000,195.233 197.101,194.841 196.466 C 194.627 196.119,194.437 196.123,194.078 196.482 M14.740 221.266 C 12.356 221.753,11.399 225.875,13.165 228.056 L 13.929 229.000 80.483 229.103 C 153.970 229.218,148.284 229.434,148.676 226.511 C 149.038 223.813,148.554 222.161,147.242 221.617 C 145.992 221.100,17.224 220.758,14.740 221.266 M183.116 222.118 C 181.891 223.838,181.585 227.907,182.624 228.667 C 184.078 229.731,203.807 229.411,204.577 228.311 C 205.677 226.741,204.782 222.400,203.142 221.353 C 202.844 221.162,198.413 220.980,193.296 220.948 L 183.991 220.889 183.116 222.118 M240.803 221.456 C 239.078 222.181,238.560 225.603,239.810 228.020 L 240.421 229.200 312.710 229.195 C 352.470 229.192,385.383 229.086,385.851 228.961 C 388.036 228.374,388.313 223.784,386.258 222.217 L 384.916 221.194 313.401 221.097 C 260.621 221.025,241.602 221.119,240.803 221.456 M202.264 221.753 C 204.070 222.334,205.121 225.419,204.152 227.293 L 203.579 228.400 193.790 228.400 C 184.359 228.400,183.969 228.369,183.155 227.555 C 181.667 226.067,182.997 222.120,185.159 221.610 C 186.457 221.303,201.249 221.427,202.264 221.753 M146.968 222.770 C 149.079 224.754,147.674 228.454,144.780 228.532 C 144.021 228.552,114.547 228.531,79.282 228.484 L 15.164 228.400 14.182 227.418 C 12.373 225.610,13.023 222.737,15.400 222.025 C 16.093 221.817,43.950 221.694,81.268 221.733 L 145.936 221.800 146.968 222.770 M385.471 222.640 C 387.059 223.820,387.229 226.007,385.842 227.394 L 384.836 228.400 313.518 228.395 C 274.293 228.392,241.796 228.281,241.302 228.148 C 239.990 227.797,239.228 225.098,240.035 223.661 C 241.250 221.496,237.302 221.601,313.471 221.704 L 384.341 221.800 385.471 222.640 M166.360 271.282 C 164.140 272.633,162.990 277.831,164.708 278.751 C 166.328 279.618,219.907 279.321,220.378 278.442 C 221.440 276.456,220.456 272.179,218.729 271.285 C 217.050 270.415,167.790 270.413,166.360 271.282 M14.126 271.203 C 12.277 271.948,11.677 276.219,13.165 278.056 L 13.929 279.000 71.086 279.104 L 128.243 279.208 129.403 277.997 C 131.153 276.170,131.421 271.816,129.820 271.208 C 128.469 270.694,15.401 270.689,14.126 271.203 M254.414 271.574 C 253.292 273.670,254.394 278.113,256.207 278.803 C 257.571 279.321,382.753 279.331,384.989 278.812 C 388.143 278.081,388.835 271.840,385.851 271.039 C 383.060 270.290,254.822 270.812,254.414 271.574 M219.158 272.576 C 220.222 273.640,220.680 277.054,219.867 277.867 C 219.277 278.456,167.160 278.479,166.000 277.890 C 164.183 276.967,164.407 273.270,166.352 272.088 C 167.393 271.455,169.496 271.405,192.799 271.467 L 218.116 271.534 219.158 272.576 M322.674 271.600 L 384.836 271.600 385.818 272.582 C 387.677 274.441,386.966 277.309,384.480 277.978 C 382.142 278.608,257.635 278.581,256.252 277.951 C 252.561 276.269,254.618 270.874,258.756 271.384 C 259.722 271.503,288.485 271.600,322.674 271.600 M129.200 272.400 C 130.326 273.526,130.276 276.042,129.100 277.380 C 127.945 278.694,133.695 278.587,69.882 278.486 L 15.164 278.400 14.182 277.418 C 13.504 276.740,13.200 275.992,13.200 275.000 C 13.200 274.008,13.504 273.260,14.182 272.582 L 15.164 271.600 71.782 271.600 C 127.867 271.600,128.408 271.608,129.200 272.400 M147.772 321.706 C 145.931 323.894,145.458 327.575,146.889 328.577 C 148.189 329.488,240.438 329.529,242.613 328.620 C 245.215 327.533,242.422 321.310,239.269 321.170 C 238.901 321.154,220.150 321.149,197.600 321.158 C 175.050 321.168,154.825 321.044,152.657 320.882 L 148.713 320.588 147.772 321.706 M14.741 321.266 C 12.356 321.753,11.399 325.875,13.165 328.056 L 13.929 329.000 60.465 329.119 C 111.339 329.248,109.634 329.322,110.418 326.946 C 110.981 325.239,110.700 322.528,109.874 321.702 C 109.250 321.079,17.713 320.659,14.741 321.266 M288.128 321.854 C 287.047 323.503,286.557 327.528,287.341 328.313 C 288.027 328.998,381.782 329.663,385.439 329.008 C 387.993 328.551,388.542 323.959,386.252 322.213 L 384.904 321.184 336.796 321.092 L 288.687 321.000 288.128 321.854 M238.906 321.595 C 241.311 321.611,243.585 326.037,241.964 327.548 L 241.049 328.400 194.725 328.400 C 148.933 328.400,148.391 328.391,147.600 327.600 C 145.924 325.924,147.337 321.864,149.714 321.526 C 150.337 321.437,223.080 321.494,238.906 321.595 M383.459 321.803 C 386.474 322.325,387.783 325.097,386.035 327.256 L 385.271 328.200 337.935 328.400 C 284.761 328.625,287.914 328.785,287.673 325.849 C 287.507 323.828,288.238 322.121,289.440 321.720 C 290.491 321.369,381.420 321.450,383.459 321.803 M108.371 322.185 C 110.349 323.208,110.418 326.099,108.500 327.607 C 107.508 328.387,106.750 328.400,61.328 328.400 L 15.164 328.400 14.182 327.418 C 12.373 325.610,13.023 322.735,15.400 322.026 C 17.655 321.354,107.059 321.507,108.371 322.185 M13.322 371.204 C 11.594 371.900,11.129 376.257,12.573 378.231 C 13.314 379.244,384.604 379.468,386.495 378.456 C 388.958 377.138,388.978 372.104,386.525 371.171 C 385.250 370.687,14.526 370.719,13.322 371.204 M386.777 372.579 C 388.164 373.834,387.792 376.311,386.039 377.488 L 384.678 378.403 199.381 378.301 C 17.801 378.202,14.067 378.185,13.242 377.438 C 11.586 375.939,12.267 372.670,14.400 371.883 C 16.448 371.128,385.937 371.819,386.777 372.579 M7.070 394.161 C 6.788 394.896,7.129 395.200,8.234 395.200 C 9.797 395.200,10.484 394.783,9.961 394.153 C 9.364 393.433,7.348 393.438,7.070 394.161 M390.039 394.153 C 389.516 394.783,390.203 395.200,391.766 395.200 C 392.871 395.200,393.212 394.896,392.930 394.161 C 392.652 393.438,390.636 393.433,390.039 394.153 " stroke="none" fill="#84c45c" fill-rule="evenodd"></path></g></svg>