<?xml version="1.0" encoding="utf-8"?>
<!-- Generator: Adobe Illustrator 22.1.0, SVG Export Plug-In . SVG Version: 6.00 Build 0)  -->
<svg version="1.1" id="Layer_1" xmlns="http://www.w3.org/2000/svg" xmlns:xlink="http://www.w3.org/1999/xlink" x="0px" y="0px"
	 viewBox="0 0 414 49.4" style="enable-background:new 0 0 414 49.4;" xml:space="preserve">
<style type="text/css">
	.st0{display:none;fill:none;}
	.st1{enable-background:new    ;}
</style>
<rect x="2.5" y="1.3" class="st0" width="420.4" height="55.4"/>
<g class="st1">
	<path d="M31.6,34.1c0,7.1-5.8,12.8-12.8,12.8H7.4H2.5V6.1h7.2h0.9H14c6.3,0,11.5,5.1,11.5,11.4c0,1.8-0.5,3.5-1.2,5.1
		C28.6,24.5,31.6,28.9,31.6,34.1z M10.6,21.3H14c2.1,0,3.8-1.7,3.8-3.8s-1.7-3.8-3.8-3.8h-3.4v2.2v3.3V21.3z M24,34.1
		c0-2.9-2.3-5.1-5.1-5.1h-8.3v10.3h8.3C21.6,39.2,24,36.9,24,34.1z"/>
	<path d="M75.8,46.8h-8l-1.3-3.3c-3.2,2.1-7,3.3-11.1,3.3s-7.9-1.2-11-3.3l-1.3,3.3h-8L51.4,6.1h8L75.8,46.8z M63.6,36.5l-5.8-14.4
		l-2.4-6l-8.1,20.4c2.2,1.8,5,2.9,8.1,2.9S61.4,38.3,63.6,36.5z"/>
	<path d="M108.2,38.8v8H88.6h-8v-8V6.1h8v32.8H108.2z"/>
	<path d="M147.1,14h-11.9v32.8h-8V14h-11.9V6h31.9V14z"/>
	<path d="M194.9,46.8h-8l-1.3-3.3c-3.2,2.1-7,3.3-11.1,3.3s-7.9-1.2-11-3.3l-1.3,3.3h-8l16.4-40.8h8L194.9,46.8z M182.7,36.5
		l-5.8-14.4l-2.4-6l-8.1,20.4c2.2,1.8,5,2.9,8.1,2.9S180.5,38.3,182.7,36.5z"/>
	<path d="M233.3,46.8h-10.6l-9.8-11.2l-5.2,8v3.3h-8V6.1h8V29l15.1-22.9h9.4l-14.7,22.5L233.3,46.8z"/>
	<path d="M240.8,46.8V6.1h8v40.8H240.8z"/>
	<path d="M281.1,35.4c0,7.4-5.8,11.5-13.6,11.5c-6.6,0-11.1-2.7-13.7-6.4l6.1-4.9c1.6,2.3,3.8,4.1,7.4,4.1c3.4,0,5.6-1.7,5.6-4.1
		c0-2.8-2.3-3.8-6-5.5l-2-0.9c-5.9-2.6-9.8-5.7-9.8-12.4c0-6.2,4.7-10.8,12-10.8c4.6,0,8.1,1.5,10.7,5.1l-5.9,4.8
		c-1.3-2-2.7-2.8-4.8-2.8c-2.4,0-4,1.6-4,3.5c0,2.5,1.6,3.4,5.1,5l2,0.9C277.2,25.5,281.1,28.5,281.1,35.4z"/>
</g>
<g class="st1">
	<path d="M324.2,23.5c0,12.9-10.4,23.3-23.3,23.3h-6.5h-1.9h-7.3V0.3h7.7h1.5h6.5C313.8,0.3,324.2,10.7,324.2,23.5z M315.6,23.5
		c0-8-6.6-14.6-14.7-14.6h-6.5v29.3h6.5C309,38.2,315.6,31.6,315.6,23.5z"/>
	<path d="M363,37.7v9.2h-23h-9.2v-9.2v-4.9v-9.2V9.5V0.3h9.2h21.5v9.2H340v14.2h13.6v9.2H340v4.9H363z"/>
	<path d="M395.8,46.8h-9.7L369.2,0.2h9.7L391,33.4l12-33.2h9.7L395.8,46.8z"/>
</g>
</svg>
